G04 Layer_Color=128*
%FSLAX24Y24*%
%MOIN*%
G70*
G01*
G75*
%ADD10R,0.0512X0.0591*%
%ADD11R,0.0591X0.0512*%
%ADD28R,0.0114X0.0531*%
%ADD29R,0.0531X0.0114*%
%ADD30R,0.0630X0.0709*%
%ADD31R,0.0787X0.0945*%
%ADD32R,0.0472X0.0866*%
%ADD33R,0.1299X0.0630*%
D10*
X4518Y3543D02*
D03*
X5266D02*
D03*
X8091Y2534D02*
D03*
X8839D02*
D03*
X7190D02*
D03*
X6442D02*
D03*
X7918Y10974D02*
D03*
X8666D02*
D03*
X7918Y10187D02*
D03*
X8666D02*
D03*
D11*
X9843Y5285D02*
D03*
Y6033D02*
D03*
X3789Y9498D02*
D03*
Y8750D02*
D03*
X3789Y6024D02*
D03*
Y6772D02*
D03*
X13214Y11073D02*
D03*
Y11821D02*
D03*
X9523Y11412D02*
D03*
Y12160D02*
D03*
D28*
X8317Y9341D02*
D03*
X8120D02*
D03*
X7923D02*
D03*
X7726D02*
D03*
X7530D02*
D03*
X7333D02*
D03*
X7136D02*
D03*
X6939D02*
D03*
X6742D02*
D03*
X6545D02*
D03*
X6348D02*
D03*
X6152D02*
D03*
X5955D02*
D03*
X5758D02*
D03*
X5561D02*
D03*
X5364D02*
D03*
X5364Y4833D02*
D03*
X5561D02*
D03*
X5758D02*
D03*
X5955D02*
D03*
X6152D02*
D03*
X6348D02*
D03*
X6545D02*
D03*
X6742D02*
D03*
X6939D02*
D03*
X7136D02*
D03*
X7333D02*
D03*
X7530D02*
D03*
X7726D02*
D03*
X7923D02*
D03*
X8120D02*
D03*
X8317D02*
D03*
D29*
X9094Y5610D02*
D03*
Y5807D02*
D03*
Y6004D02*
D03*
Y6201D02*
D03*
Y6398D02*
D03*
Y6594D02*
D03*
Y6791D02*
D03*
Y6988D02*
D03*
Y7185D02*
D03*
Y7382D02*
D03*
Y7579D02*
D03*
Y7776D02*
D03*
Y7972D02*
D03*
Y8169D02*
D03*
Y8366D02*
D03*
Y8563D02*
D03*
X4587D02*
D03*
Y8366D02*
D03*
Y8169D02*
D03*
Y7972D02*
D03*
Y7776D02*
D03*
Y7579D02*
D03*
Y7382D02*
D03*
Y7185D02*
D03*
Y6988D02*
D03*
Y6791D02*
D03*
Y6594D02*
D03*
Y6398D02*
D03*
Y6201D02*
D03*
Y6004D02*
D03*
Y5807D02*
D03*
Y5610D02*
D03*
D30*
X5315Y2559D02*
D03*
X4213D02*
D03*
X8228Y1722D02*
D03*
X7126D02*
D03*
D31*
X8268Y3642D02*
D03*
X6693D02*
D03*
D32*
X10487Y11083D02*
D03*
X11393D02*
D03*
X12298D02*
D03*
D33*
X11393Y13602D02*
D03*
M02*
