G04 Layer_Color=65535*
%FSLAX24Y24*%
%MOIN*%
G70*
G01*
G75*
%ADD20C,0.0197*%
%ADD36C,0.0100*%
%ADD37C,0.0079*%
D20*
X11457Y6905D02*
G03*
X11457Y6905I-39J0D01*
G01*
D36*
X11551Y3970D02*
G03*
X11551Y3970I-39J0D01*
G01*
X11024Y7944D02*
Y8145D01*
X9843D02*
X10077D01*
X9843Y7944D02*
Y8145D01*
Y6767D02*
Y6983D01*
Y6767D02*
X10077D01*
X11024D02*
Y7001D01*
X10866Y6767D02*
X11024D01*
X10827Y8145D02*
X11024D01*
X11122Y3592D02*
X11220Y3671D01*
X10236Y3592D02*
X10354D01*
X10236Y4360D02*
Y4577D01*
Y3592D02*
Y3809D01*
Y4577D02*
X10354D01*
X11091D02*
X11220D01*
Y4360D02*
Y4577D01*
Y3671D02*
Y3809D01*
X5575Y1263D02*
X8587D01*
Y290D02*
Y1263D01*
X5575Y290D02*
X8587D01*
X5575D02*
Y1263D01*
X75Y9587D02*
X3075D01*
Y5587D02*
Y9587D01*
X75Y5587D02*
X3075D01*
X75D02*
Y9587D01*
X8692Y3330D02*
X8592Y3430D01*
X8392D01*
X8292Y3330D01*
Y2930D01*
X8392Y2830D01*
X8592D01*
X8692Y2930D01*
X8892Y3330D02*
X8992Y3430D01*
X9192D01*
X9292Y3330D01*
Y3230D01*
X9192Y3130D01*
X9292Y3030D01*
Y2930D01*
X9192Y2830D01*
X8992D01*
X8892Y2930D01*
Y3030D01*
X8992Y3130D01*
X8892Y3230D01*
Y3330D01*
X8992Y3130D02*
X9192D01*
X4732Y9664D02*
X4832Y9764D01*
Y9964D01*
X4732Y10064D01*
X4332D01*
X4232Y9964D01*
Y9764D01*
X4332Y9664D01*
X4232Y9464D02*
Y9264D01*
Y9364D01*
X4832D01*
X4732Y9464D01*
Y8964D02*
X4832Y8864D01*
Y8664D01*
X4732Y8564D01*
X4632D01*
X4532Y8664D01*
Y8764D01*
Y8664D01*
X4432Y8564D01*
X4332D01*
X4232Y8664D01*
Y8864D01*
X4332Y8964D01*
X4804Y3108D02*
X4704Y3208D01*
X4505D01*
X4405Y3108D01*
Y2708D01*
X4505Y2608D01*
X4704D01*
X4804Y2708D01*
X5004D02*
X5104Y2608D01*
X5304D01*
X5404Y2708D01*
Y3108D01*
X5304Y3208D01*
X5104D01*
X5004Y3108D01*
Y3008D01*
X5104Y2908D01*
X5404D01*
X4361Y3994D02*
X4262Y4094D01*
X4062D01*
X3962Y3994D01*
Y3594D01*
X4062Y3494D01*
X4262D01*
X4361Y3594D01*
X4561Y3494D02*
X4761D01*
X4661D01*
Y4094D01*
X4561Y3994D01*
X5061D02*
X5161Y4094D01*
X5361D01*
X5461Y3994D01*
Y3594D01*
X5361Y3494D01*
X5161D01*
X5061Y3594D01*
Y3994D01*
X150Y4726D02*
Y5326D01*
X450D01*
X550Y5226D01*
Y5026D01*
X450Y4926D01*
X150D01*
X1150Y4726D02*
X750D01*
X1150Y5126D01*
Y5226D01*
X1050Y5326D01*
X850D01*
X750Y5226D01*
X8612Y8695D02*
Y8195D01*
X8712Y8095D01*
X8912D01*
X9012Y8195D01*
Y8695D01*
X9512Y8095D02*
Y8695D01*
X9212Y8395D01*
X9612D01*
X9390Y3593D02*
X9890D01*
X9990Y3692D01*
Y3892D01*
X9890Y3992D01*
X9390D01*
X9490Y4192D02*
X9390Y4292D01*
Y4492D01*
X9490Y4592D01*
X9590D01*
X9690Y4492D01*
Y4392D01*
Y4492D01*
X9790Y4592D01*
X9890D01*
X9990Y4492D01*
Y4292D01*
X9890Y4192D01*
X10581Y861D02*
Y1461D01*
X10881D01*
X10981Y1361D01*
Y1161D01*
X10881Y1061D01*
X10581D01*
X10781D02*
X10981Y861D01*
X11181Y961D02*
X11280Y861D01*
X11480D01*
X11580Y961D01*
Y1361D01*
X11480Y1461D01*
X11280D01*
X11181Y1361D01*
Y1261D01*
X11280Y1161D01*
X11580D01*
X13091Y2559D02*
Y3159D01*
X13390D01*
X13490Y3059D01*
Y2859D01*
X13390Y2759D01*
X13091D01*
X13290D02*
X13490Y2559D01*
X13690Y3059D02*
X13790Y3159D01*
X13990D01*
X14090Y3059D01*
Y2959D01*
X13990Y2859D01*
X14090Y2759D01*
Y2659D01*
X13990Y2559D01*
X13790D01*
X13690Y2659D01*
Y2759D01*
X13790Y2859D01*
X13690Y2959D01*
Y3059D01*
X13790Y2859D02*
X13990D01*
X5733Y9941D02*
X5133D01*
Y10241D01*
X5233Y10341D01*
X5433D01*
X5533Y10241D01*
Y9941D01*
Y10141D02*
X5733Y10341D01*
X5133Y10941D02*
Y10541D01*
X5433D01*
X5333Y10741D01*
Y10841D01*
X5433Y10941D01*
X5633D01*
X5733Y10841D01*
Y10641D01*
X5633Y10541D01*
X4897Y10187D02*
X4297D01*
Y10487D01*
X4397Y10587D01*
X4597D01*
X4697Y10487D01*
Y10187D01*
Y10387D02*
X4897Y10587D01*
Y11087D02*
X4297D01*
X4597Y10787D01*
Y11187D01*
X7579Y8858D02*
Y9458D01*
X7879D01*
X7979Y9358D01*
Y9158D01*
X7879Y9058D01*
X7579D01*
X7779D02*
X7979Y8858D01*
X8179Y9358D02*
X8279Y9458D01*
X8478D01*
X8578Y9358D01*
Y9258D01*
X8478Y9158D01*
X8378D01*
X8478D01*
X8578Y9058D01*
Y8958D01*
X8478Y8858D01*
X8279D01*
X8179Y8958D01*
X6348Y8858D02*
Y9458D01*
X6648D01*
X6748Y9358D01*
Y9158D01*
X6648Y9058D01*
X6348D01*
X6548D02*
X6748Y8858D01*
X7348D02*
X6948D01*
X7348Y9258D01*
Y9358D01*
X7248Y9458D01*
X7048D01*
X6948Y9358D01*
X5044Y8858D02*
Y9458D01*
X5344D01*
X5444Y9358D01*
Y9158D01*
X5344Y9058D01*
X5044D01*
X5244D02*
X5444Y8858D01*
X5644D02*
X5844D01*
X5744D01*
Y9458D01*
X5644Y9358D01*
X13197Y10691D02*
Y11291D01*
X13497D01*
X13597Y11191D01*
Y10991D01*
X13497Y10891D01*
X13197D01*
X13797Y10691D02*
X13997D01*
X13897D01*
Y11291D01*
X13797Y11191D01*
X2442Y5373D02*
X2242D01*
X2342D01*
Y4874D01*
X2242Y4774D01*
X2142D01*
X2042Y4874D01*
X2642Y4674D02*
X3042D01*
X3642Y4774D02*
X3242D01*
X3642Y5173D01*
Y5273D01*
X3542Y5373D01*
X3342D01*
X3242Y5273D01*
X4337Y1067D02*
X4137D01*
X4237D01*
Y567D01*
X4137Y468D01*
X4037D01*
X3937Y567D01*
X4537Y368D02*
X4937D01*
X5137Y468D02*
X5337D01*
X5237D01*
Y1067D01*
X5137Y967D01*
X6053Y10738D02*
Y10138D01*
X6353D01*
X6453Y10238D01*
Y10638D01*
X6353Y10738D01*
X6053D01*
X7053D02*
X6653D01*
Y10438D01*
X6853Y10538D01*
X6953D01*
X7053Y10438D01*
Y10238D01*
X6953Y10138D01*
X6753D01*
X6653Y10238D01*
X2977Y10688D02*
Y10089D01*
X3277D01*
X3377Y10189D01*
Y10588D01*
X3277Y10688D01*
X2977D01*
X3877Y10089D02*
Y10688D01*
X3577Y10388D01*
X3977D01*
X7809Y4281D02*
X7210D01*
Y3982D01*
X7310Y3882D01*
X7709D01*
X7809Y3982D01*
Y4281D01*
X7709Y3682D02*
X7809Y3582D01*
Y3382D01*
X7709Y3282D01*
X7610D01*
X7510Y3382D01*
Y3482D01*
Y3382D01*
X7410Y3282D01*
X7310D01*
X7210Y3382D01*
Y3582D01*
X7310Y3682D01*
X3839Y4807D02*
Y4208D01*
X4138D01*
X4238Y4308D01*
Y4708D01*
X4138Y4807D01*
X3839D01*
X4838Y4208D02*
X4438D01*
X4838Y4608D01*
Y4708D01*
X4738Y4807D01*
X4538D01*
X4438Y4708D01*
X4174Y4946D02*
X4774D01*
Y5246D01*
X4674Y5346D01*
X4274D01*
X4174Y5246D01*
Y4946D01*
X4774Y5546D02*
Y5746D01*
Y5646D01*
X4174D01*
X4274Y5546D01*
X11768Y9727D02*
X11668Y9827D01*
X11468D01*
X11368Y9727D01*
Y9327D01*
X11468Y9227D01*
X11668D01*
X11768Y9327D01*
X12368Y9227D02*
X11968D01*
X12368Y9627D01*
Y9727D01*
X12268Y9827D01*
X12068D01*
X11968Y9727D01*
X12568D02*
X12668Y9827D01*
X12868D01*
X12968Y9727D01*
Y9327D01*
X12868Y9227D01*
X12668D01*
X12568Y9327D01*
Y9727D01*
X12443Y5346D02*
X12343Y5246D01*
Y5046D01*
X12443Y4946D01*
X12843D01*
X12943Y5046D01*
Y5246D01*
X12843Y5346D01*
X12943Y5546D02*
Y5746D01*
Y5646D01*
X12343D01*
X12443Y5546D01*
X12843Y6046D02*
X12943Y6145D01*
Y6345D01*
X12843Y6445D01*
X12443D01*
X12343Y6345D01*
Y6145D01*
X12443Y6046D01*
X12543D01*
X12643Y6145D01*
Y6445D01*
X11606Y5346D02*
X11506Y5246D01*
Y5046D01*
X11606Y4946D01*
X12006D01*
X12106Y5046D01*
Y5246D01*
X12006Y5346D01*
X12106Y5546D02*
Y5746D01*
Y5646D01*
X11506D01*
X11606Y5546D01*
Y6046D02*
X11506Y6145D01*
Y6345D01*
X11606Y6445D01*
X11706D01*
X11806Y6345D01*
X11906Y6445D01*
X12006D01*
X12106Y6345D01*
Y6145D01*
X12006Y6046D01*
X11906D01*
X11806Y6145D01*
X11706Y6046D01*
X11606D01*
X11806Y6145D02*
Y6345D01*
X11916Y8940D02*
X11816Y9040D01*
X11616D01*
X11516Y8940D01*
Y8540D01*
X11616Y8440D01*
X11816D01*
X11916Y8540D01*
X12116Y8440D02*
X12315D01*
X12216D01*
Y9040D01*
X12116Y8940D01*
X12615Y9040D02*
X13015D01*
Y8940D01*
X12615Y8540D01*
Y8440D01*
X10564Y6022D02*
X10664Y6122D01*
Y6322D01*
X10564Y6422D01*
X10164D01*
X10064Y6322D01*
Y6122D01*
X10164Y6022D01*
X10064Y5822D02*
Y5623D01*
Y5722D01*
X10664D01*
X10564Y5822D01*
X10664Y4923D02*
X10564Y5123D01*
X10364Y5323D01*
X10164D01*
X10064Y5223D01*
Y5023D01*
X10164Y4923D01*
X10264D01*
X10364Y5023D01*
Y5323D01*
X8717Y2567D02*
X8617Y2667D01*
X8417D01*
X8317Y2567D01*
Y2167D01*
X8417Y2067D01*
X8617D01*
X8717Y2167D01*
X8917Y2067D02*
X9117D01*
X9017D01*
Y2667D01*
X8917Y2567D01*
X9816Y2667D02*
X9417D01*
Y2367D01*
X9617Y2467D01*
X9716D01*
X9816Y2367D01*
Y2167D01*
X9716Y2067D01*
X9517D01*
X9417Y2167D01*
X9277Y12383D02*
X9477Y11983D01*
X9676Y12383D01*
X9876Y11983D02*
X10076D01*
X9976D01*
Y12583D01*
X9876Y12483D01*
X10376Y11983D02*
Y12083D01*
X10476D01*
Y11983D01*
X10376D01*
X10876Y12483D02*
X10976Y12583D01*
X11176D01*
X11276Y12483D01*
Y12083D01*
X11176Y11983D01*
X10976D01*
X10876Y12083D01*
Y12483D01*
X9277Y12820D02*
Y13420D01*
X9576D01*
X9676Y13320D01*
Y13120D01*
X9576Y13020D01*
X9277D01*
X9477D02*
X9676Y12820D01*
X9876D02*
X10076D01*
X9976D01*
Y13220D01*
X9876D01*
X10776D02*
X10476D01*
X10376Y13120D01*
Y12920D01*
X10476Y12820D01*
X10776D01*
X10976Y13420D02*
Y12820D01*
Y13120D01*
X11076Y13220D01*
X11276D01*
X11376Y13120D01*
Y12820D01*
X12576Y13420D02*
X12176D01*
Y13120D01*
X12376D01*
X12176D01*
Y12820D01*
X13175Y13320D02*
X13075Y13420D01*
X12875D01*
X12775Y13320D01*
Y12920D01*
X12875Y12820D01*
X13075D01*
X13175Y12920D01*
X8766Y7882D02*
X8666Y7982D01*
X8466D01*
X8366Y7882D01*
Y7782D01*
X8466Y7682D01*
X8666D01*
X8766Y7582D01*
Y7482D01*
X8666Y7382D01*
X8466D01*
X8366Y7482D01*
X9366Y7882D02*
X9266Y7982D01*
X9066D01*
X8966Y7882D01*
Y7482D01*
X9066Y7382D01*
X9266D01*
X9366Y7482D01*
X9566Y7982D02*
Y7382D01*
X9966D01*
X9776Y5973D02*
X9876Y6073D01*
Y6273D01*
X9776Y6373D01*
X9676D01*
X9576Y6273D01*
Y6073D01*
X9477Y5973D01*
X9377D01*
X9277Y6073D01*
Y6273D01*
X9377Y6373D01*
X9876Y5773D02*
X9277D01*
Y5473D01*
X9377Y5373D01*
X9776D01*
X9876Y5473D01*
Y5773D01*
X9277Y5173D02*
X9676D01*
X9876Y4973D01*
X9676Y4774D01*
X9277D01*
X9576D01*
Y5173D01*
X2714Y11042D02*
X2814Y11142D01*
Y11342D01*
X2714Y11442D01*
X2315D01*
X2215Y11342D01*
Y11142D01*
X2315Y11042D01*
X2514D01*
Y11242D01*
X2215Y10842D02*
X2814D01*
X2215Y10442D01*
X2814D01*
Y10242D02*
X2215D01*
Y9942D01*
X2315Y9842D01*
X2714D01*
X2814Y9942D01*
Y10242D01*
X1855Y11042D02*
Y11442D01*
X1555D01*
X1655Y11242D01*
Y11142D01*
X1555Y11042D01*
X1355D01*
X1255Y11142D01*
Y11342D01*
X1355Y11442D01*
X1855Y10842D02*
X1455D01*
X1255Y10642D01*
X1455Y10442D01*
X1855D01*
X320Y11442D02*
X920D01*
Y11142D01*
X820Y11042D01*
X620D01*
X520Y11142D01*
Y11442D01*
X920Y10842D02*
X320D01*
X520Y10642D01*
X320Y10442D01*
X920D01*
X320Y10242D02*
X920D01*
X720Y10042D01*
X920Y9842D01*
X320D01*
X1304Y4388D02*
X1404Y4488D01*
X1604D01*
X1704Y4388D01*
Y4288D01*
X1604Y4188D01*
X1504D01*
X1604D01*
X1704Y4088D01*
Y3988D01*
X1604Y3888D01*
X1404D01*
X1304Y3988D01*
X1904Y4488D02*
Y4088D01*
X2104Y3888D01*
X2304Y4088D01*
Y4488D01*
X2504Y4388D02*
X2604Y4488D01*
X2804D01*
X2904Y4388D01*
Y4288D01*
X2804Y4188D01*
X2704D01*
X2804D01*
X2904Y4088D01*
Y3988D01*
X2804Y3888D01*
X2604D01*
X2504Y3988D01*
X1304Y3380D02*
X1704D01*
X1504D01*
Y2781D01*
X1904Y3380D02*
X2304Y2781D01*
Y3380D02*
X1904Y2781D01*
X1304Y1673D02*
Y2273D01*
X1604D01*
X1704Y2173D01*
Y1973D01*
X1604Y1873D01*
X1304D01*
X1504D02*
X1704Y1673D01*
X1904Y2273D02*
X2304Y1673D01*
Y2273D02*
X1904Y1673D01*
X1704Y1066D02*
X1604Y1166D01*
X1404D01*
X1304Y1066D01*
Y666D01*
X1404Y566D01*
X1604D01*
X1704Y666D01*
Y866D01*
X1504D01*
X1904Y566D02*
Y1166D01*
X2304Y566D01*
Y1166D01*
X2504D02*
Y566D01*
X2804D01*
X2904Y666D01*
Y1066D01*
X2804Y1166D01*
X2504D01*
X4675Y1624D02*
Y2224D01*
X4975D01*
X5075Y2124D01*
Y1924D01*
X4975Y1824D01*
X4675D01*
X5275Y1624D02*
Y2224D01*
X5575D01*
X5675Y2124D01*
Y1924D01*
X5575Y1824D01*
X5275D01*
X5875Y1624D02*
Y2224D01*
X6075Y2024D01*
X6275Y2224D01*
Y1624D01*
X7317Y2076D02*
Y2476D01*
X7017D01*
X7117Y2276D01*
Y2176D01*
X7017Y2076D01*
X6817D01*
X6718Y2176D01*
Y2376D01*
X6817Y2476D01*
X7317Y1876D02*
X6917D01*
X6718Y1676D01*
X6917Y1476D01*
X7317D01*
X8029Y2676D02*
X8129Y2776D01*
Y2976D01*
X8029Y3076D01*
X7630D01*
X7530Y2976D01*
Y2776D01*
X7630Y2676D01*
X7829D01*
Y2876D01*
X7530Y2476D02*
X8129D01*
X7530Y2076D01*
X8129D01*
Y1876D02*
X7530D01*
Y1576D01*
X7630Y1476D01*
X8029D01*
X8129Y1576D01*
Y1876D01*
X3297Y5832D02*
Y6431D01*
X3497Y6232D01*
X3697Y6431D01*
Y5832D01*
X4197D02*
Y6431D01*
X3897Y6132D01*
X4297D01*
X3297Y6865D02*
Y7465D01*
X3497Y7265D01*
X3697Y7465D01*
Y6865D01*
X3897Y7365D02*
X3997Y7465D01*
X4197D01*
X4297Y7365D01*
Y7265D01*
X4197Y7165D01*
X4097D01*
X4197D01*
X4297Y7065D01*
Y6965D01*
X4197Y6865D01*
X3997D01*
X3897Y6965D01*
X3297Y7849D02*
Y8449D01*
X3497Y8249D01*
X3697Y8449D01*
Y7849D01*
X4297D02*
X3897D01*
X4297Y8249D01*
Y8349D01*
X4197Y8449D01*
X3997D01*
X3897Y8349D01*
X3297Y8809D02*
Y9409D01*
X3497Y9209D01*
X3697Y9409D01*
Y8809D01*
X3897D02*
X4097D01*
X3997D01*
Y9409D01*
X3897Y9309D01*
D37*
X7938Y3583D02*
Y4094D01*
X4296Y7151D02*
X4808D01*
X5650Y2672D02*
Y3184D01*
Y3533D02*
Y4045D01*
X5866Y4695D02*
Y5364D01*
X4961Y4695D02*
X5118Y4498D01*
X5709D02*
X5866Y4695D01*
X4961D02*
Y5364D01*
X5118Y4498D02*
X5709D01*
X4961Y6900D02*
X5866D01*
Y6152D02*
Y6900D01*
X4961Y6152D02*
Y6900D01*
X6959Y7707D02*
Y7943D01*
X6329Y7707D02*
Y7943D01*
X5728Y7707D02*
Y7943D01*
X5098Y7707D02*
Y7943D01*
X8189Y7697D02*
Y7933D01*
X7559Y7697D02*
Y7933D01*
X9724Y1088D02*
Y1324D01*
X10354Y1088D02*
Y1324D01*
X12185Y3435D02*
Y3671D01*
X12815Y3435D02*
Y3671D01*
X11299Y8430D02*
Y8942D01*
X6191Y6152D02*
Y6900D01*
X7096Y6152D02*
Y6900D01*
X6191D02*
X7096D01*
X6348Y4498D02*
X6939D01*
X6191Y4695D02*
Y5364D01*
X6939Y4498D02*
X7096Y4695D01*
X6191D02*
X6348Y4498D01*
X7096Y4695D02*
Y5364D01*
X7421Y6152D02*
Y6900D01*
X8327Y6152D02*
Y6900D01*
X7421D02*
X8327D01*
X7579Y4498D02*
X8169D01*
X7421Y4695D02*
Y5364D01*
X8169Y4498D02*
X8327Y4695D01*
X7421D02*
X7579Y4498D01*
X8327Y4695D02*
Y5364D01*
X3824Y10940D02*
Y11688D01*
X2918Y10940D02*
Y11688D01*
Y10940D02*
X3824D01*
X3076Y13342D02*
X3666D01*
X3824Y12475D02*
Y13145D01*
X2918D02*
X3076Y13342D01*
X3666D02*
X3824Y13145D01*
X2918Y12475D02*
Y13145D01*
X4139Y11944D02*
Y12180D01*
X4769Y11944D02*
Y12180D01*
X6973Y10940D02*
Y11688D01*
X6068Y10940D02*
Y11688D01*
Y10940D02*
X6973D01*
X6225Y13342D02*
X6816D01*
X6973Y12475D02*
Y13145D01*
X6068D02*
X6225Y13342D01*
X6816D02*
X6973Y13145D01*
X6068Y12475D02*
Y13145D01*
X5113Y11944D02*
Y12180D01*
X5743Y11944D02*
Y12180D01*
X9813Y9218D02*
Y9729D01*
X10866Y6432D02*
X11378D01*
X12392Y8105D02*
X12904D01*
X11604D02*
X12116D01*
X9961Y2549D02*
Y3061D01*
X91Y4386D02*
X1091D01*
Y386D02*
Y4386D01*
X91Y386D02*
Y4386D01*
Y386D02*
X1091D01*
X13132Y10356D02*
X14132D01*
Y3356D02*
Y10356D01*
X13132Y3356D02*
X14132D01*
X13132D02*
Y10356D01*
M02*
