G04 Layer_Physical_Order=1*
G04 Layer_Color=255*
%FSLAX24Y24*%
%MOIN*%
G70*
G01*
G75*
%ADD10R,0.0512X0.0591*%
%ADD11R,0.0591X0.0512*%
%ADD12R,0.0709X0.0630*%
%ADD13R,0.0591X0.0591*%
%ADD14R,0.0217X0.0157*%
%ADD15R,0.0157X0.0213*%
%ADD16R,0.0157X0.0217*%
%ADD17R,0.0177X0.0109*%
%ADD18R,0.0109X0.0177*%
%ADD19C,0.0197*%
%ADD20C,0.0098*%
%ADD21C,0.0118*%
%ADD22C,0.0591*%
%ADD23R,0.0400X0.0400*%
%ADD24C,0.0400*%
%ADD25R,0.0400X0.0400*%
%ADD26C,0.0394*%
%ADD27C,0.0150*%
%ADD28C,0.0170*%
G36*
X13976Y13946D02*
Y10120D01*
X13916Y10100D01*
X13899Y10123D01*
X13821Y10183D01*
X13730Y10221D01*
X13632Y10234D01*
X13534Y10221D01*
X13443Y10183D01*
X13365Y10123D01*
X13305Y10045D01*
X13268Y9954D01*
X13255Y9856D01*
X13268Y9759D01*
X13305Y9668D01*
X13365Y9590D01*
X13443Y9530D01*
X13534Y9492D01*
X13632Y9479D01*
X13730Y9492D01*
X13821Y9530D01*
X13899Y9590D01*
X13916Y9613D01*
X13976Y9592D01*
Y9120D01*
X13916Y9100D01*
X13899Y9123D01*
X13821Y9183D01*
X13730Y9221D01*
X13632Y9234D01*
X13534Y9221D01*
X13443Y9183D01*
X13365Y9123D01*
X13330Y9078D01*
X13270Y9098D01*
Y9170D01*
X13285Y9192D01*
X13297Y9252D01*
X13285Y9312D01*
X13251Y9363D01*
X13200Y9397D01*
X13140Y9409D01*
X13080Y9397D01*
X13029Y9363D01*
X12995Y9312D01*
X12983Y9252D01*
X12995Y9192D01*
X13009Y9170D01*
Y8633D01*
X12949Y8605D01*
X12913Y8629D01*
X12894Y8633D01*
Y8465D01*
Y8296D01*
X12913Y8300D01*
X12938Y8316D01*
X12983Y8328D01*
X13015Y8301D01*
X13029Y8280D01*
X13080Y8246D01*
X13140Y8234D01*
X13200Y8246D01*
X13251Y8280D01*
X13285Y8331D01*
X13297Y8391D01*
X13285Y8451D01*
X13270Y8472D01*
Y8615D01*
X13330Y8635D01*
X13365Y8590D01*
X13443Y8530D01*
X13534Y8492D01*
X13632Y8479D01*
X13730Y8492D01*
X13821Y8530D01*
X13899Y8590D01*
X13916Y8613D01*
X13976Y8592D01*
Y8120D01*
X13916Y8100D01*
X13899Y8123D01*
X13821Y8183D01*
X13730Y8221D01*
X13632Y8234D01*
X13534Y8221D01*
X13443Y8183D01*
X13365Y8123D01*
X13305Y8045D01*
X13268Y7954D01*
X13255Y7856D01*
X13268Y7759D01*
X13292Y7700D01*
X13083Y7492D01*
X13023Y7517D01*
Y7987D01*
X13017Y8018D01*
X13000Y8044D01*
X12974Y8061D01*
X12943Y8067D01*
X12352D01*
X12322Y8061D01*
X12296Y8044D01*
X12287Y8032D01*
X12269Y8027D01*
X12239D01*
X12221Y8032D01*
X12212Y8044D01*
X12186Y8061D01*
X12156Y8067D01*
X12115D01*
Y8292D01*
Y8588D01*
Y9989D01*
X12206Y10080D01*
X12549D01*
X12618Y10094D01*
X12677Y10133D01*
X12716Y10192D01*
X12730Y10261D01*
X12716Y10330D01*
X12677Y10389D01*
X12618Y10428D01*
X12549Y10441D01*
X12131D01*
X12062Y10428D01*
X12003Y10389D01*
X11806Y10192D01*
X11767Y10133D01*
X11753Y10064D01*
Y8588D01*
Y8292D01*
Y8067D01*
X11642D01*
X11641Y8068D01*
X11615Y8127D01*
X11636Y8159D01*
X11648Y8219D01*
X11636Y8278D01*
X11622Y8300D01*
Y9252D01*
X11612Y9302D01*
X11583Y9344D01*
X11362Y9566D01*
X11320Y9594D01*
X11271Y9604D01*
Y9769D01*
X11265Y9799D01*
X11248Y9825D01*
X11222Y9843D01*
X11191Y9849D01*
X10679D01*
X10648Y9843D01*
X10622Y9825D01*
X10605Y9799D01*
X10602Y9787D01*
X10541Y9787D01*
X10537Y9808D01*
X10515Y9841D01*
X10482Y9863D01*
X10443Y9871D01*
X10237D01*
Y9473D01*
X10187D01*
Y9423D01*
X9829D01*
Y9178D01*
X9837Y9139D01*
X9859Y9106D01*
X9849Y9053D01*
X9827Y9020D01*
X9819Y8981D01*
Y8736D01*
X10177D01*
Y8686D01*
X10227D01*
Y8289D01*
X10433D01*
X10472Y8297D01*
X10505Y8319D01*
X10527Y8352D01*
X10531Y8373D01*
X10593Y8373D01*
X10595Y8360D01*
X10613Y8334D01*
X10639Y8317D01*
X10669Y8310D01*
X11042D01*
X11111Y8242D01*
X11107Y8227D01*
X11043Y8197D01*
X11004Y8205D01*
X10965D01*
Y8048D01*
X10865D01*
Y8205D01*
X10827D01*
X10808Y8201D01*
X10781Y8219D01*
X10742Y8227D01*
X10737D01*
Y8036D01*
X10637D01*
Y8227D01*
X10632D01*
X10602Y8221D01*
X10572Y8227D01*
X10568D01*
Y8036D01*
Y7846D01*
X10572D01*
X10602Y7852D01*
X10632Y7846D01*
X10706D01*
X10729Y7788D01*
X10725Y7764D01*
Y7760D01*
X10915D01*
Y7675D01*
X10827D01*
X10796Y7669D01*
X10782Y7660D01*
X10725D01*
Y7655D01*
X10733Y7616D01*
X10691Y7571D01*
X10686Y7570D01*
X10641Y7601D01*
X10581Y7612D01*
X10521Y7601D01*
X10470Y7567D01*
X10436Y7516D01*
X10424Y7456D01*
X10436Y7396D01*
X10450Y7374D01*
Y7351D01*
X10408Y7317D01*
X10348Y7305D01*
X10298Y7271D01*
X10264Y7220D01*
X10252Y7160D01*
X10259Y7122D01*
X10256Y7119D01*
X10228Y7077D01*
X10221Y7044D01*
X10124D01*
X10120Y7048D01*
Y7087D01*
X10114Y7117D01*
X10120Y7147D01*
Y7256D01*
X10114Y7286D01*
X10120Y7316D01*
Y7426D01*
X10114Y7456D01*
X10120Y7486D01*
Y7595D01*
X10114Y7625D01*
X10120Y7655D01*
Y7764D01*
X10115Y7787D01*
X10116Y7793D01*
X10129Y7824D01*
Y8036D01*
Y8227D01*
X10124D01*
X10085Y8219D01*
X10052Y8197D01*
X10043Y8183D01*
X10039Y8183D01*
X9866D01*
X9845Y8204D01*
X9840Y8229D01*
X9806Y8280D01*
X9755Y8314D01*
X9695Y8326D01*
X9635Y8314D01*
X9584Y8280D01*
X9550Y8229D01*
X9538Y8169D01*
X9539Y8165D01*
X9539Y8163D01*
X9490Y8103D01*
X8718D01*
X8697Y8117D01*
X8637Y8129D01*
X8577Y8117D01*
X8526Y8083D01*
X8492Y8032D01*
X8480Y7972D01*
X8492Y7912D01*
X8526Y7862D01*
X8577Y7828D01*
X8637Y7816D01*
X8697Y7828D01*
X8718Y7842D01*
X9381D01*
X9421Y7782D01*
X9415Y7751D01*
X9416Y7746D01*
X9367Y7686D01*
X8824D01*
X8821Y7690D01*
X8771Y7724D01*
X8711Y7735D01*
X8651Y7724D01*
X8600Y7690D01*
X8566Y7639D01*
X8554Y7579D01*
X8566Y7519D01*
X8600Y7468D01*
X8651Y7434D01*
X8711Y7422D01*
X8729Y7426D01*
X8734Y7425D01*
X9368D01*
X9406Y7378D01*
X9404Y7371D01*
X9416Y7311D01*
X9450Y7260D01*
X9501Y7226D01*
X9532Y7220D01*
X9563Y7210D01*
X9589Y7159D01*
Y7050D01*
X9556Y7008D01*
X9539Y6996D01*
X9487Y6985D01*
X9436Y6951D01*
X9402Y6901D01*
X9390Y6841D01*
X9402Y6781D01*
X9436Y6730D01*
X9423Y6667D01*
X9402Y6636D01*
X9390Y6576D01*
X9402Y6516D01*
X9417Y6494D01*
Y6275D01*
X9427Y6225D01*
X9455Y6182D01*
X10265Y5373D01*
Y5082D01*
X10260Y5081D01*
X10218Y5053D01*
X9799Y4634D01*
X9771Y4592D01*
X9761Y4542D01*
Y2411D01*
X9771Y2361D01*
X9799Y2319D01*
X9911Y2208D01*
X9888Y2152D01*
X9685D01*
X9654Y2146D01*
X9628Y2129D01*
X9611Y2103D01*
X9605Y2072D01*
Y1442D01*
X9611Y1411D01*
X9621Y1396D01*
X9608Y1356D01*
X9594Y1336D01*
X9523D01*
X9473Y1326D01*
X9430Y1298D01*
X9390Y1258D01*
X9370Y1262D01*
X9355Y1324D01*
X9394Y1383D01*
X9408Y1452D01*
X9394Y1521D01*
X9355Y1579D01*
X9296Y1619D01*
X9227Y1632D01*
X6085D01*
Y4249D01*
X6100Y4271D01*
X6111Y4331D01*
X6100Y4391D01*
X6066Y4442D01*
X6015Y4476D01*
X5955Y4487D01*
X5895Y4476D01*
X5844Y4442D01*
X5810Y4391D01*
X5798Y4331D01*
X5810Y4271D01*
X5824Y4249D01*
Y1632D01*
X4211D01*
X4208Y1633D01*
X4204Y1632D01*
X2265D01*
X1829Y2068D01*
Y2828D01*
X1816Y2897D01*
X1776Y2955D01*
X1071Y3661D01*
X1089Y3728D01*
X1135Y3758D01*
X1362Y3985D01*
X1427Y3966D01*
X1430Y3951D01*
X1464Y3900D01*
X1507Y3871D01*
X1482Y3834D01*
X1468Y3765D01*
X1482Y3696D01*
X1521Y3637D01*
X1579Y3598D01*
X1586Y3597D01*
X2308Y2874D01*
X2530Y2653D01*
X2588Y2614D01*
X2657Y2600D01*
X2727Y2614D01*
X2785Y2653D01*
X2824Y2711D01*
X2838Y2781D01*
X2824Y2850D01*
X2785Y2908D01*
X2604Y3089D01*
X2603Y3096D01*
X2564Y3154D01*
X2505Y3193D01*
X2499Y3195D01*
X1801Y3892D01*
X1768Y3915D01*
X1742Y3934D01*
X1729Y3996D01*
X1732Y4011D01*
X1720Y4071D01*
X1686Y4122D01*
X1635Y4156D01*
X1620Y4159D01*
X1600Y4224D01*
X3302Y5925D01*
X3942Y6565D01*
X3981Y6624D01*
X3995Y6693D01*
Y8095D01*
Y8833D01*
X4233Y9071D01*
X5085D01*
Y8771D01*
X5059D01*
X5028Y8765D01*
X5002Y8748D01*
X4985Y8722D01*
X4979Y8691D01*
Y8061D01*
X4985Y8030D01*
X5002Y8004D01*
X5028Y7987D01*
X5059Y7981D01*
X5768D01*
X5798Y7987D01*
X5824Y8004D01*
X5842Y8030D01*
X5848Y8061D01*
Y8691D01*
X5842Y8722D01*
X5824Y8748D01*
X5798Y8765D01*
X5768Y8771D01*
X5446D01*
Y9071D01*
X9203D01*
X9272Y9085D01*
X9330Y9124D01*
X9774Y9567D01*
X9829Y9545D01*
Y9523D01*
X10137D01*
Y9871D01*
X9990D01*
X9965Y9931D01*
X10114Y10080D01*
X10605D01*
X10674Y10094D01*
X10733Y10133D01*
X10772Y10192D01*
X10786Y10261D01*
X10772Y10330D01*
X10733Y10389D01*
X10674Y10428D01*
X10605Y10441D01*
X10039D01*
X9970Y10428D01*
X9912Y10389D01*
X9604Y10081D01*
X9575Y10038D01*
X9519Y10029D01*
X9505Y10031D01*
X9460Y10061D01*
X9400Y10073D01*
X9340Y10061D01*
X9289Y10027D01*
X9255Y9976D01*
X9250Y9951D01*
X9100Y9801D01*
X6782D01*
X6765Y9833D01*
X6759Y9861D01*
X6789Y9906D01*
X6790Y9911D01*
X6856Y9935D01*
X6879Y9919D01*
X6939Y9907D01*
X6999Y9919D01*
X7050Y9953D01*
X7080Y9998D01*
X7093Y10006D01*
X7147Y10016D01*
X7158Y10005D01*
X7163Y9979D01*
X7197Y9929D01*
X7248Y9895D01*
X7308Y9883D01*
X7368Y9895D01*
X7419Y9929D01*
X7453Y9979D01*
X7465Y10039D01*
X7453Y10099D01*
X7419Y10150D01*
X7387Y10172D01*
X7397Y10235D01*
X7417Y10239D01*
X7468Y10273D01*
X7502Y10324D01*
X7514Y10384D01*
X7502Y10444D01*
X7468Y10495D01*
X7417Y10529D01*
X7392Y10534D01*
X7257Y10669D01*
X7295Y10715D01*
X7338Y10687D01*
X7357Y10683D01*
Y10851D01*
X7406D01*
Y10901D01*
X7575D01*
X7571Y10920D01*
X7533Y10978D01*
Y10996D01*
X7571Y11054D01*
X7575Y11072D01*
X7406D01*
Y11122D01*
X7357D01*
Y11291D01*
X7338Y11287D01*
X7280Y11248D01*
X7263Y11222D01*
X7254Y11220D01*
X7194Y11226D01*
X7192Y11228D01*
Y11414D01*
X7515D01*
X7545Y11420D01*
X7572Y11437D01*
X7589Y11463D01*
X7595Y11494D01*
Y12116D01*
X7614Y12131D01*
X7652Y12143D01*
X7868Y11928D01*
X7866Y11917D01*
X7849Y11891D01*
X7843Y11860D01*
Y11270D01*
X7849Y11239D01*
X7866Y11213D01*
X7893Y11196D01*
X7923Y11189D01*
X8514D01*
X8544Y11196D01*
X8571Y11213D01*
X8588Y11239D01*
X8594Y11270D01*
Y11860D01*
X8588Y11891D01*
X8571Y11917D01*
X8544Y11934D01*
X8514Y11941D01*
X8224D01*
X7591Y12574D01*
X7595Y12596D01*
Y13226D01*
X7589Y13257D01*
X7572Y13283D01*
X7545Y13301D01*
X7515Y13307D01*
X6806D01*
X6775Y13301D01*
X6749Y13283D01*
X6732Y13257D01*
X6726Y13226D01*
Y12596D01*
X6732Y12566D01*
X6749Y12540D01*
X6775Y12522D01*
X6806Y12516D01*
X7280D01*
X7534Y12262D01*
X7521Y12223D01*
X7507Y12204D01*
X6806D01*
X6775Y12198D01*
X6749Y12181D01*
X6732Y12155D01*
X6726Y12124D01*
Y11494D01*
X6732Y11463D01*
X6749Y11437D01*
X6775Y11420D01*
X6806Y11414D01*
X6932D01*
Y11228D01*
X6917Y11207D01*
X6905Y11147D01*
X6917Y11087D01*
X6931Y11066D01*
X6895Y11026D01*
X6889Y11021D01*
X6841Y11031D01*
X6246D01*
X6228Y11091D01*
X6245Y11102D01*
X6281Y11157D01*
X6294Y11220D01*
X6281Y11284D01*
X6257Y11320D01*
Y11414D01*
X6398D01*
X6428Y11420D01*
X6454Y11437D01*
X6472Y11463D01*
X6478Y11494D01*
Y12124D01*
X6472Y12155D01*
X6454Y12181D01*
X6428Y12198D01*
X6398Y12204D01*
X5689D01*
X5658Y12198D01*
X5632Y12181D01*
X5615Y12155D01*
X5609Y12124D01*
Y11494D01*
X5615Y11463D01*
X5632Y11437D01*
X5658Y11420D01*
X5689Y11414D01*
X5997D01*
Y11320D01*
X5973Y11284D01*
X5960Y11220D01*
X5973Y11157D01*
X6009Y11102D01*
X6026Y11091D01*
X6008Y11031D01*
X1558D01*
X1536Y11045D01*
X1476Y11057D01*
X1416Y11045D01*
X1366Y11011D01*
X1332Y10961D01*
X1320Y10901D01*
X1332Y10841D01*
X1366Y10790D01*
X1386Y10776D01*
Y10705D01*
X1366Y10692D01*
X1332Y10641D01*
X1320Y10581D01*
X1332Y10521D01*
X1366Y10470D01*
X1386Y10456D01*
Y10385D01*
X1366Y10372D01*
X1332Y10321D01*
X1320Y10261D01*
X1332Y10201D01*
X1366Y10150D01*
X1367Y10149D01*
Y10077D01*
X1366Y10076D01*
X1332Y10026D01*
X1320Y9966D01*
X1332Y9906D01*
X1366Y9855D01*
X1416Y9821D01*
X1476Y9809D01*
X1536Y9821D01*
X1558Y9835D01*
X4524D01*
X4569Y9775D01*
X4566Y9766D01*
X4515Y9732D01*
X4481Y9681D01*
X4469Y9621D01*
X4481Y9561D01*
X4515Y9510D01*
X4542Y9493D01*
X4523Y9433D01*
X4158D01*
X4089Y9419D01*
X4031Y9380D01*
X3686Y9035D01*
X3647Y8977D01*
X3633Y8907D01*
Y8095D01*
Y6768D01*
X3046Y6181D01*
X2936Y6070D01*
X2901Y6080D01*
X2876Y6095D01*
X2867Y6165D01*
X2837Y6238D01*
X2789Y6301D01*
X2726Y6349D01*
X2653Y6379D01*
X2625Y6383D01*
Y6087D01*
X2575D01*
Y6037D01*
X2279D01*
X2283Y6008D01*
X2313Y5935D01*
X2361Y5873D01*
X2424Y5825D01*
X2496Y5794D01*
X2566Y5785D01*
X2581Y5760D01*
X2591Y5726D01*
X1022Y4156D01*
X988Y4170D01*
X965Y4185D01*
X960Y4212D01*
X943Y4238D01*
X917Y4255D01*
X886Y4261D01*
X295D01*
X265Y4255D01*
X257Y4250D01*
X200Y4274D01*
X197Y4277D01*
X197Y13964D01*
X13934Y13988D01*
X13976Y13946D01*
D02*
G37*
G36*
X13365Y6590D02*
X13443Y6530D01*
X13534Y6492D01*
X13632Y6479D01*
X13730Y6492D01*
X13821Y6530D01*
X13899Y6590D01*
X13916Y6613D01*
X13976Y6592D01*
Y6150D01*
X13920Y6131D01*
X13914Y6138D01*
X13831Y6202D01*
X13735Y6241D01*
X13682Y6248D01*
Y5856D01*
Y5464D01*
X13735Y5471D01*
X13831Y5511D01*
X13914Y5574D01*
X13920Y5582D01*
X13976Y5563D01*
Y5120D01*
X13916Y5100D01*
X13899Y5123D01*
X13821Y5183D01*
X13730Y5221D01*
X13632Y5234D01*
X13534Y5221D01*
X13443Y5183D01*
X13365Y5123D01*
X13305Y5045D01*
X13246Y5058D01*
Y5612D01*
X13306Y5632D01*
X13350Y5574D01*
X13433Y5511D01*
X13529Y5471D01*
X13582Y5464D01*
Y5856D01*
Y6248D01*
X13529Y6241D01*
X13433Y6202D01*
X13350Y6138D01*
X13306Y6080D01*
X13246Y6101D01*
Y6655D01*
X13305Y6668D01*
X13365Y6590D01*
D02*
G37*
G36*
X11910Y6625D02*
X12156D01*
X12195Y6633D01*
X12228Y6655D01*
X12280D01*
X12313Y6633D01*
X12352Y6625D01*
X12476D01*
X12494Y6565D01*
X12471Y6550D01*
X12432Y6491D01*
X12418Y6422D01*
Y6152D01*
Y5044D01*
X12432Y4975D01*
X12442Y4959D01*
Y4724D01*
X12456Y4655D01*
X12495Y4597D01*
X12551Y4560D01*
X12552Y4555D01*
X12527Y4500D01*
X12146D01*
X12115Y4493D01*
X12089Y4476D01*
X12071Y4450D01*
X12065Y4419D01*
Y4333D01*
X11449D01*
Y4626D01*
X11439Y4676D01*
X11411Y4718D01*
X11313Y4817D01*
X11270Y4845D01*
X11220Y4855D01*
X11035D01*
X11030Y4856D01*
X10930D01*
X10889Y4897D01*
X10912Y4952D01*
X11072D01*
Y5310D01*
X11122D01*
Y5360D01*
X11519D01*
Y5566D01*
X11512Y5605D01*
X11490Y5638D01*
X11456Y5660D01*
X11436Y5664D01*
X11436Y5725D01*
X11448Y5728D01*
X11474Y5745D01*
X11492Y5771D01*
X11498Y5802D01*
Y6314D01*
X11492Y6345D01*
X11475Y6369D01*
X11548Y6442D01*
X11576Y6485D01*
X11586Y6534D01*
Y6625D01*
X11810D01*
Y6983D01*
X11910D01*
Y6625D01*
D02*
G37*
G36*
X265Y3516D02*
X295Y3510D01*
X711D01*
X1468Y2753D01*
Y1993D01*
X1482Y1924D01*
X1521Y1865D01*
X2062Y1324D01*
X2121Y1285D01*
X2190Y1271D01*
X6509D01*
X6552Y1211D01*
X6548Y1200D01*
X6497Y1166D01*
X6464Y1115D01*
X6452Y1055D01*
X6464Y995D01*
X6497Y944D01*
X6548Y910D01*
X6608Y899D01*
X6668Y910D01*
X6719Y944D01*
X6741Y977D01*
X6824D01*
X6853Y917D01*
X6843Y903D01*
X6815Y836D01*
X6805Y763D01*
X6815Y690D01*
X6843Y622D01*
X6888Y564D01*
X6946Y519D01*
X7014Y491D01*
X7087Y482D01*
X7159Y491D01*
X7227Y519D01*
X7285Y564D01*
X7330Y622D01*
X7358Y690D01*
X7368Y763D01*
X7358Y836D01*
X7330Y903D01*
X7320Y917D01*
X7349Y977D01*
X7797D01*
X7827Y917D01*
X7825Y914D01*
X7794Y841D01*
X7791Y813D01*
X8087D01*
X8383D01*
X8379Y841D01*
X8349Y914D01*
X8347Y917D01*
X8376Y977D01*
X9424D01*
X9474Y987D01*
X9516Y1015D01*
X9545Y1043D01*
X9564Y1047D01*
X9569Y1045D01*
X9611Y1000D01*
X9605Y969D01*
Y340D01*
X9611Y309D01*
X9628Y283D01*
X9654Y265D01*
X9685Y259D01*
X10394D01*
X10424Y265D01*
X10450Y283D01*
X10468Y309D01*
X10474Y340D01*
Y474D01*
X10669D01*
X10738Y488D01*
X10797Y527D01*
X11570Y1299D01*
X11609Y1358D01*
X11623Y1427D01*
X11609Y1496D01*
X11570Y1555D01*
X11511Y1594D01*
X11442Y1608D01*
X11373Y1594D01*
X11314Y1555D01*
X10594Y835D01*
X10474D01*
Y969D01*
X10468Y1000D01*
X10458Y1015D01*
X10471Y1055D01*
X10484Y1075D01*
X10655D01*
X10704Y1085D01*
X10747Y1113D01*
X11643Y2010D01*
X11672Y2052D01*
X11682Y2102D01*
Y3180D01*
X11890Y3388D01*
X12026D01*
X12038Y3378D01*
X12068Y3328D01*
X12065Y3317D01*
Y2713D01*
X12023Y2669D01*
X12009Y2663D01*
X12008Y2664D01*
X11940Y2650D01*
X11882Y2611D01*
X11843Y2554D01*
X11839Y2535D01*
X12176D01*
X12174Y2547D01*
X12178Y2561D01*
X12209Y2607D01*
X12442D01*
Y2411D01*
X12456Y2342D01*
X12495Y2284D01*
X12554Y2245D01*
X12623Y2231D01*
X12692Y2245D01*
X12751Y2284D01*
X12790Y2342D01*
X12804Y2411D01*
Y2607D01*
X12854D01*
X12885Y2613D01*
X12911Y2630D01*
X12929Y2656D01*
X12935Y2687D01*
Y2904D01*
X13512Y3481D01*
X13927D01*
X13976Y3433D01*
Y197D01*
X197D01*
Y653D01*
X257Y671D01*
X309Y604D01*
X391Y541D01*
X487Y501D01*
X541Y494D01*
Y886D01*
Y1278D01*
X487Y1271D01*
X391Y1231D01*
X309Y1168D01*
X257Y1100D01*
X197Y1119D01*
Y1702D01*
X257Y1714D01*
X264Y1697D01*
X324Y1619D01*
X402Y1559D01*
X493Y1521D01*
X591Y1509D01*
X688Y1521D01*
X779Y1559D01*
X857Y1619D01*
X917Y1697D01*
X955Y1788D01*
X968Y1886D01*
X955Y1983D01*
X917Y2074D01*
X857Y2153D01*
X779Y2213D01*
X688Y2250D01*
X591Y2263D01*
X493Y2250D01*
X402Y2213D01*
X324Y2153D01*
X264Y2074D01*
X257Y2058D01*
X197Y2069D01*
Y2702D01*
X257Y2714D01*
X264Y2697D01*
X324Y2619D01*
X402Y2559D01*
X493Y2521D01*
X591Y2509D01*
X688Y2521D01*
X779Y2559D01*
X857Y2619D01*
X917Y2697D01*
X955Y2788D01*
X968Y2886D01*
X955Y2983D01*
X917Y3074D01*
X857Y3153D01*
X779Y3213D01*
X688Y3250D01*
X591Y3263D01*
X493Y3250D01*
X402Y3213D01*
X324Y3153D01*
X264Y3074D01*
X257Y3058D01*
X197Y3069D01*
Y3495D01*
X200Y3498D01*
X257Y3522D01*
X265Y3516D01*
D02*
G37*
G36*
X10227Y3814D02*
X10258Y3807D01*
X10311D01*
Y3769D01*
X10492D01*
Y3719D01*
X10542D01*
Y3510D01*
X10571D01*
X10610Y3518D01*
X10612Y3520D01*
X10650Y3512D01*
X10678D01*
Y3722D01*
X10778D01*
Y3512D01*
X10807D01*
X10834Y3490D01*
Y3181D01*
X10827D01*
X10796Y3175D01*
X10770Y3157D01*
X10753Y3131D01*
X10750Y3118D01*
X10689Y3118D01*
X10685Y3139D01*
X10663Y3172D01*
X10630Y3195D01*
X10591Y3202D01*
X10385D01*
Y2805D01*
Y2408D01*
X10591D01*
X10630Y2416D01*
X10663Y2438D01*
X10685Y2471D01*
X10689Y2492D01*
X10750Y2492D01*
X10753Y2479D01*
X10770Y2453D01*
X10796Y2436D01*
X10827Y2430D01*
X10942D01*
Y2370D01*
X10928Y2348D01*
X10916Y2288D01*
X10928Y2228D01*
X10962Y2178D01*
X11013Y2144D01*
X11073Y2132D01*
X11133Y2144D01*
X11184Y2178D01*
X11218Y2228D01*
X11230Y2288D01*
X11218Y2348D01*
X11203Y2370D01*
Y2430D01*
X11339D01*
X11361Y2434D01*
X11385Y2424D01*
X11421Y2398D01*
Y2156D01*
X10600Y1336D01*
X10484D01*
X10471Y1356D01*
X10458Y1396D01*
X10468Y1411D01*
X10474Y1442D01*
Y2072D01*
X10468Y2103D01*
X10450Y2129D01*
X10424Y2146D01*
X10394Y2152D01*
X10268D01*
Y2165D01*
X10258Y2215D01*
X10230Y2258D01*
X10135Y2352D01*
X10158Y2408D01*
X10285D01*
Y2805D01*
Y3202D01*
X10079D01*
X10022Y3250D01*
Y3763D01*
X10082Y3812D01*
X10093Y3810D01*
X10153Y3822D01*
X10201Y3831D01*
X10227Y3814D01*
D02*
G37*
%LPC*%
G36*
X3250Y5509D02*
Y5390D01*
X3368D01*
X3364Y5409D01*
X3326Y5467D01*
X3268Y5505D01*
X3250Y5509D01*
D02*
G37*
G36*
X3569Y3417D02*
Y3298D01*
X3687D01*
X3684Y3316D01*
X3645Y3374D01*
X3587Y3413D01*
X3569Y3417D01*
D02*
G37*
G36*
X5811Y5019D02*
X5463D01*
Y4672D01*
X5709D01*
X5748Y4679D01*
X5781Y4702D01*
X5803Y4735D01*
X5811Y4774D01*
Y5019D01*
D02*
G37*
G36*
X5363D02*
X5016D01*
Y4774D01*
X5024Y4735D01*
X5046Y4702D01*
X5079Y4679D01*
X5118Y4672D01*
X5363D01*
Y5019D01*
D02*
G37*
G36*
X3469Y3417D02*
X3450Y3413D01*
X3393Y3374D01*
X3354Y3316D01*
X3350Y3298D01*
X3469D01*
Y3417D01*
D02*
G37*
G36*
X3687Y3198D02*
X3350D01*
X3354Y3180D01*
X3393Y3122D01*
X3448Y3085D01*
X3450Y3074D01*
X3445Y3023D01*
X3426Y3019D01*
X3368Y2980D01*
X3329Y2923D01*
X3326Y2904D01*
X3663D01*
X3659Y2923D01*
X3620Y2980D01*
X3565Y3018D01*
X3563Y3028D01*
X3568Y3079D01*
X3587Y3083D01*
X3645Y3122D01*
X3684Y3180D01*
X3687Y3198D01*
D02*
G37*
G36*
X3663Y2804D02*
X3544D01*
Y2686D01*
X3562Y2689D01*
X3620Y2728D01*
X3659Y2786D01*
X3663Y2804D01*
D02*
G37*
G36*
X3444D02*
X3326D01*
X3329Y2786D01*
X3368Y2728D01*
X3426Y2689D01*
X3444Y2686D01*
Y2804D01*
D02*
G37*
G36*
X6594Y5019D02*
X6246D01*
Y4774D01*
X6254Y4735D01*
X6276Y4702D01*
X6309Y4679D01*
X6348Y4672D01*
X6594D01*
Y5019D01*
D02*
G37*
G36*
Y5466D02*
X6348D01*
X6309Y5458D01*
X6276Y5436D01*
X6254Y5403D01*
X6246Y5364D01*
Y5119D01*
X6594D01*
Y5466D01*
D02*
G37*
G36*
X5363D02*
X5118D01*
X5079Y5458D01*
X5046Y5436D01*
X5024Y5403D01*
X5016Y5364D01*
Y5119D01*
X5363D01*
Y5466D01*
D02*
G37*
G36*
X7824Y5466D02*
X7579D01*
X7540Y5458D01*
X7507Y5436D01*
X7485Y5403D01*
X7477Y5364D01*
Y5119D01*
X7824D01*
Y5466D01*
D02*
G37*
G36*
X6939Y5466D02*
X6694D01*
Y5119D01*
X7041D01*
Y5364D01*
X7033Y5403D01*
X7011Y5436D01*
X6978Y5458D01*
X6939Y5466D01*
D02*
G37*
G36*
X5709D02*
X5463D01*
Y5119D01*
X5811D01*
Y5364D01*
X5803Y5403D01*
X5781Y5436D01*
X5748Y5458D01*
X5709Y5466D01*
D02*
G37*
G36*
X3150Y5509D02*
X3131Y5505D01*
X3073Y5467D01*
X3035Y5409D01*
X3024Y5353D01*
X3017Y5337D01*
X2970Y5290D01*
X2934Y5283D01*
X2876Y5244D01*
X2837Y5186D01*
X2833Y5168D01*
X3002D01*
Y5118D01*
X3052D01*
Y4950D01*
X3070Y4953D01*
X3128Y4992D01*
X3167Y5050D01*
X3178Y5105D01*
X3184Y5122D01*
X3232Y5168D01*
X3268Y5176D01*
X3326Y5214D01*
X3364Y5272D01*
X3368Y5290D01*
X3200D01*
Y5340D01*
X3150D01*
Y5509D01*
D02*
G37*
G36*
X8169Y5466D02*
X7924D01*
Y5119D01*
X8271D01*
Y5364D01*
X8263Y5403D01*
X8241Y5436D01*
X8208Y5458D01*
X8169Y5466D01*
D02*
G37*
G36*
X7041Y5019D02*
X6694D01*
Y4672D01*
X6939D01*
X6978Y4679D01*
X7011Y4702D01*
X7033Y4735D01*
X7041Y4774D01*
Y5019D01*
D02*
G37*
G36*
X2952Y5068D02*
X2833D01*
X2837Y5050D01*
X2876Y4992D01*
X2934Y4953D01*
X2952Y4950D01*
Y5068D01*
D02*
G37*
G36*
X8271Y5019D02*
X7924D01*
Y4672D01*
X8169D01*
X8208Y4679D01*
X8241Y4702D01*
X8263Y4735D01*
X8271Y4774D01*
Y5019D01*
D02*
G37*
G36*
X7824D02*
X7477D01*
Y4774D01*
X7485Y4735D01*
X7507Y4702D01*
X7540Y4679D01*
X7579Y4672D01*
X7824D01*
Y5019D01*
D02*
G37*
G36*
X2408Y2165D02*
X2289D01*
Y2046D01*
X2307Y2050D01*
X2365Y2088D01*
X2404Y2146D01*
X2408Y2165D01*
D02*
G37*
G36*
X2189D02*
X2071D01*
X2074Y2146D01*
X2113Y2088D01*
X2171Y2050D01*
X2189Y2046D01*
Y2165D01*
D02*
G37*
G36*
X2289Y2383D02*
Y2265D01*
X2408D01*
X2404Y2283D01*
X2365Y2341D01*
X2307Y2379D01*
X2289Y2383D01*
D02*
G37*
G36*
X2189D02*
X2171Y2379D01*
X2113Y2341D01*
X2074Y2283D01*
X2071Y2265D01*
X2189D01*
Y2383D01*
D02*
G37*
G36*
X7575Y10801D02*
X7456D01*
Y10683D01*
X7475Y10687D01*
X7533Y10725D01*
X7571Y10783D01*
X7575Y10801D01*
D02*
G37*
G36*
X2625Y9383D02*
Y9137D01*
X2871D01*
X2867Y9165D01*
X2837Y9238D01*
X2789Y9301D01*
X2726Y9349D01*
X2653Y9379D01*
X2625Y9383D01*
D02*
G37*
G36*
X2525D02*
X2496Y9379D01*
X2424Y9349D01*
X2361Y9301D01*
X2313Y9238D01*
X2283Y9165D01*
X2279Y9137D01*
X2525D01*
Y9383D01*
D02*
G37*
G36*
X6398Y13307D02*
X5689D01*
X5658Y13301D01*
X5632Y13283D01*
X5615Y13257D01*
X5609Y13226D01*
Y12661D01*
X5409Y12461D01*
X5343D01*
X5293Y12451D01*
X5250Y12423D01*
X4804Y11977D01*
X4776Y11935D01*
X4772Y11916D01*
X4601D01*
X4571Y11910D01*
X4545Y11892D01*
X4527Y11866D01*
X4521Y11836D01*
Y11245D01*
X4527Y11214D01*
X4545Y11188D01*
X4571Y11171D01*
X4601Y11165D01*
X5192D01*
X5223Y11171D01*
X5249Y11188D01*
X5266Y11214D01*
X5272Y11245D01*
Y11836D01*
X5266Y11866D01*
X5249Y11892D01*
X5223Y11910D01*
X5196Y11915D01*
X5181Y11938D01*
X5168Y11971D01*
X5397Y12200D01*
X5463D01*
X5513Y12210D01*
X5555Y12238D01*
X5833Y12516D01*
X6398D01*
X6428Y12522D01*
X6454Y12540D01*
X6472Y12566D01*
X6478Y12596D01*
Y13226D01*
X6472Y13257D01*
X6454Y13283D01*
X6428Y13301D01*
X6398Y13307D01*
D02*
G37*
G36*
X12349Y12598D02*
X12230D01*
Y12479D01*
X12248Y12483D01*
X12306Y12521D01*
X12345Y12579D01*
X12349Y12598D01*
D02*
G37*
G36*
X12130D02*
X12012D01*
X12015Y12579D01*
X12054Y12521D01*
X12112Y12483D01*
X12130Y12479D01*
Y12598D01*
D02*
G37*
G36*
X7456Y11291D02*
Y11172D01*
X7575D01*
X7571Y11190D01*
X7533Y11248D01*
X7475Y11287D01*
X7456Y11291D01*
D02*
G37*
G36*
X775Y9367D02*
X375D01*
X344Y9361D01*
X318Y9343D01*
X301Y9317D01*
X295Y9287D01*
Y8887D01*
X301Y8856D01*
X318Y8830D01*
X344Y8812D01*
X375Y8806D01*
X775D01*
X806Y8812D01*
X832Y8830D01*
X849Y8856D01*
X855Y8887D01*
Y9287D01*
X849Y9317D01*
X832Y9343D01*
X806Y9361D01*
X775Y9367D01*
D02*
G37*
G36*
X12425Y8633D02*
X12407Y8629D01*
X12349Y8591D01*
X12311Y8533D01*
X12307Y8515D01*
X12425D01*
Y8633D01*
D02*
G37*
G36*
Y8415D02*
X12307D01*
X12311Y8396D01*
X12349Y8338D01*
X12407Y8300D01*
X12425Y8296D01*
Y8415D01*
D02*
G37*
G36*
X10127Y8636D02*
X9819D01*
Y8391D01*
X9827Y8352D01*
X9849Y8319D01*
X9882Y8297D01*
X9921Y8289D01*
X10127D01*
Y8636D01*
D02*
G37*
G36*
X12794Y8633D02*
X12776Y8629D01*
X12718Y8591D01*
X12693Y8553D01*
X12692Y8553D01*
X12628D01*
X12627Y8553D01*
X12602Y8591D01*
X12544Y8629D01*
X12525Y8633D01*
Y8465D01*
Y8296D01*
X12544Y8300D01*
X12602Y8338D01*
X12627Y8376D01*
X12628Y8377D01*
X12692D01*
X12693Y8376D01*
X12718Y8338D01*
X12776Y8300D01*
X12794Y8296D01*
Y8465D01*
Y8633D01*
D02*
G37*
G36*
X1575Y9368D02*
X1502Y9358D01*
X1434Y9330D01*
X1376Y9285D01*
X1331Y9227D01*
X1303Y9159D01*
X1294Y9087D01*
X1303Y9014D01*
X1331Y8946D01*
X1376Y8888D01*
X1434Y8843D01*
X1502Y8815D01*
X1575Y8805D01*
X1648Y8815D01*
X1715Y8843D01*
X1774Y8888D01*
X1818Y8946D01*
X1846Y9014D01*
X1856Y9087D01*
X1846Y9159D01*
X1818Y9227D01*
X1774Y9285D01*
X1715Y9330D01*
X1648Y9358D01*
X1575Y9368D01*
D02*
G37*
G36*
X2871Y9037D02*
X2625D01*
Y8791D01*
X2653Y8794D01*
X2726Y8825D01*
X2789Y8873D01*
X2837Y8935D01*
X2867Y9008D01*
X2871Y9037D01*
D02*
G37*
G36*
X2525D02*
X2279D01*
X2283Y9008D01*
X2313Y8935D01*
X2361Y8873D01*
X2424Y8825D01*
X2496Y8794D01*
X2525Y8791D01*
Y9037D01*
D02*
G37*
G36*
X4847Y13316D02*
X4601D01*
X4562Y13308D01*
X4529Y13286D01*
X4507Y13253D01*
X4499Y13214D01*
Y12968D01*
X4847D01*
Y13316D01*
D02*
G37*
G36*
X12747Y12816D02*
Y12698D01*
X12865D01*
X12862Y12716D01*
X12823Y12774D01*
X12765Y12812D01*
X12747Y12816D01*
D02*
G37*
G36*
X12647D02*
X12629Y12812D01*
X12571Y12774D01*
X12532Y12716D01*
X12528Y12698D01*
X12647D01*
Y12816D01*
D02*
G37*
G36*
X5192Y13316D02*
X4947D01*
Y12968D01*
X5294D01*
Y13214D01*
X5286Y13253D01*
X5264Y13286D01*
X5231Y13308D01*
X5192Y13316D01*
D02*
G37*
G36*
X1083Y13863D02*
X1079Y13862D01*
X1075Y13863D01*
X940Y13849D01*
X932Y13847D01*
X924Y13846D01*
X794Y13807D01*
X787Y13803D01*
X780Y13801D01*
X660Y13737D01*
X654Y13732D01*
X647Y13728D01*
X542Y13642D01*
X537Y13636D01*
X531Y13631D01*
X445Y13526D01*
X441Y13519D01*
X436Y13513D01*
X372Y13393D01*
X370Y13386D01*
X366Y13379D01*
X327Y13249D01*
X326Y13241D01*
X324Y13233D01*
X310Y13098D01*
X311Y13091D01*
X310Y13083D01*
X324Y12948D01*
X326Y12940D01*
X327Y12932D01*
X366Y12802D01*
X370Y12795D01*
X372Y12788D01*
X436Y12668D01*
X441Y12662D01*
X445Y12655D01*
X531Y12550D01*
X537Y12545D01*
X542Y12539D01*
X647Y12453D01*
X654Y12449D01*
X660Y12444D01*
X780Y12380D01*
X787Y12378D01*
X794Y12374D01*
X924Y12335D01*
X932Y12334D01*
X940Y12332D01*
X1075Y12318D01*
X1079Y12319D01*
X1083Y12318D01*
X1087Y12319D01*
X1091Y12318D01*
X1226Y12332D01*
X1233Y12334D01*
X1241Y12335D01*
X1371Y12374D01*
X1378Y12378D01*
X1385Y12380D01*
X1505Y12444D01*
X1511Y12449D01*
X1518Y12453D01*
X1623Y12539D01*
X1628Y12545D01*
X1634Y12550D01*
X1720Y12655D01*
X1724Y12662D01*
X1729Y12668D01*
X1793Y12788D01*
X1795Y12795D01*
X1799Y12802D01*
X1839Y12932D01*
X1839Y12940D01*
X1842Y12948D01*
X1855Y13083D01*
X1854Y13091D01*
X1855Y13098D01*
X1842Y13233D01*
X1839Y13241D01*
X1839Y13249D01*
X1799Y13379D01*
X1795Y13386D01*
X1793Y13393D01*
X1729Y13513D01*
X1724Y13519D01*
X1720Y13526D01*
X1634Y13631D01*
X1628Y13636D01*
X1623Y13642D01*
X1518Y13728D01*
X1511Y13732D01*
X1505Y13737D01*
X1385Y13801D01*
X1378Y13803D01*
X1371Y13807D01*
X1241Y13846D01*
X1233Y13847D01*
X1226Y13849D01*
X1091Y13863D01*
X1087Y13862D01*
X1083Y13863D01*
D02*
G37*
G36*
X8514Y13340D02*
X8269D01*
Y12993D01*
X8616D01*
Y13238D01*
X8608Y13277D01*
X8586Y13310D01*
X8553Y13332D01*
X8514Y13340D01*
D02*
G37*
G36*
X8169D02*
X7923D01*
X7884Y13332D01*
X7851Y13310D01*
X7829Y13277D01*
X7821Y13238D01*
Y12993D01*
X8169D01*
Y13340D01*
D02*
G37*
G36*
X12230Y12816D02*
Y12698D01*
X12349D01*
X12345Y12716D01*
X12306Y12774D01*
X12248Y12812D01*
X12230Y12816D01*
D02*
G37*
G36*
X4847Y12868D02*
X4499D01*
Y12623D01*
X4507Y12584D01*
X4529Y12551D01*
X4562Y12529D01*
X4601Y12521D01*
X4847D01*
Y12868D01*
D02*
G37*
G36*
X12865Y12598D02*
X12747D01*
Y12479D01*
X12765Y12483D01*
X12823Y12521D01*
X12862Y12579D01*
X12865Y12598D01*
D02*
G37*
G36*
X12647D02*
X12528D01*
X12532Y12579D01*
X12571Y12521D01*
X12629Y12483D01*
X12647Y12479D01*
Y12598D01*
D02*
G37*
G36*
X5294Y12868D02*
X4947D01*
Y12521D01*
X5192D01*
X5231Y12529D01*
X5264Y12551D01*
X5286Y12584D01*
X5294Y12623D01*
Y12868D01*
D02*
G37*
G36*
X12130Y12816D02*
X12112Y12812D01*
X12054Y12774D01*
X12015Y12716D01*
X12012Y12698D01*
X12130D01*
Y12816D01*
D02*
G37*
G36*
X8616Y12893D02*
X8269D01*
Y12546D01*
X8514D01*
X8553Y12553D01*
X8586Y12576D01*
X8608Y12609D01*
X8616Y12648D01*
Y12893D01*
D02*
G37*
G36*
X8169D02*
X7821D01*
Y12648D01*
X7829Y12609D01*
X7851Y12576D01*
X7884Y12553D01*
X7923Y12546D01*
X8169D01*
Y12893D01*
D02*
G37*
G36*
X10298Y8227D02*
X10294D01*
X10264Y8221D01*
X10234Y8227D01*
X10229D01*
Y8036D01*
Y7846D01*
X10234D01*
X10264Y7852D01*
X10294Y7846D01*
X10298D01*
Y8036D01*
Y8227D01*
D02*
G37*
G36*
X1575Y6368D02*
X1502Y6358D01*
X1434Y6330D01*
X1376Y6285D01*
X1331Y6227D01*
X1303Y6159D01*
X1294Y6087D01*
X1303Y6014D01*
X1331Y5946D01*
X1376Y5888D01*
X1434Y5843D01*
X1502Y5815D01*
X1575Y5805D01*
X1648Y5815D01*
X1715Y5843D01*
X1774Y5888D01*
X1818Y5946D01*
X1846Y6014D01*
X1856Y6087D01*
X1846Y6159D01*
X1818Y6227D01*
X1774Y6285D01*
X1715Y6330D01*
X1648Y6358D01*
X1575Y6368D01*
D02*
G37*
G36*
X775Y6367D02*
X375D01*
X344Y6361D01*
X318Y6343D01*
X301Y6317D01*
X295Y6287D01*
Y5887D01*
X301Y5856D01*
X318Y5830D01*
X344Y5812D01*
X375Y5806D01*
X775D01*
X806Y5812D01*
X832Y5830D01*
X849Y5856D01*
X855Y5887D01*
Y6287D01*
X849Y6317D01*
X832Y6343D01*
X806Y6361D01*
X775Y6367D01*
D02*
G37*
G36*
X8228Y7669D02*
X7520D01*
X7489Y7663D01*
X7463Y7645D01*
X7446Y7619D01*
X7439Y7589D01*
Y6959D01*
X7446Y6928D01*
X7463Y6902D01*
X7489Y6884D01*
X7520Y6878D01*
X7553D01*
X7558Y6818D01*
X7548Y6816D01*
X7522Y6799D01*
X7505Y6773D01*
X7498Y6742D01*
Y6152D01*
X7505Y6121D01*
X7522Y6095D01*
X7548Y6077D01*
X7579Y6071D01*
X8169D01*
X8200Y6077D01*
X8226Y6095D01*
X8243Y6121D01*
X8250Y6152D01*
Y6742D01*
X8243Y6773D01*
X8226Y6799D01*
X8200Y6816D01*
X8190Y6818D01*
X8195Y6878D01*
X8228D01*
X8259Y6884D01*
X8285Y6902D01*
X8303Y6928D01*
X8309Y6959D01*
Y7589D01*
X8303Y7619D01*
X8285Y7645D01*
X8259Y7663D01*
X8228Y7669D01*
D02*
G37*
G36*
X6998Y7659D02*
X6289D01*
X6259Y7653D01*
X6233Y7636D01*
X6215Y7609D01*
X6209Y7579D01*
Y6949D01*
X6215Y6918D01*
X6233Y6892D01*
X6259Y6875D01*
X6289Y6869D01*
X6296D01*
X6296Y6868D01*
X6306Y6809D01*
X6292Y6799D01*
X6274Y6773D01*
X6268Y6742D01*
Y6152D01*
X6274Y6121D01*
X6292Y6095D01*
X6318Y6077D01*
X6348Y6071D01*
X6939D01*
X6970Y6077D01*
X6996Y6095D01*
X7013Y6121D01*
X7019Y6152D01*
Y6742D01*
X7013Y6773D01*
X6996Y6799D01*
X6981Y6809D01*
X6991Y6868D01*
X6991Y6869D01*
X6998D01*
X7029Y6875D01*
X7055Y6892D01*
X7072Y6918D01*
X7078Y6949D01*
Y7579D01*
X7072Y7609D01*
X7055Y7636D01*
X7029Y7653D01*
X6998Y7659D01*
D02*
G37*
G36*
X5768Y7669D02*
X5059D01*
X5028Y7663D01*
X5002Y7645D01*
X4985Y7619D01*
X4979Y7589D01*
Y6959D01*
X4985Y6928D01*
X5002Y6902D01*
X5028Y6884D01*
X5059Y6878D01*
X5092D01*
X5098Y6818D01*
X5087Y6816D01*
X5061Y6799D01*
X5044Y6773D01*
X5038Y6742D01*
Y6152D01*
X5044Y6121D01*
X5061Y6095D01*
X5087Y6077D01*
X5118Y6071D01*
X5709D01*
X5739Y6077D01*
X5765Y6095D01*
X5783Y6121D01*
X5789Y6152D01*
Y6742D01*
X5783Y6773D01*
X5765Y6799D01*
X5739Y6816D01*
X5729Y6818D01*
X5735Y6878D01*
X5768D01*
X5798Y6884D01*
X5824Y6902D01*
X5842Y6928D01*
X5848Y6959D01*
Y7589D01*
X5842Y7619D01*
X5824Y7645D01*
X5798Y7663D01*
X5768Y7669D01*
D02*
G37*
G36*
X8072Y5877D02*
Y5759D01*
X8190D01*
X8187Y5777D01*
X8148Y5835D01*
X8090Y5874D01*
X8072Y5877D01*
D02*
G37*
G36*
X7972Y5659D02*
X7853D01*
X7857Y5640D01*
X7895Y5582D01*
X7953Y5544D01*
X7972Y5540D01*
Y5659D01*
D02*
G37*
G36*
X7403Y5634D02*
X7284D01*
Y5516D01*
X7303Y5519D01*
X7360Y5558D01*
X7399Y5616D01*
X7403Y5634D01*
D02*
G37*
G36*
X7184D02*
X7066D01*
X7069Y5616D01*
X7108Y5558D01*
X7166Y5519D01*
X7184Y5516D01*
Y5634D01*
D02*
G37*
G36*
X8190Y5659D02*
X8072D01*
Y5540D01*
X8090Y5544D01*
X8148Y5582D01*
X8187Y5640D01*
X8190Y5659D01*
D02*
G37*
G36*
X7972Y5877D02*
X7953Y5874D01*
X7895Y5835D01*
X7857Y5777D01*
X7853Y5759D01*
X7972D01*
Y5877D01*
D02*
G37*
G36*
X7284Y5853D02*
Y5734D01*
X7403D01*
X7399Y5752D01*
X7360Y5810D01*
X7303Y5849D01*
X7284Y5853D01*
D02*
G37*
G36*
X7184D02*
X7166Y5849D01*
X7108Y5810D01*
X7069Y5752D01*
X7066Y5734D01*
X7184D01*
Y5853D01*
D02*
G37*
G36*
X775Y8367D02*
X375D01*
X344Y8361D01*
X318Y8343D01*
X301Y8317D01*
X295Y8287D01*
Y7887D01*
X301Y7856D01*
X318Y7830D01*
X344Y7812D01*
X375Y7806D01*
X775D01*
X806Y7812D01*
X832Y7830D01*
X849Y7856D01*
X855Y7887D01*
Y8287D01*
X849Y8317D01*
X832Y8343D01*
X806Y8361D01*
X775Y8367D01*
D02*
G37*
G36*
X1575Y8368D02*
X1502Y8358D01*
X1434Y8330D01*
X1376Y8285D01*
X1331Y8227D01*
X1303Y8159D01*
X1294Y8087D01*
X1303Y8014D01*
X1331Y7946D01*
X1376Y7888D01*
X1434Y7843D01*
X1502Y7815D01*
X1575Y7805D01*
X1648Y7815D01*
X1715Y7843D01*
X1774Y7888D01*
X1818Y7946D01*
X1846Y8014D01*
X1856Y8087D01*
X1846Y8159D01*
X1818Y8227D01*
X1774Y8285D01*
X1715Y8330D01*
X1648Y8358D01*
X1575Y8368D01*
D02*
G37*
G36*
X2871Y8037D02*
X2625D01*
Y7791D01*
X2653Y7794D01*
X2726Y7825D01*
X2789Y7873D01*
X2837Y7935D01*
X2867Y8008D01*
X2871Y8037D01*
D02*
G37*
G36*
X6545Y8989D02*
X6495Y8979D01*
X6453Y8951D01*
X6425Y8908D01*
X6424Y8904D01*
X6400Y8869D01*
X6389Y8809D01*
X6389Y8808D01*
X6351Y8761D01*
X6289D01*
X6259Y8755D01*
X6233Y8738D01*
X6215Y8712D01*
X6209Y8681D01*
Y8051D01*
X6215Y8020D01*
X6233Y7994D01*
X6259Y7977D01*
X6289Y7971D01*
X6998D01*
X7029Y7977D01*
X7055Y7994D01*
X7072Y8020D01*
X7078Y8051D01*
Y8268D01*
X7088Y8276D01*
X7138Y8295D01*
X7174Y8271D01*
X7234Y8259D01*
X7294Y8271D01*
X7316Y8285D01*
X7439D01*
Y8061D01*
X7446Y8030D01*
X7463Y8004D01*
X7489Y7987D01*
X7520Y7981D01*
X8228D01*
X8259Y7987D01*
X8285Y8004D01*
X8303Y8030D01*
X8309Y8061D01*
Y8691D01*
X8303Y8722D01*
X8285Y8748D01*
X8259Y8765D01*
X8228Y8771D01*
X7520D01*
X7489Y8765D01*
X7463Y8748D01*
X7446Y8722D01*
X7439Y8691D01*
Y8546D01*
X7316D01*
X7294Y8560D01*
X7234Y8572D01*
X7174Y8560D01*
X7138Y8536D01*
X7088Y8555D01*
X7078Y8563D01*
Y8681D01*
X7072Y8712D01*
X7055Y8738D01*
X7029Y8755D01*
X6998Y8761D01*
X6740D01*
X6702Y8808D01*
X6702Y8809D01*
X6690Y8869D01*
X6667Y8904D01*
X6666Y8908D01*
X6638Y8951D01*
X6595Y8979D01*
X6545Y8989D01*
D02*
G37*
G36*
X10468Y8227D02*
X10463D01*
X10433Y8221D01*
X10403Y8227D01*
X10398D01*
Y8036D01*
Y7846D01*
X10403D01*
X10433Y7852D01*
X10463Y7846D01*
X10468D01*
Y8036D01*
Y8227D01*
D02*
G37*
G36*
X2625Y8383D02*
Y8137D01*
X2871D01*
X2867Y8165D01*
X2837Y8238D01*
X2789Y8301D01*
X2726Y8349D01*
X2653Y8379D01*
X2625Y8383D01*
D02*
G37*
G36*
X2525D02*
X2496Y8379D01*
X2424Y8349D01*
X2361Y8301D01*
X2313Y8238D01*
X2283Y8165D01*
X2279Y8137D01*
X2525D01*
Y8383D01*
D02*
G37*
G36*
Y8037D02*
X2279D01*
X2283Y8008D01*
X2313Y7935D01*
X2361Y7873D01*
X2424Y7825D01*
X2496Y7794D01*
X2525Y7791D01*
Y8037D01*
D02*
G37*
G36*
X2871Y7037D02*
X2625D01*
Y6791D01*
X2653Y6794D01*
X2726Y6825D01*
X2789Y6873D01*
X2837Y6935D01*
X2867Y7008D01*
X2871Y7037D01*
D02*
G37*
G36*
X2525D02*
X2279D01*
X2283Y7008D01*
X2313Y6935D01*
X2361Y6873D01*
X2424Y6825D01*
X2496Y6794D01*
X2525Y6791D01*
Y7037D01*
D02*
G37*
G36*
Y6383D02*
X2496Y6379D01*
X2424Y6349D01*
X2361Y6301D01*
X2313Y6238D01*
X2283Y6165D01*
X2279Y6137D01*
X2525D01*
Y6383D01*
D02*
G37*
G36*
X1575Y7368D02*
X1502Y7358D01*
X1434Y7330D01*
X1376Y7285D01*
X1331Y7227D01*
X1303Y7159D01*
X1294Y7087D01*
X1303Y7014D01*
X1331Y6946D01*
X1376Y6888D01*
X1434Y6843D01*
X1502Y6815D01*
X1575Y6805D01*
X1648Y6815D01*
X1715Y6843D01*
X1774Y6888D01*
X1818Y6946D01*
X1846Y7014D01*
X1856Y7087D01*
X1846Y7159D01*
X1818Y7227D01*
X1774Y7285D01*
X1715Y7330D01*
X1648Y7358D01*
X1575Y7368D01*
D02*
G37*
G36*
X2625Y7383D02*
Y7137D01*
X2871D01*
X2867Y7165D01*
X2837Y7238D01*
X2789Y7301D01*
X2726Y7349D01*
X2653Y7379D01*
X2625Y7383D01*
D02*
G37*
G36*
X2525D02*
X2496Y7379D01*
X2424Y7349D01*
X2361Y7301D01*
X2313Y7238D01*
X2283Y7165D01*
X2279Y7137D01*
X2525D01*
Y7383D01*
D02*
G37*
G36*
X775Y7367D02*
X375D01*
X344Y7361D01*
X318Y7343D01*
X301Y7317D01*
X295Y7287D01*
Y6887D01*
X301Y6856D01*
X318Y6830D01*
X344Y6812D01*
X375Y6806D01*
X775D01*
X806Y6812D01*
X832Y6830D01*
X849Y6856D01*
X855Y6887D01*
Y7287D01*
X849Y7317D01*
X832Y7343D01*
X806Y7361D01*
X775Y7367D01*
D02*
G37*
G36*
X12127Y5388D02*
X12009D01*
Y5270D01*
X12027Y5273D01*
X12085Y5312D01*
X12124Y5370D01*
X12127Y5388D01*
D02*
G37*
G36*
Y5683D02*
X11790D01*
X11794Y5665D01*
X11832Y5607D01*
Y5564D01*
X11794Y5506D01*
X11790Y5488D01*
X12127D01*
X12124Y5506D01*
X12085Y5564D01*
Y5607D01*
X12124Y5665D01*
X12127Y5683D01*
D02*
G37*
G36*
X11519Y5260D02*
X11172D01*
Y4952D01*
X11417D01*
X11456Y4960D01*
X11490Y4982D01*
X11512Y5015D01*
X11519Y5054D01*
Y5260D01*
D02*
G37*
G36*
X11909Y5388D02*
X11790D01*
X11794Y5370D01*
X11832Y5312D01*
X11890Y5273D01*
X11909Y5270D01*
Y5388D01*
D02*
G37*
G36*
X12009Y5902D02*
Y5783D01*
X12127D01*
X12124Y5802D01*
X12085Y5859D01*
X12027Y5898D01*
X12009Y5902D01*
D02*
G37*
G36*
X11909D02*
X11890Y5898D01*
X11832Y5859D01*
X11794Y5802D01*
X11790Y5783D01*
X11909D01*
Y5902D01*
D02*
G37*
G36*
X12176Y2435D02*
X12058D01*
Y2317D01*
X12076Y2320D01*
X12134Y2359D01*
X12173Y2417D01*
X12176Y2435D01*
D02*
G37*
G36*
X11958D02*
X11839D01*
X11843Y2417D01*
X11882Y2359D01*
X11940Y2320D01*
X11958Y2317D01*
Y2435D01*
D02*
G37*
G36*
X1891Y934D02*
X1772D01*
Y816D01*
X1791Y819D01*
X1849Y858D01*
X1887Y916D01*
X1891Y934D01*
D02*
G37*
G36*
X1672D02*
X1554D01*
X1558Y916D01*
X1596Y858D01*
X1654Y819D01*
X1672Y816D01*
Y934D01*
D02*
G37*
G36*
X2334Y934D02*
X2215D01*
Y816D01*
X2234Y819D01*
X2292Y858D01*
X2330Y916D01*
X2334Y934D01*
D02*
G37*
G36*
X11933Y1054D02*
X11915Y1051D01*
X11857Y1012D01*
X11818Y954D01*
X11815Y936D01*
X11933D01*
Y1054D01*
D02*
G37*
G36*
X2115Y1153D02*
X2097Y1149D01*
X2039Y1110D01*
X2001Y1053D01*
X1997Y1034D01*
X2115D01*
Y1153D01*
D02*
G37*
G36*
X641Y1278D02*
Y936D01*
X983D01*
X976Y989D01*
X936Y1085D01*
X872Y1168D01*
X790Y1231D01*
X694Y1271D01*
X641Y1278D01*
D02*
G37*
G36*
X12033Y1054D02*
Y936D01*
X12152D01*
X12148Y954D01*
X12109Y1012D01*
X12052Y1051D01*
X12033Y1054D01*
D02*
G37*
G36*
X2115Y934D02*
X1997D01*
X2001Y916D01*
X2039Y858D01*
X2097Y819D01*
X2115Y816D01*
Y934D01*
D02*
G37*
G36*
X8037Y713D02*
X7791D01*
X7794Y684D01*
X7825Y611D01*
X7873Y549D01*
X7935Y501D01*
X8008Y471D01*
X8037Y467D01*
Y713D01*
D02*
G37*
G36*
X12152Y516D02*
X12033D01*
Y397D01*
X12052Y401D01*
X12109Y440D01*
X12148Y498D01*
X12152Y516D01*
D02*
G37*
G36*
X11933D02*
X11815D01*
X11818Y498D01*
X11857Y440D01*
X11915Y401D01*
X11933Y397D01*
Y516D01*
D02*
G37*
G36*
X8383Y713D02*
X8137D01*
Y467D01*
X8165Y471D01*
X8238Y501D01*
X8301Y549D01*
X8349Y611D01*
X8379Y684D01*
X8383Y713D01*
D02*
G37*
G36*
X12152Y836D02*
X11815D01*
X11818Y818D01*
X11855Y763D01*
X11863Y746D01*
Y706D01*
X11855Y689D01*
X11818Y634D01*
X11815Y616D01*
X12152D01*
X12148Y634D01*
X12112Y689D01*
X12104Y706D01*
Y746D01*
X12112Y763D01*
X12148Y818D01*
X12152Y836D01*
D02*
G37*
G36*
X983D02*
X641D01*
Y494D01*
X694Y501D01*
X790Y541D01*
X872Y604D01*
X936Y686D01*
X976Y783D01*
X983Y836D01*
D02*
G37*
G36*
X6287Y1043D02*
X5887D01*
X5856Y1037D01*
X5830Y1020D01*
X5812Y994D01*
X5806Y963D01*
Y563D01*
X5812Y532D01*
X5830Y506D01*
X5856Y489D01*
X5887Y483D01*
X6287D01*
X6317Y489D01*
X6343Y506D01*
X6361Y532D01*
X6367Y563D01*
Y963D01*
X6361Y994D01*
X6343Y1020D01*
X6317Y1037D01*
X6287Y1043D01*
D02*
G37*
G36*
X2215Y1153D02*
Y1034D01*
X2334D01*
X2330Y1053D01*
X2292Y1110D01*
X2234Y1149D01*
X2215Y1153D01*
D02*
G37*
G36*
X11958Y2235D02*
X11940Y2232D01*
X11882Y2193D01*
X11843Y2135D01*
X11839Y2117D01*
X11958D01*
Y2235D01*
D02*
G37*
G36*
X12058D02*
Y2117D01*
X12176D01*
X12173Y2135D01*
X12134Y2193D01*
X12076Y2232D01*
X12058Y2235D01*
D02*
G37*
G36*
X1772Y1153D02*
Y1034D01*
X1891D01*
X1887Y1053D01*
X1849Y1110D01*
X1791Y1149D01*
X1772Y1153D01*
D02*
G37*
G36*
X1672D02*
X1654Y1149D01*
X1596Y1110D01*
X1558Y1053D01*
X1554Y1034D01*
X1672D01*
Y1153D01*
D02*
G37*
G36*
X12176Y2017D02*
X12058D01*
Y1898D01*
X12076Y1902D01*
X12134Y1941D01*
X12173Y1999D01*
X12176Y2017D01*
D02*
G37*
G36*
X11958D02*
X11839D01*
X11843Y1999D01*
X11882Y1941D01*
X11940Y1902D01*
X11958Y1898D01*
Y2017D01*
D02*
G37*
G36*
X13091Y1855D02*
X13087Y1854D01*
X13083Y1855D01*
X12948Y1842D01*
X12940Y1839D01*
X12932Y1839D01*
X12802Y1799D01*
X12795Y1795D01*
X12788Y1793D01*
X12668Y1729D01*
X12662Y1724D01*
X12655Y1720D01*
X12550Y1634D01*
X12545Y1628D01*
X12539Y1623D01*
X12453Y1518D01*
X12449Y1511D01*
X12444Y1505D01*
X12380Y1385D01*
X12378Y1378D01*
X12374Y1371D01*
X12335Y1241D01*
X12334Y1233D01*
X12332Y1226D01*
X12318Y1091D01*
X12319Y1083D01*
X12318Y1075D01*
X12332Y940D01*
X12334Y932D01*
X12335Y924D01*
X12374Y794D01*
X12378Y787D01*
X12380Y780D01*
X12444Y660D01*
X12449Y654D01*
X12453Y647D01*
X12539Y542D01*
X12545Y537D01*
X12550Y531D01*
X12655Y445D01*
X12662Y441D01*
X12668Y436D01*
X12788Y372D01*
X12795Y370D01*
X12802Y366D01*
X12932Y327D01*
X12940Y326D01*
X12948Y324D01*
X13083Y310D01*
X13087Y311D01*
X13091Y310D01*
X13094Y311D01*
X13098Y310D01*
X13233Y324D01*
X13241Y326D01*
X13249Y327D01*
X13379Y366D01*
X13386Y370D01*
X13393Y372D01*
X13513Y436D01*
X13519Y441D01*
X13526Y445D01*
X13631Y531D01*
X13636Y537D01*
X13642Y542D01*
X13728Y647D01*
X13732Y654D01*
X13737Y660D01*
X13801Y780D01*
X13803Y787D01*
X13807Y794D01*
X13846Y924D01*
X13847Y932D01*
X13849Y940D01*
X13863Y1075D01*
X13862Y1083D01*
X13863Y1091D01*
X13849Y1226D01*
X13847Y1233D01*
X13846Y1241D01*
X13807Y1371D01*
X13803Y1378D01*
X13801Y1385D01*
X13737Y1505D01*
X13732Y1511D01*
X13728Y1518D01*
X13642Y1623D01*
X13636Y1628D01*
X13631Y1634D01*
X13526Y1720D01*
X13519Y1724D01*
X13513Y1729D01*
X13393Y1793D01*
X13386Y1795D01*
X13379Y1799D01*
X13249Y1839D01*
X13241Y1839D01*
X13233Y1842D01*
X13098Y1855D01*
X13094Y1854D01*
X13091Y1855D01*
D02*
G37*
G36*
X10442Y3668D02*
X10311D01*
Y3612D01*
X10319Y3573D01*
X10341Y3540D01*
X10374Y3518D01*
X10413Y3510D01*
X10442D01*
Y3668D01*
D02*
G37*
G36*
X10778Y2162D02*
Y2043D01*
X10897D01*
X10893Y2061D01*
X10855Y2119D01*
X10797Y2158D01*
X10778Y2162D01*
D02*
G37*
G36*
X10678D02*
X10660Y2158D01*
X10602Y2119D01*
X10563Y2061D01*
X10560Y2043D01*
X10678D01*
Y2162D01*
D02*
G37*
G36*
Y1943D02*
X10560D01*
X10563Y1925D01*
X10602Y1867D01*
X10660Y1828D01*
X10678Y1825D01*
Y1943D01*
D02*
G37*
G36*
X10897D02*
X10778D01*
Y1825D01*
X10797Y1828D01*
X10855Y1867D01*
X10893Y1925D01*
X10897Y1943D01*
D02*
G37*
%LPD*%
D10*
X10335Y2805D02*
D03*
X11083D02*
D03*
X10187Y9473D02*
D03*
X10935D02*
D03*
X10925Y8686D02*
D03*
X10177D02*
D03*
D11*
X11860Y7731D02*
D03*
Y6983D02*
D03*
X12648Y7731D02*
D03*
Y6983D02*
D03*
X11122Y6058D02*
D03*
Y5310D02*
D03*
D12*
X6043Y12911D02*
D03*
Y11809D02*
D03*
X7160Y12911D02*
D03*
Y11809D02*
D03*
X12500Y4104D02*
D03*
Y3002D02*
D03*
X10039Y1757D02*
D03*
Y655D02*
D03*
X6644Y7264D02*
D03*
Y8366D02*
D03*
X5413Y7274D02*
D03*
Y8376D02*
D03*
X7874Y7274D02*
D03*
Y8376D02*
D03*
D13*
X4897Y11540D02*
D03*
Y12918D02*
D03*
X8219Y11565D02*
D03*
Y12943D02*
D03*
X6644Y6447D02*
D03*
Y5069D02*
D03*
X7874Y6447D02*
D03*
Y5069D02*
D03*
X5413Y5069D02*
D03*
Y6447D02*
D03*
X13632Y3856D02*
D03*
X591Y3886D02*
D03*
D14*
X11091Y4203D02*
D03*
X10366D02*
D03*
Y3966D02*
D03*
X11091D02*
D03*
D15*
X10492Y4451D02*
D03*
X10965D02*
D03*
X10492Y3719D02*
D03*
X10965D02*
D03*
D16*
X10728Y4447D02*
D03*
Y3722D02*
D03*
D17*
X9951Y7540D02*
D03*
Y7710D02*
D03*
Y7879D02*
D03*
Y8048D02*
D03*
Y7371D02*
D03*
Y7202D02*
D03*
Y7032D02*
D03*
Y6863D02*
D03*
X10915Y7540D02*
D03*
Y7710D02*
D03*
Y7879D02*
D03*
Y8048D02*
D03*
Y7371D02*
D03*
Y7202D02*
D03*
Y7032D02*
D03*
Y6863D02*
D03*
D18*
X10518Y8036D02*
D03*
X10687D02*
D03*
X10348D02*
D03*
X10179D02*
D03*
X10518Y6875D02*
D03*
X10687D02*
D03*
X10348D02*
D03*
X10179D02*
D03*
D19*
X1673Y3765D02*
X2436Y3002D01*
X11860Y7731D02*
X11934Y7805D01*
Y10064D02*
X12131Y10261D01*
X12254D01*
X11934Y7805D02*
Y8292D01*
X12623Y4995D02*
X12623Y5020D01*
X8957Y1452D02*
X9227D01*
X591Y3886D02*
X1649Y2828D01*
X10335Y10261D02*
X10605D01*
X9732Y9953D02*
X10039Y10261D01*
X10335D01*
X9732Y9781D02*
Y9953D01*
X9203Y9252D02*
X9732Y9781D01*
X5266Y9252D02*
X9203D01*
X5266Y8524D02*
Y9252D01*
Y8524D02*
X5413Y8376D01*
X4158Y9252D02*
X5266D01*
X3814Y8907D02*
X4158Y9252D01*
X591Y3886D02*
X1007D01*
X3814Y8095D02*
Y8907D01*
X10039Y655D02*
X10669D01*
X11442Y1427D01*
X12623Y2411D02*
Y2879D01*
X12500Y3002D02*
X12623Y2879D01*
X12500Y3002D02*
X12778D01*
X13632Y3856D01*
X1007Y3886D02*
X3174Y6053D01*
X5955Y1452D02*
X8957D01*
X1649Y3765D02*
X1673D01*
X2436Y3002D02*
Y3027D01*
Y3002D02*
X2657Y2781D01*
X12598Y5044D02*
X12623Y5020D01*
X12598Y6152D02*
Y6422D01*
Y5044D02*
Y6152D01*
X12623Y4724D02*
Y4995D01*
X11934Y8292D02*
Y8588D01*
Y10064D01*
X12254Y10261D02*
X12549D01*
X11860Y6983D02*
X12648D01*
X1649Y1993D02*
Y2828D01*
Y1993D02*
X2190Y1452D01*
X5955D01*
X3174Y6053D02*
X3814Y6693D01*
Y8095D01*
D20*
X6660Y1107D02*
X9424D01*
X6608Y1055D02*
X6660Y1107D01*
X9424D02*
X9523Y1206D01*
X10965Y3719D02*
Y3722D01*
Y2805D02*
Y3719D01*
X6644Y8366D02*
Y8612D01*
X6545Y8711D02*
X6644Y8612D01*
X7835Y8415D02*
X7874Y8376D01*
X5413Y6447D02*
Y7274D01*
X6644Y6447D02*
Y7264D01*
X7874Y6447D02*
Y7274D01*
X7874Y6447D02*
X7874Y6447D01*
X12283Y4104D02*
X12500D01*
X11319Y4203D02*
Y4626D01*
X11091Y4203D02*
X11319D01*
X10915Y6693D02*
X11024Y6585D01*
X10915Y6693D02*
Y6863D01*
X10728Y4447D02*
Y4649D01*
X10630Y7185D02*
X10630D01*
X10581Y7234D02*
X10630Y7185D01*
X10348Y6875D02*
Y7027D01*
X10408Y7087D01*
X10915Y7540D02*
X10921Y7535D01*
X8711Y7579D02*
X8734Y7555D01*
X9947Y7714D02*
X9951Y7710D01*
X9609Y7714D02*
X9947D01*
X9572Y7751D02*
X9609Y7714D01*
X9704Y7879D02*
X9951D01*
X9816Y8048D02*
X9951D01*
X9695Y8169D02*
X9816Y8048D01*
X10093Y3966D02*
X10366D01*
X6545Y8711D02*
Y8809D01*
Y8858D01*
X9892Y2411D02*
X10138Y2165D01*
X9523Y1206D02*
X10655D01*
X8734Y7555D02*
X9669D01*
X9684Y7540D01*
X9951D01*
X9561Y7371D02*
X9951D01*
X9598Y7985D02*
X9704Y7879D01*
X5463Y12331D02*
X6043Y12911D01*
X6127Y11220D02*
Y11725D01*
X6043Y11809D02*
X6127Y11725D01*
X7037Y11686D02*
X7160Y11809D01*
X7062Y11147D02*
Y11661D01*
X7160Y12820D02*
Y12911D01*
X4897Y11885D02*
X5343Y12331D01*
X5463D01*
X4897Y11540D02*
Y11885D01*
X7160Y12820D02*
X8219Y11762D01*
Y11565D02*
Y11762D01*
X1476Y10901D02*
X6841D01*
X7357Y10384D01*
X6767Y10581D02*
X7308Y10039D01*
X1476Y10581D02*
X6767D01*
X1476Y10261D02*
X6742D01*
X6939Y10064D01*
X1476Y9966D02*
X6644D01*
X7234Y8415D02*
X7835D01*
X9154Y9670D02*
X9400Y9916D01*
X4675Y9670D02*
X9154D01*
X4626Y9621D02*
X4675Y9670D01*
X7037Y11686D02*
X7062Y11661D01*
X10687Y6875D02*
Y7128D01*
X10630Y7185D02*
X10687Y7128D01*
X10518Y6608D02*
Y6801D01*
Y6608D02*
X10915Y6211D01*
X10408Y7087D02*
Y7160D01*
X10581Y7234D02*
Y7456D01*
X11491Y8219D02*
Y9252D01*
X11270Y9473D02*
X11491Y9252D01*
X10935Y9473D02*
X11270D01*
X13115Y7340D02*
X13632Y7856D01*
X12229Y7480D02*
Y7657D01*
X12098Y7348D02*
X12229Y7480D01*
X11520Y7348D02*
X12098D01*
X11456Y7284D02*
X11520Y7348D01*
X11024Y6102D02*
X11078D01*
X11122Y6058D01*
X11024Y6102D02*
Y6585D01*
X10915Y7371D02*
X11281D01*
X11319Y7333D01*
X11644Y7657D01*
X10173Y6608D02*
X10518D01*
X13115Y3888D02*
Y7340D01*
X11836Y3519D02*
X12746D01*
X13115Y3888D01*
X11319Y4203D02*
X12185D01*
X12283Y4104D01*
X11073Y2288D02*
Y2795D01*
X11083Y2805D01*
X10395Y4982D02*
X10728Y4649D01*
X10310Y4961D02*
X10374D01*
X9892Y4542D02*
X10310Y4961D01*
X9892Y2411D02*
Y4542D01*
X10108Y4203D02*
X10366D01*
X10359Y4749D02*
X10492Y4616D01*
Y4451D02*
Y4616D01*
X10108Y4203D02*
Y4498D01*
X10359Y4749D01*
X11551Y3234D02*
X11836Y3519D01*
X11551Y2102D02*
Y3234D01*
X10655Y1206D02*
X11551Y2102D01*
X11083Y2805D02*
X11319Y3041D01*
Y3962D01*
X11324Y3966D01*
X11091D02*
X11324D01*
X9547Y6275D02*
Y6576D01*
Y6275D02*
X10395Y5427D01*
Y4982D02*
Y5427D01*
X10138Y1698D02*
Y2165D01*
X10619Y4982D02*
Y5596D01*
X9731Y6484D02*
X10619Y5596D01*
X9547Y6836D02*
Y6841D01*
X9724Y7032D02*
X9951D01*
X9719Y7037D02*
X9724Y7032D01*
X9719Y7037D02*
Y7202D01*
X9951D01*
X9746Y6863D02*
X9951D01*
X9731Y6878D02*
X9746Y6863D01*
X9731Y6878D02*
Y6917D01*
X9724Y6924D02*
X9731Y6917D01*
X9724Y6924D02*
Y7032D01*
X9547Y6836D02*
X9731Y6652D01*
Y6484D02*
Y6652D01*
X9941Y6853D02*
X9951Y6863D01*
X9941Y6608D02*
Y6853D01*
Y6608D02*
X10173D01*
X10179Y6614D01*
Y6875D01*
X10925Y8612D02*
X11270Y8268D01*
Y7592D02*
Y8268D01*
X10921Y7535D02*
X11212D01*
X11270Y7592D01*
X5955Y1452D02*
Y4331D01*
X9585Y7972D02*
X9598Y7985D01*
X8637Y7972D02*
X9585D01*
X11456Y6534D02*
Y7284D01*
X11208Y7222D02*
X11319Y7333D01*
X10915Y7202D02*
X10935Y7222D01*
X11208D01*
X10915Y7032D02*
X11220D01*
X10915Y7710D02*
Y7879D01*
X11959Y5733D02*
Y5782D01*
X10965Y4451D02*
X10967Y4454D01*
X11097D01*
X10619Y4982D02*
X10876Y4724D01*
X10898D01*
X10965Y4451D02*
Y4567D01*
X11220Y4724D02*
X11319Y4626D01*
X10898Y4724D02*
X10899Y4725D01*
X11030D01*
X11031Y4724D01*
X11220D01*
X11959Y5438D02*
Y5733D01*
X2239Y2215D02*
X2288D01*
X13140Y8391D02*
Y9252D01*
X12229Y7657D02*
X12648D01*
X11644D02*
X12229D01*
X11024Y6102D02*
X11456Y6534D01*
X10915Y6043D02*
Y6211D01*
D21*
X11983Y566D02*
Y886D01*
D22*
X13632Y9856D02*
D03*
Y8856D02*
D03*
Y7856D02*
D03*
Y6856D02*
D03*
Y4856D02*
D03*
Y5856D02*
D03*
X591Y2886D02*
D03*
Y1886D02*
D03*
Y886D02*
D03*
D23*
X575Y9087D02*
D03*
Y8087D02*
D03*
Y7087D02*
D03*
Y6087D02*
D03*
D24*
X1575Y9087D02*
D03*
Y8087D02*
D03*
Y7087D02*
D03*
Y6087D02*
D03*
X2575Y9087D02*
D03*
Y8087D02*
D03*
Y7087D02*
D03*
Y6087D02*
D03*
X7087Y763D02*
D03*
X8087D02*
D03*
D25*
X6087D02*
D03*
D26*
X1083Y13091D02*
D03*
X13091Y1083D02*
D03*
D27*
X6608Y1055D02*
D03*
X9547Y6576D02*
D03*
X9547Y6841D02*
D03*
X8711Y7579D02*
D03*
X9572Y7751D02*
D03*
X9695Y8169D02*
D03*
X10093Y3966D02*
D03*
X6545Y8809D02*
D03*
X1476Y9966D02*
D03*
Y10901D02*
D03*
X9561Y7371D02*
D03*
X7062Y11147D02*
D03*
X7308Y10039D02*
D03*
X7357Y10384D02*
D03*
X6939Y10064D02*
D03*
X1476Y10581D02*
D03*
Y10261D02*
D03*
X6644Y9966D02*
D03*
X9400Y9916D02*
D03*
X7234Y8415D02*
D03*
X4626Y9621D02*
D03*
X10408Y7160D02*
D03*
X10581Y7456D02*
D03*
X11491Y8219D02*
D03*
X12254Y10261D02*
D03*
X11934Y8292D02*
D03*
X12623Y5020D02*
D03*
X12598Y6422D02*
D03*
X8957Y1452D02*
D03*
X9227D02*
D03*
X10605Y10261D02*
D03*
X10335D02*
D03*
X3814Y8095D02*
D03*
X3174Y6053D02*
D03*
X4208Y1476D02*
D03*
X11442Y1427D02*
D03*
X12623Y2411D02*
D03*
X11073Y2288D02*
D03*
X10359Y4749D02*
D03*
X1649Y3765D02*
D03*
X1575Y4011D02*
D03*
X2657Y2781D02*
D03*
X5955Y4331D02*
D03*
X8637Y7972D02*
D03*
X2436Y3027D02*
D03*
X12598Y6152D02*
D03*
X12623Y4724D02*
D03*
X11934Y8588D02*
D03*
X12549Y10261D02*
D03*
X11270Y7037D02*
D03*
X11959Y5733D02*
D03*
Y5438D02*
D03*
X11097Y4454D02*
D03*
X10728Y1993D02*
D03*
X8022Y5709D02*
D03*
X2239Y2215D02*
D03*
X1722Y984D02*
D03*
X3002Y5118D02*
D03*
X3519Y3248D02*
D03*
X3494Y2854D02*
D03*
X7234Y5684D02*
D03*
X7406Y11122D02*
D03*
Y10851D02*
D03*
X12008Y2067D02*
D03*
Y2485D02*
D03*
X3200Y5340D02*
D03*
X2165Y984D02*
D03*
X11983Y886D02*
D03*
Y566D02*
D03*
X12475Y8465D02*
D03*
X12844D02*
D03*
X12180Y12648D02*
D03*
X12697D02*
D03*
X13140Y8391D02*
D03*
Y9252D02*
D03*
D28*
X6127Y11220D02*
D03*
M02*
