G04 Layer_Color=8421504*
%FSLAX24Y24*%
%MOIN*%
G70*
G01*
G75*
%ADD10R,0.0512X0.0591*%
%ADD11R,0.0591X0.0512*%
%ADD12R,0.0709X0.0630*%
%ADD13R,0.0591X0.0591*%
%ADD14R,0.0217X0.0157*%
%ADD15R,0.0157X0.0213*%
%ADD16R,0.0157X0.0217*%
%ADD17R,0.0177X0.0109*%
%ADD18R,0.0109X0.0177*%
D10*
X10335Y2805D02*
D03*
X11083D02*
D03*
X10187Y9473D02*
D03*
X10935D02*
D03*
X10925Y8686D02*
D03*
X10177D02*
D03*
D11*
X11860Y7731D02*
D03*
Y6983D02*
D03*
X12648Y7731D02*
D03*
Y6983D02*
D03*
X11122Y6058D02*
D03*
Y5310D02*
D03*
D12*
X6043Y12911D02*
D03*
Y11809D02*
D03*
X7160Y12911D02*
D03*
Y11809D02*
D03*
X12500Y4104D02*
D03*
Y3002D02*
D03*
X10039Y1757D02*
D03*
Y655D02*
D03*
X6644Y7264D02*
D03*
Y8366D02*
D03*
X5413Y7274D02*
D03*
Y8376D02*
D03*
X7874Y7274D02*
D03*
Y8376D02*
D03*
D13*
X4897Y11540D02*
D03*
Y12918D02*
D03*
X8219Y11565D02*
D03*
Y12943D02*
D03*
X6644Y6447D02*
D03*
Y5069D02*
D03*
X7874Y6447D02*
D03*
Y5069D02*
D03*
X5413Y5069D02*
D03*
Y6447D02*
D03*
D14*
X11091Y4203D02*
D03*
X10366D02*
D03*
Y3966D02*
D03*
X11091D02*
D03*
D15*
X10492Y4451D02*
D03*
X10965D02*
D03*
X10492Y3719D02*
D03*
X10965D02*
D03*
D16*
X10728Y4447D02*
D03*
Y3722D02*
D03*
D17*
X9951Y7540D02*
D03*
Y7710D02*
D03*
Y7879D02*
D03*
Y8048D02*
D03*
Y7371D02*
D03*
Y7202D02*
D03*
Y7032D02*
D03*
Y6863D02*
D03*
X10915Y7540D02*
D03*
Y7710D02*
D03*
Y7879D02*
D03*
Y8048D02*
D03*
Y7371D02*
D03*
Y7202D02*
D03*
Y7032D02*
D03*
Y6863D02*
D03*
D18*
X10518Y8036D02*
D03*
X10687D02*
D03*
X10348D02*
D03*
X10179D02*
D03*
X10518Y6875D02*
D03*
X10687D02*
D03*
X10348D02*
D03*
X10179D02*
D03*
M02*
