G04 Layer_Color=8388736*
%FSLAX24Y24*%
%MOIN*%
G70*
G01*
G75*
%ADD17R,0.0374X0.0157*%
%ADD18R,0.0157X0.0370*%
%ADD19R,0.0157X0.0374*%
%ADD20R,0.0109X0.0335*%
%ADD21R,0.0335X0.0109*%
%ADD45R,0.0413X0.0189*%
%ADD46R,0.0189X0.0388*%
%ADD47R,0.0189X0.0405*%
%ADD48R,0.0189X0.0388*%
%ADD49R,0.0413X0.0189*%
%ADD50R,0.0189X0.0389*%
%ADD51R,0.0189X0.0407*%
%ADD52R,0.0189X0.0390*%
%ADD53R,0.0129X0.0413*%
%ADD54R,0.0129X0.0413*%
%ADD55R,0.0130X0.0413*%
%ADD56R,0.0129X0.0413*%
%ADD57R,0.0129X0.0413*%
%ADD58R,0.0129X0.0413*%
%ADD59R,0.0128X0.0413*%
%ADD60R,0.0409X0.0130*%
%ADD61R,0.0408X0.0128*%
%ADD62R,0.0411X0.0127*%
%ADD63R,0.0411X0.0129*%
%ADD64R,0.0407X0.0130*%
%ADD65R,0.0405X0.0127*%
%ADD66R,0.0411X0.0130*%
%ADD67R,0.0411X0.0128*%
%ADD68R,0.0409X0.0130*%
%ADD69R,0.0408X0.0129*%
%ADD70R,0.0411X0.0129*%
%ADD71R,0.0411X0.0129*%
%ADD72R,0.0408X0.0129*%
%ADD73R,0.0409X0.0129*%
%ADD74R,0.0411X0.0130*%
%ADD75R,0.0411X0.0129*%
%ADD76R,0.0772X0.0693*%
%ADD77R,0.0654X0.0417*%
%ADD78R,0.0575X0.0654*%
%ADD79R,0.0654X0.0575*%
%ADD80R,0.1008X0.0693*%
%ADD81R,0.0850X0.0614*%
%ADD82R,0.0654X0.0654*%
%ADD83R,0.0654X0.0654*%
%ADD84C,0.0654*%
%ADD85R,0.0463X0.0463*%
%ADD86C,0.0463*%
%ADD87R,0.0463X0.0463*%
%ADD88C,0.1378*%
%ADD89C,0.0213*%
D17*
X11169Y4203D02*
D03*
X10287D02*
D03*
Y3966D02*
D03*
X11169D02*
D03*
D18*
X10492Y4530D02*
D03*
X10965D02*
D03*
X10492Y3640D02*
D03*
X10965D02*
D03*
D19*
X10728Y4526D02*
D03*
Y3644D02*
D03*
D20*
X10179Y6545D02*
D03*
X10348D02*
D03*
X10687D02*
D03*
X10518D02*
D03*
X10179Y7864D02*
D03*
X10348D02*
D03*
X10687D02*
D03*
X10518D02*
D03*
D21*
X10994Y6612D02*
D03*
Y6781D02*
D03*
Y6951D02*
D03*
Y7120D02*
D03*
Y7797D02*
D03*
Y7628D02*
D03*
Y7459D02*
D03*
Y7289D02*
D03*
X9872Y6612D02*
D03*
Y6781D02*
D03*
Y6951D02*
D03*
Y7120D02*
D03*
Y7797D02*
D03*
Y7628D02*
D03*
Y7459D02*
D03*
Y7289D02*
D03*
D45*
X11171Y3966D02*
D03*
Y4203D02*
D03*
D46*
X10965Y4532D02*
D03*
D47*
X10728Y4523D02*
D03*
D48*
X10492Y4532D02*
D03*
D49*
X10285Y4203D02*
D03*
Y3966D02*
D03*
D50*
X10492Y3637D02*
D03*
D51*
X10728Y3645D02*
D03*
D52*
X10965Y3636D02*
D03*
D53*
X10179Y6543D02*
D03*
D54*
X10348Y6543D02*
D03*
D55*
X10687Y6543D02*
D03*
X10179Y7866D02*
D03*
D56*
X10517Y6543D02*
D03*
D57*
X10349Y7866D02*
D03*
D58*
X10687Y7866D02*
D03*
D59*
X10518Y7866D02*
D03*
D60*
X10997Y6612D02*
D03*
D61*
X10997Y6782D02*
D03*
D62*
X10995Y6951D02*
D03*
D63*
X10995Y7120D02*
D03*
D64*
X10998Y7797D02*
D03*
D65*
X10998Y7628D02*
D03*
D66*
X10995Y7459D02*
D03*
D67*
X10995Y7289D02*
D03*
D68*
X9870Y6612D02*
D03*
D69*
X9870Y6782D02*
D03*
D70*
X9871Y6951D02*
D03*
D71*
X9871Y7120D02*
D03*
D72*
X9869Y7798D02*
D03*
D73*
X9870Y7628D02*
D03*
D74*
X9871Y7459D02*
D03*
D75*
X9871Y7289D02*
D03*
D76*
X6939Y11585D02*
D03*
Y10482D02*
D03*
X5922Y11585D02*
D03*
Y10482D02*
D03*
X5217Y7274D02*
D03*
Y8376D02*
D03*
X6447Y7274D02*
D03*
Y8376D02*
D03*
X7677Y7264D02*
D03*
Y8366D02*
D03*
X3888Y11585D02*
D03*
Y10482D02*
D03*
X4905Y11585D02*
D03*
Y10482D02*
D03*
D77*
X5492Y12608D02*
D03*
Y13278D02*
D03*
X6713Y12608D02*
D03*
Y13278D02*
D03*
D78*
X8312Y3839D02*
D03*
X9060D02*
D03*
X6024Y2928D02*
D03*
X6772D02*
D03*
X6024Y3789D02*
D03*
X6772D02*
D03*
X10335Y2805D02*
D03*
X11083D02*
D03*
X11752Y6230D02*
D03*
X12500D02*
D03*
D79*
X4355Y7525D02*
D03*
Y8273D02*
D03*
X10984Y8679D02*
D03*
Y9427D02*
D03*
X11732Y7707D02*
D03*
Y6959D02*
D03*
X12490Y7707D02*
D03*
Y6959D02*
D03*
X11841Y9301D02*
D03*
Y8553D02*
D03*
D80*
X5217Y6388D02*
D03*
Y5266D02*
D03*
X6447Y6388D02*
D03*
Y5266D02*
D03*
X7677Y6388D02*
D03*
Y5266D02*
D03*
X3789Y12333D02*
D03*
Y13455D02*
D03*
D81*
X13017Y11836D02*
D03*
X10261D02*
D03*
X13017Y13410D02*
D03*
X10261D02*
D03*
D82*
X11683Y5433D02*
D03*
X10807Y5482D02*
D03*
X807Y6557D02*
D03*
X13465Y3856D02*
D03*
D83*
X2420Y566D02*
D03*
D84*
X3420D02*
D03*
X4420D02*
D03*
X5420D02*
D03*
X807Y557D02*
D03*
Y1557D02*
D03*
Y2557D02*
D03*
Y3557D02*
D03*
Y5557D02*
D03*
Y4557D02*
D03*
X13465Y9856D02*
D03*
Y8856D02*
D03*
Y7856D02*
D03*
Y6856D02*
D03*
Y4856D02*
D03*
Y5856D02*
D03*
D85*
X7100Y630D02*
D03*
D86*
X8100D02*
D03*
X9100D02*
D03*
X2517Y7999D02*
D03*
Y8999D02*
D03*
Y9999D02*
D03*
Y10999D02*
D03*
X1517Y7999D02*
D03*
Y8999D02*
D03*
Y9999D02*
D03*
Y10999D02*
D03*
D87*
X517Y7999D02*
D03*
Y8999D02*
D03*
Y9999D02*
D03*
Y10999D02*
D03*
D88*
X1083Y13091D02*
D03*
X13091Y1083D02*
D03*
D89*
X8312Y4326D02*
D03*
X3986Y8169D02*
D03*
X3617Y8095D02*
D03*
X13051Y9291D02*
D03*
X11073Y2288D02*
D03*
X10335Y10261D02*
D03*
X10605D02*
D03*
X12254D02*
D03*
X4183Y1452D02*
D03*
X9400Y9916D02*
D03*
X1600Y7150D02*
D03*
X3150Y7300D02*
D03*
X1850Y5950D02*
D03*
Y3550D02*
D03*
X6565Y9921D02*
D03*
X4961Y9774D02*
D03*
X12549Y10261D02*
D03*
X9606Y4016D02*
D03*
X10217Y4764D02*
D03*
X9006Y1058D02*
D03*
X8661D02*
D03*
X5955Y4355D02*
D03*
X6605Y714D02*
D03*
X2864Y1093D02*
D03*
X12559Y8150D02*
D03*
Y8425D02*
D03*
X13050Y8326D02*
D03*
X5453Y10000D02*
D03*
X10728Y5049D02*
D03*
X6102Y9823D02*
D03*
X3189Y1083D02*
D03*
X3179Y7628D02*
D03*
X5896Y10039D02*
D03*
M02*
