G04 Layer_Color=16711935*
%FSLAX24Y24*%
%MOIN*%
G70*
G01*
G75*
%ADD76R,0.0654X0.0654*%
%ADD78R,0.0772X0.0693*%
%ADD80R,0.0654X0.0575*%
%ADD81R,0.0575X0.0654*%
%ADD83C,0.1378*%
%ADD84C,0.0654*%
%ADD85R,0.0463X0.0463*%
%ADD86C,0.0463*%
%ADD87R,0.0463X0.0463*%
%ADD88R,0.0654X0.0654*%
%ADD89C,0.0213*%
%ADD90R,0.0850X0.1008*%
%ADD91R,0.0574X0.0157*%
%ADD92R,0.0157X0.0574*%
%ADD93R,0.1362X0.0693*%
%ADD94R,0.0535X0.0929*%
%ADD95R,0.0693X0.0772*%
%ADD96R,0.0378X0.0417*%
D76*
X13465Y3856D02*
D03*
X807Y6557D02*
D03*
D78*
X10945Y3514D02*
D03*
Y4616D02*
D03*
X12037Y3514D02*
D03*
Y4616D02*
D03*
D80*
X3150Y5976D02*
D03*
Y6724D02*
D03*
X3789Y9498D02*
D03*
Y8750D02*
D03*
X9843Y5285D02*
D03*
Y6033D02*
D03*
X13214Y11073D02*
D03*
Y11821D02*
D03*
X9572Y12126D02*
D03*
Y12874D02*
D03*
D81*
X4518Y3543D02*
D03*
X5266D02*
D03*
X7918Y10187D02*
D03*
X8666D02*
D03*
X7190Y2534D02*
D03*
X6442D02*
D03*
X8091D02*
D03*
X8839D02*
D03*
X7918Y10974D02*
D03*
X8666D02*
D03*
D83*
X13091Y1083D02*
D03*
X1083Y13091D02*
D03*
D84*
X13465Y5856D02*
D03*
Y4856D02*
D03*
Y6856D02*
D03*
Y7856D02*
D03*
Y8856D02*
D03*
Y9856D02*
D03*
X807Y4557D02*
D03*
Y5557D02*
D03*
Y3557D02*
D03*
Y2557D02*
D03*
Y1557D02*
D03*
Y557D02*
D03*
X5420Y566D02*
D03*
X4420D02*
D03*
X3420D02*
D03*
D85*
X517Y10999D02*
D03*
Y9999D02*
D03*
Y8999D02*
D03*
Y7999D02*
D03*
D86*
X1517Y10999D02*
D03*
Y9999D02*
D03*
Y8999D02*
D03*
Y7999D02*
D03*
X2517Y10999D02*
D03*
Y9999D02*
D03*
Y8999D02*
D03*
Y7999D02*
D03*
X9100Y630D02*
D03*
X8100D02*
D03*
D87*
X7100D02*
D03*
D88*
X2420Y566D02*
D03*
D89*
X5896Y10039D02*
D03*
X3179Y7628D02*
D03*
X3189Y1083D02*
D03*
X6102Y9823D02*
D03*
X10728Y5049D02*
D03*
X5453Y10000D02*
D03*
X13050Y8326D02*
D03*
X12559Y8425D02*
D03*
Y8150D02*
D03*
X2864Y1093D02*
D03*
X6605Y714D02*
D03*
X5955Y4355D02*
D03*
X8661Y1058D02*
D03*
X9006D02*
D03*
X10217Y4764D02*
D03*
X9606Y4016D02*
D03*
X12549Y10261D02*
D03*
X4961Y9774D02*
D03*
X6565Y9921D02*
D03*
X1850Y3550D02*
D03*
Y5950D02*
D03*
X3150Y7300D02*
D03*
X1600Y7150D02*
D03*
X9400Y9916D02*
D03*
X4183Y1452D02*
D03*
X12254Y10261D02*
D03*
X10605D02*
D03*
X10335D02*
D03*
X11073Y2288D02*
D03*
X13051Y9291D02*
D03*
X3617Y8095D02*
D03*
X3986Y8169D02*
D03*
X8312Y4326D02*
D03*
D90*
X6693Y3642D02*
D03*
X8268D02*
D03*
D91*
X4587Y5610D02*
D03*
Y5807D02*
D03*
Y6004D02*
D03*
Y6201D02*
D03*
Y6398D02*
D03*
Y6594D02*
D03*
Y6791D02*
D03*
Y6988D02*
D03*
Y7185D02*
D03*
Y7382D02*
D03*
Y7579D02*
D03*
Y7776D02*
D03*
Y7972D02*
D03*
Y8169D02*
D03*
Y8366D02*
D03*
Y8563D02*
D03*
X9094D02*
D03*
Y8366D02*
D03*
Y8169D02*
D03*
Y7972D02*
D03*
Y7776D02*
D03*
Y7579D02*
D03*
Y7382D02*
D03*
Y7185D02*
D03*
Y6988D02*
D03*
Y6791D02*
D03*
Y6594D02*
D03*
Y6398D02*
D03*
Y6201D02*
D03*
Y6004D02*
D03*
Y5807D02*
D03*
Y5610D02*
D03*
D92*
X8317Y4833D02*
D03*
X8120D02*
D03*
X7923D02*
D03*
X7726D02*
D03*
X7530D02*
D03*
X7333D02*
D03*
X7136D02*
D03*
X6939D02*
D03*
X6742D02*
D03*
X6545D02*
D03*
X6348D02*
D03*
X6152D02*
D03*
X5955D02*
D03*
X5758D02*
D03*
X5561D02*
D03*
X5364D02*
D03*
X5364Y9341D02*
D03*
X5561D02*
D03*
X5758D02*
D03*
X5955D02*
D03*
X6152D02*
D03*
X6348D02*
D03*
X6545D02*
D03*
X6742D02*
D03*
X6939D02*
D03*
X7136D02*
D03*
X7333D02*
D03*
X7530D02*
D03*
X7726D02*
D03*
X7923D02*
D03*
X8120D02*
D03*
X8317D02*
D03*
D93*
X11393Y13602D02*
D03*
D94*
X12298Y11083D02*
D03*
X11393D02*
D03*
X10487D02*
D03*
D95*
X8228Y1772D02*
D03*
X7126D02*
D03*
X5315Y2559D02*
D03*
X4213D02*
D03*
D96*
X8770Y12106D02*
D03*
X7864D02*
D03*
M02*
