G04 Layer_Color=128*
%FSLAX24Y24*%
%MOIN*%
G70*
G01*
G75*
%ADD17R,0.0709X0.0630*%
%ADD19R,0.0591X0.0512*%
%ADD20R,0.0512X0.0591*%
%ADD33R,0.0787X0.0945*%
%ADD34R,0.0531X0.0114*%
%ADD35R,0.0114X0.0531*%
%ADD36R,0.1299X0.0630*%
%ADD37R,0.0472X0.0866*%
%ADD38R,0.0630X0.0709*%
%ADD39R,0.0315X0.0354*%
D17*
X10945Y3514D02*
D03*
Y4616D02*
D03*
X12037Y3514D02*
D03*
Y4616D02*
D03*
D19*
X3150Y5976D02*
D03*
Y6724D02*
D03*
X3789Y9498D02*
D03*
Y8750D02*
D03*
X9843Y5285D02*
D03*
Y6033D02*
D03*
X13214Y11073D02*
D03*
Y11821D02*
D03*
X9572Y12126D02*
D03*
Y12874D02*
D03*
D20*
X4518Y3543D02*
D03*
X5266D02*
D03*
X7918Y10187D02*
D03*
X8666D02*
D03*
X7190Y2534D02*
D03*
X6442D02*
D03*
X8091D02*
D03*
X8839D02*
D03*
X7918Y10974D02*
D03*
X8666D02*
D03*
D33*
X6693Y3642D02*
D03*
X8268D02*
D03*
D34*
X4587Y5610D02*
D03*
Y5807D02*
D03*
Y6004D02*
D03*
Y6201D02*
D03*
Y6398D02*
D03*
Y6594D02*
D03*
Y6791D02*
D03*
Y6988D02*
D03*
Y7185D02*
D03*
Y7382D02*
D03*
Y7579D02*
D03*
Y7776D02*
D03*
Y7972D02*
D03*
Y8169D02*
D03*
Y8366D02*
D03*
Y8563D02*
D03*
X9094D02*
D03*
Y8366D02*
D03*
Y8169D02*
D03*
Y7972D02*
D03*
Y7776D02*
D03*
Y7579D02*
D03*
Y7382D02*
D03*
Y7185D02*
D03*
Y6988D02*
D03*
Y6791D02*
D03*
Y6594D02*
D03*
Y6398D02*
D03*
Y6201D02*
D03*
Y6004D02*
D03*
Y5807D02*
D03*
Y5610D02*
D03*
D35*
X8317Y4833D02*
D03*
X8120D02*
D03*
X7923D02*
D03*
X7726D02*
D03*
X7530D02*
D03*
X7333D02*
D03*
X7136D02*
D03*
X6939D02*
D03*
X6742D02*
D03*
X6545D02*
D03*
X6348D02*
D03*
X6152D02*
D03*
X5955D02*
D03*
X5758D02*
D03*
X5561D02*
D03*
X5364D02*
D03*
X5364Y9341D02*
D03*
X5561D02*
D03*
X5758D02*
D03*
X5955D02*
D03*
X6152D02*
D03*
X6348D02*
D03*
X6545D02*
D03*
X6742D02*
D03*
X6939D02*
D03*
X7136D02*
D03*
X7333D02*
D03*
X7530D02*
D03*
X7726D02*
D03*
X7923D02*
D03*
X8120D02*
D03*
X8317D02*
D03*
D36*
X11393Y13602D02*
D03*
D37*
X12298Y11083D02*
D03*
X11393D02*
D03*
X10487D02*
D03*
D38*
X8228Y1772D02*
D03*
X7126D02*
D03*
X5315Y2559D02*
D03*
X4213D02*
D03*
D39*
X8770Y12106D02*
D03*
X7864D02*
D03*
M02*
