G04 Layer_Color=8421504*
%FSLAX24Y24*%
%MOIN*%
G70*
G01*
G75*
%ADD10R,0.0709X0.0630*%
%ADD11R,0.0591X0.0354*%
%ADD12R,0.0512X0.0591*%
%ADD13R,0.0591X0.0512*%
%ADD14R,0.0945X0.0630*%
%ADD15R,0.0787X0.0551*%
%ADD16R,0.0591X0.0591*%
%ADD17R,0.0374X0.0157*%
%ADD18R,0.0157X0.0370*%
%ADD19R,0.0157X0.0374*%
%ADD20R,0.0109X0.0335*%
%ADD21R,0.0335X0.0109*%
D10*
X6939Y11585D02*
D03*
Y10482D02*
D03*
X5922Y11585D02*
D03*
Y10482D02*
D03*
X5217Y7274D02*
D03*
Y8376D02*
D03*
X6447Y7274D02*
D03*
Y8376D02*
D03*
X7677Y7264D02*
D03*
Y8366D02*
D03*
X3888Y11585D02*
D03*
Y10482D02*
D03*
X4905Y11585D02*
D03*
Y10482D02*
D03*
D11*
X5492Y12608D02*
D03*
Y13278D02*
D03*
X6713Y12608D02*
D03*
Y13278D02*
D03*
D12*
X8312Y3839D02*
D03*
X9060D02*
D03*
X6024Y2928D02*
D03*
X6772D02*
D03*
X6024Y3789D02*
D03*
X6772D02*
D03*
X10335Y2805D02*
D03*
X11083D02*
D03*
X11752Y6230D02*
D03*
X12500D02*
D03*
D13*
X4355Y7525D02*
D03*
Y8273D02*
D03*
X10984Y8679D02*
D03*
Y9427D02*
D03*
X11732Y7707D02*
D03*
Y6959D02*
D03*
X12490Y7707D02*
D03*
Y6959D02*
D03*
X11841Y9301D02*
D03*
Y8553D02*
D03*
D14*
X5217Y6388D02*
D03*
Y5266D02*
D03*
X6447Y6388D02*
D03*
Y5266D02*
D03*
X7677Y6388D02*
D03*
Y5266D02*
D03*
X3789Y12333D02*
D03*
Y13455D02*
D03*
D15*
X13017Y11836D02*
D03*
X10261D02*
D03*
X13017Y13410D02*
D03*
X10261D02*
D03*
D16*
X11683Y5433D02*
D03*
X10807Y5482D02*
D03*
D17*
X11169Y4203D02*
D03*
X10287D02*
D03*
Y3966D02*
D03*
X11169D02*
D03*
D18*
X10492Y4530D02*
D03*
X10965D02*
D03*
X10492Y3640D02*
D03*
X10965D02*
D03*
D19*
X10728Y4526D02*
D03*
Y3644D02*
D03*
D20*
X10179Y6545D02*
D03*
X10348D02*
D03*
X10687D02*
D03*
X10518D02*
D03*
X10179Y7864D02*
D03*
X10348D02*
D03*
X10687D02*
D03*
X10518D02*
D03*
D21*
X10994Y6612D02*
D03*
Y6781D02*
D03*
Y6951D02*
D03*
Y7120D02*
D03*
Y7797D02*
D03*
Y7628D02*
D03*
Y7459D02*
D03*
Y7289D02*
D03*
X9872Y6612D02*
D03*
Y6781D02*
D03*
Y6951D02*
D03*
Y7120D02*
D03*
Y7797D02*
D03*
Y7628D02*
D03*
Y7459D02*
D03*
Y7289D02*
D03*
M02*
