G04 Layer_Color=65535*
%FSLAX24Y24*%
%MOIN*%
G70*
G01*
G75*
%ADD23C,0.0197*%
%ADD24C,0.0079*%
%ADD42C,0.0100*%
%ADD43C,0.0138*%
%ADD44C,0.0050*%
D23*
X11457Y7815D02*
G03*
X11457Y7815I-39J0D01*
G01*
D24*
X4590Y10915D02*
Y11152D01*
X5220Y10915D02*
Y11152D01*
X3573Y10915D02*
Y11152D01*
X4203Y10915D02*
Y11152D01*
X7992Y7697D02*
Y7933D01*
X7362Y7697D02*
Y7933D01*
X6762Y7707D02*
Y7943D01*
X6132Y7707D02*
Y7943D01*
X5531Y7707D02*
Y7943D01*
X4902Y7707D02*
Y7943D01*
X12965Y10356D02*
X13965D01*
Y3356D02*
Y10356D01*
X12965Y3356D02*
X13965D01*
X12965D02*
Y10356D01*
X4242Y11752D02*
Y12500D01*
X3337Y11752D02*
Y12500D01*
Y11752D02*
X4242D01*
X3494Y14154D02*
X4085D01*
X4242Y13287D02*
Y13957D01*
X3337D02*
X3494Y14154D01*
X4085D02*
X4242Y13957D01*
X3337Y13287D02*
Y13957D01*
X7224Y6220D02*
Y6969D01*
X8130Y6220D02*
Y6969D01*
X7224D02*
X8130D01*
X7382Y4567D02*
X7972D01*
X7224Y4764D02*
Y5433D01*
X7972Y4567D02*
X8130Y4764D01*
X7224D02*
X7382Y4567D01*
X8130Y4764D02*
Y5433D01*
X5994Y6220D02*
Y6969D01*
X6900Y6220D02*
Y6969D01*
X5994D02*
X6900D01*
X6152Y4567D02*
X6742D01*
X5994Y4764D02*
Y5433D01*
X6742Y4567D02*
X6900Y4764D01*
X5994D02*
X6152Y4567D01*
X6900Y4764D02*
Y5433D01*
X4764Y6220D02*
Y6969D01*
X5669Y6220D02*
Y6969D01*
X4764D02*
X5669D01*
X4921Y4567D02*
X5512D01*
X4764Y4764D02*
Y5433D01*
X5512Y4567D02*
X5669Y4764D01*
X4764D02*
X4921Y4567D01*
X5669Y4764D02*
Y5433D01*
X11585Y9675D02*
X12096D01*
X12234Y8081D02*
X12746D01*
X11476D02*
X11988D01*
X11378Y5974D02*
Y6486D01*
X10728Y8305D02*
X11240D01*
X9961Y2549D02*
Y3061D01*
X4099Y7151D02*
X4611D01*
X5650Y3533D02*
Y4045D01*
Y2672D02*
Y3184D01*
X7938Y3583D02*
Y4094D01*
X307Y57D02*
X1307D01*
X307D02*
Y7057D01*
X1307D01*
Y57D02*
Y7057D01*
X5607Y10915D02*
Y11152D01*
X6237Y10915D02*
Y11152D01*
X6624Y10915D02*
Y11152D01*
X7254Y10915D02*
Y11152D01*
X1920Y66D02*
Y1066D01*
X5920D01*
X1920Y66D02*
X5920D01*
Y1066D01*
D42*
X11551Y3970D02*
G03*
X11551Y3970I-39J0D01*
G01*
X10827Y7894D02*
X11024D01*
X10866Y6516D02*
X11024D01*
Y6750D01*
X9843Y6516D02*
X10077D01*
X9843D02*
Y6732D01*
Y7693D02*
Y7894D01*
X10077D01*
X11024Y7693D02*
Y7894D01*
X11122Y3592D02*
X11220Y3671D01*
X10236Y3592D02*
X10354D01*
X10236Y4360D02*
Y4577D01*
Y3592D02*
Y3809D01*
Y4577D02*
X10354D01*
X11091D02*
X11220D01*
Y4360D02*
Y4577D01*
Y3671D02*
Y3809D01*
X17Y7499D02*
Y11499D01*
Y7499D02*
X3017D01*
Y11499D01*
X17D02*
X3017D01*
X6589Y1130D02*
X9600D01*
Y157D02*
Y1130D01*
X6589Y157D02*
X9600D01*
X6589D02*
Y1130D01*
X11719Y12803D02*
X11619Y12903D01*
X11419D01*
X11319Y12803D01*
Y12703D01*
X11419Y12603D01*
X11619D01*
X11719Y12503D01*
Y12403D01*
X11619Y12303D01*
X11419D01*
X11319Y12403D01*
X11919Y12303D02*
X12119D01*
X12019D01*
Y12903D01*
X11919Y12803D01*
X2087Y13848D02*
Y13248D01*
X2387D01*
X2486Y13348D01*
Y13748D01*
X2387Y13848D01*
X2087D01*
X2986Y13248D02*
Y13848D01*
X2686Y13548D01*
X3086D01*
X9005Y6949D02*
X8406D01*
Y6649D01*
X8505Y6549D01*
X8905D01*
X9005Y6649D01*
Y6949D01*
X8905Y6349D02*
X9005Y6249D01*
Y6049D01*
X8905Y5949D01*
X8805D01*
X8705Y6049D01*
Y6149D01*
Y6049D01*
X8605Y5949D01*
X8505D01*
X8406Y6049D01*
Y6249D01*
X8505Y6349D01*
X5955Y6171D02*
Y5571D01*
X6255D01*
X6355Y5671D01*
Y6071D01*
X6255Y6171D01*
X5955D01*
X6954Y5571D02*
X6555D01*
X6954Y5971D01*
Y6071D01*
X6854Y6171D01*
X6654D01*
X6555Y6071D01*
X3740Y5127D02*
Y4528D01*
X4040D01*
X4140Y4628D01*
Y5027D01*
X4040Y5127D01*
X3740D01*
X4340Y4528D02*
X4540D01*
X4440D01*
Y5127D01*
X4340Y5027D01*
X8717Y2567D02*
X8617Y2667D01*
X8417D01*
X8317Y2567D01*
Y2167D01*
X8417Y2067D01*
X8617D01*
X8717Y2167D01*
X8917Y2067D02*
X9117D01*
X9017D01*
Y2667D01*
X8917Y2567D01*
X9816Y2667D02*
X9417D01*
Y2367D01*
X9617Y2467D01*
X9716D01*
X9816Y2367D01*
Y2167D01*
X9716Y2067D01*
X9517D01*
X9417Y2167D01*
X11159Y11057D02*
X11259Y11157D01*
Y11357D01*
X11159Y11457D01*
X10759D01*
X10659Y11357D01*
Y11157D01*
X10759Y11057D01*
X10659Y10857D02*
Y10657D01*
Y10757D01*
X11259D01*
X11159Y10857D01*
X11259Y9957D02*
X11159Y10157D01*
X10959Y10357D01*
X10759D01*
X10659Y10257D01*
Y10057D01*
X10759Y9957D01*
X10859D01*
X10959Y10057D01*
Y10357D01*
X12813Y5279D02*
X12913Y5379D01*
Y5579D01*
X12813Y5679D01*
X12413D01*
X12313Y5579D01*
Y5379D01*
X12413Y5279D01*
X12313Y5079D02*
Y4879D01*
Y4979D01*
X12913D01*
X12813Y5079D01*
X12913Y4579D02*
Y4180D01*
X12813D01*
X12413Y4579D01*
X12313D01*
X12065Y4413D02*
X12165Y4513D01*
Y4713D01*
X12065Y4813D01*
X11665D01*
X11565Y4713D01*
Y4513D01*
X11665Y4413D01*
X11565Y4213D02*
Y4013D01*
Y4113D01*
X12165D01*
X12065Y4213D01*
Y3713D02*
X12165Y3613D01*
Y3413D01*
X12065Y3313D01*
X11965D01*
X11865Y3413D01*
X11765Y3313D01*
X11665D01*
X11565Y3413D01*
Y3613D01*
X11665Y3713D01*
X11765D01*
X11865Y3613D01*
X11965Y3713D01*
X12065D01*
X11865Y3613D02*
Y3413D01*
X12744Y9334D02*
X12844Y9434D01*
Y9634D01*
X12744Y9734D01*
X12344D01*
X12244Y9634D01*
Y9434D01*
X12344Y9334D01*
X12244Y9134D02*
Y8935D01*
Y9034D01*
X12844D01*
X12744Y9134D01*
X12344Y8635D02*
X12244Y8535D01*
Y8335D01*
X12344Y8235D01*
X12744D01*
X12844Y8335D01*
Y8535D01*
X12744Y8635D01*
X12644D01*
X12544Y8535D01*
Y8235D01*
X12025Y11145D02*
X12125Y11245D01*
Y11445D01*
X12025Y11545D01*
X11626D01*
X11526Y11445D01*
Y11245D01*
X11626Y11145D01*
X11526Y10546D02*
Y10945D01*
X11925Y10546D01*
X12025D01*
X12125Y10646D01*
Y10846D01*
X12025Y10945D01*
Y10346D02*
X12125Y10246D01*
Y10046D01*
X12025Y9946D01*
X11626D01*
X11526Y10046D01*
Y10246D01*
X11626Y10346D01*
X12025D01*
X13423Y11300D02*
X13223D01*
X13323D01*
Y10800D01*
X13223Y10700D01*
X13123D01*
X13023Y10800D01*
X13922Y10700D02*
Y11300D01*
X13622Y11000D01*
X14022D01*
X4847Y8858D02*
Y9458D01*
X5147D01*
X5247Y9358D01*
Y9158D01*
X5147Y9058D01*
X4847D01*
X5047D02*
X5247Y8858D01*
X5447D02*
X5647D01*
X5547D01*
Y9458D01*
X5447Y9358D01*
X6152Y8858D02*
Y9458D01*
X6451D01*
X6551Y9358D01*
Y9158D01*
X6451Y9058D01*
X6152D01*
X6352D02*
X6551Y8858D01*
X7151D02*
X6751D01*
X7151Y9258D01*
Y9358D01*
X7051Y9458D01*
X6851D01*
X6751Y9358D01*
X7382Y8858D02*
Y9458D01*
X7682D01*
X7782Y9358D01*
Y9158D01*
X7682Y9058D01*
X7382D01*
X7582D02*
X7782Y8858D01*
X7982Y9358D02*
X8082Y9458D01*
X8282D01*
X8382Y9358D01*
Y9258D01*
X8282Y9158D01*
X8182D01*
X8282D01*
X8382Y9058D01*
Y8958D01*
X8282Y8858D01*
X8082D01*
X7982Y8958D01*
X4173Y9035D02*
X3573D01*
Y9335D01*
X3673Y9435D01*
X3873D01*
X3973Y9335D01*
Y9035D01*
Y9235D02*
X4173Y9435D01*
Y9935D02*
X3573D01*
X3873Y9635D01*
Y10035D01*
X8140Y10610D02*
X7540D01*
Y10910D01*
X7640Y11010D01*
X7840D01*
X7940Y10910D01*
Y10610D01*
Y10810D02*
X8140Y11010D01*
X7540Y11610D02*
Y11210D01*
X7840D01*
X7740Y11410D01*
Y11510D01*
X7840Y11610D01*
X8040D01*
X8140Y11510D01*
Y11310D01*
X8040Y11210D01*
X9390Y3593D02*
X9890D01*
X9990Y3692D01*
Y3892D01*
X9890Y3992D01*
X9390D01*
X9490Y4192D02*
X9390Y4292D01*
Y4492D01*
X9490Y4592D01*
X9590D01*
X9690Y4492D01*
Y4392D01*
Y4492D01*
X9790Y4592D01*
X9890D01*
X9990Y4492D01*
Y4292D01*
X9890Y4192D01*
X8612Y8444D02*
Y7944D01*
X8712Y7844D01*
X8912D01*
X9012Y7944D01*
Y8444D01*
X9512Y7844D02*
Y8444D01*
X9212Y8144D01*
X9612D01*
X8692Y3330D02*
X8592Y3430D01*
X8392D01*
X8292Y3330D01*
Y2930D01*
X8392Y2830D01*
X8592D01*
X8692Y2930D01*
X8892Y3330D02*
X8992Y3430D01*
X9192D01*
X9292Y3330D01*
Y3230D01*
X9192Y3130D01*
X9292Y3030D01*
Y2930D01*
X9192Y2830D01*
X8992D01*
X8892Y2930D01*
Y3030D01*
X8992Y3130D01*
X8892Y3230D01*
Y3330D01*
X8992Y3130D02*
X9192D01*
X4804Y3108D02*
X4704Y3208D01*
X4505D01*
X4405Y3108D01*
Y2708D01*
X4505Y2608D01*
X4704D01*
X4804Y2708D01*
X5004D02*
X5104Y2608D01*
X5304D01*
X5404Y2708D01*
Y3108D01*
X5304Y3208D01*
X5104D01*
X5004Y3108D01*
Y3008D01*
X5104Y2908D01*
X5404D01*
X4361Y3994D02*
X4262Y4094D01*
X4062D01*
X3962Y3994D01*
Y3594D01*
X4062Y3494D01*
X4262D01*
X4361Y3594D01*
X4561Y3494D02*
X4761D01*
X4661D01*
Y4094D01*
X4561Y3994D01*
X5061D02*
X5161Y4094D01*
X5361D01*
X5461Y3994D01*
Y3594D01*
X5361Y3494D01*
X5161D01*
X5061Y3594D01*
Y3994D01*
X4486Y6598D02*
X4586Y6698D01*
Y6898D01*
X4486Y6998D01*
X4086D01*
X3986Y6898D01*
Y6698D01*
X4086Y6598D01*
X3986Y6398D02*
Y6198D01*
Y6298D01*
X4586D01*
X4486Y6398D01*
Y5898D02*
X4586Y5798D01*
Y5598D01*
X4486Y5499D01*
X4386D01*
X4286Y5598D01*
Y5698D01*
Y5598D01*
X4186Y5499D01*
X4086D01*
X3986Y5598D01*
Y5798D01*
X4086Y5898D01*
X4508Y12028D02*
X5108D01*
Y12427D01*
X4508Y13027D02*
Y12627D01*
X5108D01*
Y13027D01*
X4808Y12627D02*
Y12827D01*
X4508Y13227D02*
X5108D01*
Y13527D01*
X5008Y13627D01*
X4608D01*
X4508Y13527D01*
Y13227D01*
X5108Y13827D02*
Y14027D01*
Y13927D01*
X4508D01*
X4608Y13827D01*
X8937Y10404D02*
X8337D01*
Y10703D01*
X8437Y10803D01*
X8637D01*
X8737Y10703D01*
Y10404D01*
Y10603D02*
X8937Y10803D01*
Y11003D02*
Y11203D01*
Y11103D01*
X8337D01*
X8437Y11003D01*
Y11503D02*
X8337Y11603D01*
Y11803D01*
X8437Y11903D01*
X8837D01*
X8937Y11803D01*
Y11603D01*
X8837Y11503D01*
X8437D01*
X9774Y10482D02*
X9174D01*
Y10782D01*
X9274Y10882D01*
X9474D01*
X9574Y10782D01*
Y10482D01*
Y10682D02*
X9774Y10882D01*
Y11082D02*
Y11282D01*
Y11182D01*
X9174D01*
X9274Y11082D01*
X9774Y11582D02*
Y11782D01*
Y11682D01*
X9174D01*
X9274Y11582D01*
X3228Y8465D02*
X3828D01*
X3628Y8265D01*
X3828Y8065D01*
X3228D01*
Y7565D02*
X3828D01*
X3528Y7865D01*
Y7465D01*
X9150Y1760D02*
X9050Y1860D01*
X8850D01*
X8750Y1760D01*
Y1360D01*
X8850Y1260D01*
X9050D01*
X9150Y1360D01*
Y1560D01*
X8950D01*
X9350Y1260D02*
Y1860D01*
X9750Y1260D01*
Y1860D01*
X9950D02*
Y1260D01*
X10250D01*
X10349Y1360D01*
Y1760D01*
X10250Y1860D01*
X9950D01*
X8198Y1933D02*
Y2333D01*
X7898D01*
X7998Y2133D01*
Y2033D01*
X7898Y1933D01*
X7698D01*
X7598Y2033D01*
Y2233D01*
X7698Y2333D01*
X8198Y1733D02*
X7798D01*
X7598Y1533D01*
X7798Y1333D01*
X8198D01*
X5748Y1437D02*
Y2037D01*
X6048D01*
X6148Y1937D01*
Y1737D01*
X6048Y1637D01*
X5748D01*
X6348Y1437D02*
Y2037D01*
X6648D01*
X6748Y1937D01*
Y1737D01*
X6648Y1637D01*
X6348D01*
X6948Y1437D02*
Y2037D01*
X7148Y1837D01*
X7348Y2037D01*
Y1437D01*
X2044Y2714D02*
X1944Y2814D01*
X1744D01*
X1644Y2714D01*
Y2315D01*
X1744Y2215D01*
X1944D01*
X2044Y2315D01*
Y2514D01*
X1844D01*
X2244Y2215D02*
Y2814D01*
X2643Y2215D01*
Y2814D01*
X2843D02*
Y2215D01*
X3143D01*
X3243Y2315D01*
Y2714D01*
X3143Y2814D01*
X2843D01*
X2024Y3541D02*
X1924Y3641D01*
X1724D01*
X1624Y3541D01*
Y3141D01*
X1724Y3041D01*
X1924D01*
X2024Y3141D01*
X2224Y3641D02*
Y3041D01*
X2624D01*
X2824Y3641D02*
Y3041D01*
Y3241D01*
X3223Y3641D01*
X2924Y3341D01*
X3223Y3041D01*
X2103Y7203D02*
X2003Y7303D01*
X1803D01*
X1703Y7203D01*
Y6803D01*
X1803Y6703D01*
X2003D01*
X2103Y6803D01*
X2303Y7303D02*
Y6703D01*
X2602D01*
X2702Y6803D01*
Y7203D01*
X2602Y7303D01*
X2303D01*
X1644Y4358D02*
X1744Y4458D01*
X1944D01*
X2044Y4358D01*
Y4258D01*
X1944Y4158D01*
X1844D01*
X1944D01*
X2044Y4058D01*
Y3958D01*
X1944Y3858D01*
X1744D01*
X1644Y3958D01*
X2244Y4458D02*
Y4058D01*
X2443Y3858D01*
X2643Y4058D01*
Y4458D01*
X2843Y4358D02*
X2943Y4458D01*
X3143D01*
X3243Y4358D01*
Y4258D01*
X3143Y4158D01*
X3043D01*
X3143D01*
X3243Y4058D01*
Y3958D01*
X3143Y3858D01*
X2943D01*
X2843Y3958D01*
X276Y11634D02*
Y12234D01*
X575D01*
X675Y12134D01*
Y11934D01*
X575Y11834D01*
X276D01*
X1670Y12263D02*
X1270D01*
Y11963D01*
X1470Y12063D01*
X1570D01*
X1670Y11963D01*
Y11763D01*
X1570Y11663D01*
X1370D01*
X1270Y11763D01*
X2821Y12163D02*
X2721Y12263D01*
X2521D01*
X2421Y12163D01*
Y11763D01*
X2521Y11663D01*
X2721D01*
X2821Y11763D01*
Y11963D01*
X2621D01*
X9130Y5687D02*
X9030Y5787D01*
X8830D01*
X8730Y5687D01*
Y5587D01*
X8830Y5487D01*
X9030D01*
X9130Y5387D01*
Y5287D01*
X9030Y5187D01*
X8830D01*
X8730Y5287D01*
X9330Y5787D02*
Y5187D01*
X9630D01*
X9730Y5287D01*
Y5687D01*
X9630Y5787D01*
X9330D01*
X9930Y5187D02*
Y5587D01*
X10130Y5787D01*
X10330Y5587D01*
Y5187D01*
Y5487D01*
X9930D01*
X11965Y2980D02*
X11865Y3080D01*
X11665D01*
X11565Y2980D01*
Y2880D01*
X11665Y2780D01*
X11865D01*
X11965Y2680D01*
Y2580D01*
X11865Y2480D01*
X11665D01*
X11565Y2580D01*
X12565Y2980D02*
X12465Y3080D01*
X12265D01*
X12165Y2980D01*
Y2580D01*
X12265Y2480D01*
X12465D01*
X12565Y2580D01*
X12765Y3080D02*
Y2480D01*
X13164D01*
X2044Y6248D02*
X1944Y6348D01*
X1744D01*
X1644Y6248D01*
Y5848D01*
X1744Y5748D01*
X1944D01*
X2044Y5848D01*
X2244Y5748D02*
Y6348D01*
X2443Y6148D01*
X2643Y6348D01*
Y5748D01*
X2843Y6348D02*
Y5748D01*
X3143D01*
X3243Y5848D01*
Y6248D01*
X3143Y6348D01*
X2843D01*
X2063Y5293D02*
X1963Y5393D01*
X1763D01*
X1663Y5293D01*
Y4893D01*
X1763Y4793D01*
X1963D01*
X2063Y4893D01*
Y5093D01*
X1863D01*
X2263Y4793D02*
Y5393D01*
X2663Y4793D01*
Y5393D01*
X2863D02*
Y4793D01*
X3163D01*
X3263Y4893D01*
Y5293D01*
X3163Y5393D01*
X2863D01*
X1624Y1938D02*
Y1339D01*
X1924D01*
X2024Y1439D01*
Y1838D01*
X1924Y1938D01*
X1624D01*
X2224Y1339D02*
Y1738D01*
X2424Y1938D01*
X2624Y1738D01*
Y1339D01*
Y1638D01*
X2224D01*
X2824Y1938D02*
X3223D01*
X3024D01*
Y1339D01*
X3423Y1838D02*
X3523Y1938D01*
X3723D01*
X3823Y1838D01*
Y1439D01*
X3723Y1339D01*
X3523D01*
X3423Y1439D01*
Y1838D01*
D43*
X5572Y13711D02*
G03*
X5572Y13711I-70J0D01*
G01*
D44*
X5886Y13494D02*
X6319D01*
X5886Y12392D02*
X6319D01*
M02*
