G04 Layer_Color=8421504*
%FSLAX24Y24*%
%MOIN*%
G70*
G01*
G75*
%ADD10R,0.0335X0.0109*%
%ADD11R,0.0109X0.0335*%
%ADD12R,0.0374X0.0157*%
%ADD13R,0.0157X0.0370*%
%ADD14R,0.0157X0.0374*%
%ADD15R,0.0591X0.0591*%
%ADD16R,0.0787X0.0551*%
%ADD17R,0.0709X0.0630*%
%ADD18R,0.0945X0.0630*%
%ADD19R,0.0591X0.0512*%
%ADD20R,0.0512X0.0591*%
%ADD21R,0.0591X0.0354*%
D10*
X9872Y7289D02*
D03*
Y7459D02*
D03*
Y7628D02*
D03*
Y7797D02*
D03*
Y7120D02*
D03*
Y6951D02*
D03*
Y6781D02*
D03*
Y6612D02*
D03*
X10994Y7289D02*
D03*
Y7459D02*
D03*
Y7628D02*
D03*
Y7797D02*
D03*
Y7120D02*
D03*
Y6951D02*
D03*
Y6781D02*
D03*
Y6612D02*
D03*
D11*
X10518Y7864D02*
D03*
X10687D02*
D03*
X10348D02*
D03*
X10179D02*
D03*
X10518Y6545D02*
D03*
X10687D02*
D03*
X10348D02*
D03*
X10179D02*
D03*
D12*
X11169Y3966D02*
D03*
X10287D02*
D03*
Y4203D02*
D03*
X11169D02*
D03*
D13*
X10965Y3640D02*
D03*
X10492D02*
D03*
X10965Y4530D02*
D03*
X10492D02*
D03*
D14*
X10728Y3644D02*
D03*
Y4526D02*
D03*
D15*
X10807Y5482D02*
D03*
X11683Y5433D02*
D03*
D16*
X10261Y13410D02*
D03*
X13017D02*
D03*
X10261Y11836D02*
D03*
X13017D02*
D03*
D17*
X4905Y10482D02*
D03*
Y11585D02*
D03*
X3888Y10482D02*
D03*
Y11585D02*
D03*
X7677Y8366D02*
D03*
Y7264D02*
D03*
X6447Y8376D02*
D03*
Y7274D02*
D03*
X5217Y8376D02*
D03*
Y7274D02*
D03*
X5922Y10482D02*
D03*
Y11585D02*
D03*
X6939Y10482D02*
D03*
Y11585D02*
D03*
D18*
X3789Y13455D02*
D03*
Y12333D02*
D03*
X7677Y5266D02*
D03*
Y6388D02*
D03*
X6447Y5266D02*
D03*
Y6388D02*
D03*
X5217Y5266D02*
D03*
Y6388D02*
D03*
D19*
X11841Y8553D02*
D03*
Y9301D02*
D03*
X12490Y6959D02*
D03*
Y7707D02*
D03*
X11732Y6959D02*
D03*
Y7707D02*
D03*
X10984Y9427D02*
D03*
Y8679D02*
D03*
X4355Y8273D02*
D03*
Y7525D02*
D03*
D20*
X12500Y6230D02*
D03*
X11752D02*
D03*
X11083Y2805D02*
D03*
X10335D02*
D03*
X6772Y3789D02*
D03*
X6024D02*
D03*
X6772Y2928D02*
D03*
X6024D02*
D03*
X9060Y3839D02*
D03*
X8312D02*
D03*
D21*
X6713Y13278D02*
D03*
Y12608D02*
D03*
X5492Y13278D02*
D03*
Y12608D02*
D03*
M02*
