G04 Layer_Physical_Order=1*
G04 Layer_Color=255*
%FSLAX24Y24*%
%MOIN*%
G70*
G01*
G75*
%ADD10R,0.0335X0.0109*%
%ADD11R,0.0109X0.0335*%
%ADD12R,0.0374X0.0157*%
%ADD13R,0.0157X0.0370*%
%ADD14R,0.0157X0.0374*%
%ADD15R,0.0591X0.0591*%
%ADD16R,0.0787X0.0551*%
%ADD17R,0.0709X0.0630*%
%ADD18R,0.0945X0.0630*%
%ADD19R,0.0591X0.0512*%
%ADD20R,0.0512X0.0591*%
%ADD21R,0.0591X0.0354*%
%ADD22C,0.0098*%
%ADD23C,0.0197*%
%ADD24C,0.0079*%
%ADD25C,0.0118*%
%ADD26C,0.0394*%
%ADD27C,0.0591*%
%ADD28R,0.0400X0.0400*%
%ADD29C,0.0400*%
%ADD30R,0.0400X0.0400*%
%ADD31R,0.0591X0.0591*%
%ADD32C,0.0150*%
G36*
X467Y2713D02*
X443Y2655D01*
X430Y2557D01*
X443Y2459D01*
X480Y2368D01*
X540Y2290D01*
X618Y2230D01*
X709Y2193D01*
X807Y2180D01*
X905Y2193D01*
X996Y2230D01*
X1074Y2290D01*
X1134Y2368D01*
X1160Y2431D01*
X1220Y2419D01*
Y1751D01*
X1160Y1739D01*
X1152Y1756D01*
X1089Y1839D01*
X1006Y1902D01*
X910Y1942D01*
X857Y1949D01*
Y1557D01*
Y1165D01*
X910Y1172D01*
X1006Y1212D01*
X1089Y1275D01*
X1152Y1358D01*
X1160Y1375D01*
X1220Y1363D01*
Y1109D01*
X995Y884D01*
X905Y921D01*
X807Y934D01*
X709Y921D01*
X618Y884D01*
X540Y824D01*
X480Y746D01*
X443Y655D01*
X430Y557D01*
X443Y459D01*
X480Y368D01*
X540Y290D01*
X584Y257D01*
X564Y197D01*
X197D01*
Y2904D01*
X252Y2927D01*
X467Y2713D01*
D02*
G37*
G36*
X8499Y6520D02*
X8542Y6492D01*
X8591Y6482D01*
X9626D01*
Y6479D01*
X10024D01*
Y6278D01*
X10140D01*
X10145Y6272D01*
X10354D01*
Y6172D01*
X10147D01*
X10140Y6164D01*
X8408D01*
X8387Y6178D01*
X8327Y6190D01*
X8288Y6183D01*
X8228Y6219D01*
Y6706D01*
X8288Y6731D01*
X8499Y6520D01*
D02*
G37*
G36*
X13976Y13946D02*
Y11145D01*
X13916Y11120D01*
X13489Y11548D01*
Y12190D01*
X12544D01*
Y11966D01*
X10733D01*
X10733Y12185D01*
X10734Y12192D01*
X10746Y12244D01*
X10761Y12247D01*
X10806Y12256D01*
X10864Y12295D01*
X10903Y12353D01*
X10907Y12371D01*
X10570D01*
X10573Y12353D01*
X10612Y12295D01*
X10670Y12256D01*
X10702Y12250D01*
X10697Y12192D01*
X10678Y12190D01*
X10674Y12190D01*
X9788D01*
Y11481D01*
X10733D01*
Y11705D01*
X12544D01*
Y11481D01*
X13187D01*
X13739Y10929D01*
Y10193D01*
X13679Y10164D01*
X13653Y10183D01*
X13562Y10221D01*
X13465Y10234D01*
X13367Y10221D01*
X13276Y10183D01*
X13198Y10123D01*
X13138Y10045D01*
X13100Y9954D01*
X13087Y9856D01*
X13100Y9759D01*
X13138Y9668D01*
X13198Y9590D01*
X13276Y9530D01*
X13367Y9492D01*
X13465Y9479D01*
X13562Y9492D01*
X13653Y9530D01*
X13679Y9549D01*
X13739Y9520D01*
Y9193D01*
X13679Y9164D01*
X13653Y9183D01*
X13562Y9221D01*
X13465Y9234D01*
X13367Y9221D01*
X13276Y9183D01*
X13275Y9182D01*
X13205Y9204D01*
X13196Y9231D01*
X13208Y9291D01*
X13196Y9351D01*
X13162Y9402D01*
X13111Y9436D01*
X13051Y9448D01*
X12991Y9436D01*
X12940Y9402D01*
X12906Y9351D01*
X12894Y9291D01*
X12906Y9231D01*
X12920Y9211D01*
Y8407D01*
X12905Y8386D01*
X12893Y8326D01*
X12905Y8266D01*
X12939Y8215D01*
X12990Y8181D01*
X13050Y8169D01*
X13110Y8181D01*
X13161Y8215D01*
X13195Y8266D01*
X13207Y8326D01*
X13195Y8386D01*
X13181Y8407D01*
Y8527D01*
X13241Y8557D01*
X13276Y8530D01*
X13367Y8492D01*
X13465Y8479D01*
X13562Y8492D01*
X13653Y8530D01*
X13679Y8549D01*
X13739Y8520D01*
Y8315D01*
X13620Y8197D01*
X13562Y8221D01*
X13465Y8234D01*
X13367Y8221D01*
X13276Y8183D01*
X13198Y8123D01*
X13138Y8045D01*
X13100Y7954D01*
X13087Y7856D01*
X13100Y7759D01*
X13138Y7668D01*
X13198Y7590D01*
X13276Y7530D01*
X13367Y7492D01*
X13465Y7479D01*
X13562Y7492D01*
X13620Y7516D01*
X13797Y7340D01*
Y7136D01*
X13737Y7116D01*
X13731Y7123D01*
X13653Y7183D01*
X13562Y7221D01*
X13465Y7234D01*
X13367Y7221D01*
X13276Y7183D01*
X13198Y7123D01*
X13138Y7045D01*
X13100Y6954D01*
X13087Y6856D01*
X13100Y6759D01*
X13138Y6668D01*
X13198Y6590D01*
X13276Y6530D01*
X13367Y6492D01*
X13465Y6479D01*
X13562Y6492D01*
X13653Y6530D01*
X13731Y6590D01*
X13737Y6597D01*
X13797Y6576D01*
Y6162D01*
X13737Y6146D01*
X13664Y6202D01*
X13568Y6241D01*
X13515Y6248D01*
Y5856D01*
Y5464D01*
X13568Y5471D01*
X13664Y5511D01*
X13737Y5567D01*
X13797Y5551D01*
Y5136D01*
X13737Y5116D01*
X13731Y5123D01*
X13653Y5183D01*
X13562Y5221D01*
X13465Y5234D01*
X13367Y5221D01*
X13276Y5183D01*
X13198Y5123D01*
X13138Y5045D01*
X13100Y4954D01*
X13087Y4856D01*
X13100Y4759D01*
X13138Y4668D01*
X13198Y4590D01*
X13276Y4530D01*
X13367Y4492D01*
X13465Y4479D01*
X13562Y4492D01*
X13653Y4530D01*
X13731Y4590D01*
X13737Y4597D01*
X13797Y4576D01*
Y4230D01*
X13091D01*
Y3482D01*
X13797D01*
Y1514D01*
X13738Y1499D01*
X13732Y1511D01*
X13636Y1628D01*
X13519Y1724D01*
X13386Y1795D01*
X13241Y1839D01*
X13091Y1854D01*
X12940Y1839D01*
X12795Y1795D01*
X12662Y1724D01*
X12545Y1628D01*
X12449Y1511D01*
X12378Y1378D01*
X12334Y1233D01*
X12319Y1083D01*
X12334Y932D01*
X12378Y787D01*
X12449Y654D01*
X12545Y537D01*
X12662Y441D01*
X12697Y423D01*
X12682Y363D01*
X9343D01*
X9325Y396D01*
X9319Y423D01*
X9362Y479D01*
X9393Y552D01*
X9396Y580D01*
X9100D01*
X8804D01*
X8808Y552D01*
X8838Y479D01*
X8881Y423D01*
X8875Y396D01*
X8857Y363D01*
X8308D01*
X8288Y423D01*
X8299Y431D01*
X8344Y489D01*
X8372Y557D01*
X8382Y630D01*
X8372Y703D01*
X8344Y770D01*
X8299Y829D01*
X8241Y873D01*
X8173Y901D01*
X8100Y911D01*
X8052Y905D01*
X7745Y1211D01*
X7753Y1247D01*
X7768Y1271D01*
X8193D01*
X8534Y930D01*
X8592Y891D01*
X8661Y877D01*
X8837D01*
X8866Y817D01*
X8838Y781D01*
X8808Y708D01*
X8804Y680D01*
X9100D01*
X9396D01*
X9393Y708D01*
X9362Y781D01*
X9314Y844D01*
X9252Y892D01*
X9196Y915D01*
X9173Y962D01*
X9169Y984D01*
X9173Y989D01*
X9182Y1036D01*
X9573Y1426D01*
X9603Y1472D01*
X9614Y1526D01*
Y2677D01*
X9603Y2731D01*
X9573Y2777D01*
X8961Y3388D01*
X8984Y3443D01*
X9010D01*
Y3839D01*
Y4234D01*
X8704D01*
Y4219D01*
X8647Y4213D01*
Y4213D01*
X8482D01*
X8463Y4252D01*
X8458Y4273D01*
X8469Y4326D01*
X8457Y4386D01*
X8423Y4437D01*
X8372Y4471D01*
X8312Y4483D01*
X8252Y4471D01*
X8201Y4437D01*
X8167Y4386D01*
X8155Y4326D01*
X8166Y4273D01*
X8161Y4252D01*
X8142Y4213D01*
X7977D01*
Y3465D01*
X8487D01*
X9333Y2619D01*
Y1584D01*
X9226Y1477D01*
X9171Y1506D01*
X9174Y1526D01*
X9161Y1594D01*
X9122Y1652D01*
Y1665D01*
X9161Y1723D01*
X9165Y1741D01*
X8828D01*
X8831Y1723D01*
X8870Y1665D01*
Y1652D01*
X8831Y1594D01*
X8828Y1576D01*
X8996D01*
Y1476D01*
X8828D01*
X8831Y1457D01*
X8870Y1399D01*
X8928Y1361D01*
X8996Y1347D01*
X9015Y1351D01*
X9045Y1296D01*
X8988Y1239D01*
X8736D01*
X8395Y1579D01*
X8337Y1619D01*
X8268Y1632D01*
X6563D01*
X6547Y1661D01*
X6539Y1692D01*
X6572Y1743D01*
X6586Y1811D01*
X6582Y1831D01*
X6594Y1833D01*
X6652Y1872D01*
X6690Y1930D01*
X6694Y1948D01*
X6526D01*
Y1998D01*
X6476D01*
Y2167D01*
X6457Y2163D01*
X6399Y2124D01*
X6361Y2066D01*
X6347Y1998D01*
X6351Y1978D01*
X6339Y1976D01*
X6281Y1937D01*
X6243Y1879D01*
X6239Y1861D01*
X6407D01*
Y1761D01*
X6239D01*
X6243Y1743D01*
X6276Y1692D01*
X6268Y1661D01*
X6252Y1632D01*
X6169D01*
Y2554D01*
X6356D01*
X6358Y2554D01*
X6416Y2548D01*
Y2533D01*
X6722D01*
Y2928D01*
Y3323D01*
X6416D01*
Y3308D01*
X6358Y3302D01*
X6356Y3302D01*
X6164D01*
Y3415D01*
X6356D01*
X6358Y3415D01*
X6416Y3409D01*
Y3394D01*
X6722D01*
Y3789D01*
Y4185D01*
X6416D01*
Y4169D01*
X6358Y4163D01*
X6356Y4163D01*
X6095D01*
Y4289D01*
X6100Y4295D01*
X6111Y4355D01*
X6100Y4415D01*
X6066Y4466D01*
X6015Y4500D01*
X5955Y4512D01*
X5895Y4500D01*
X5844Y4466D01*
X5810Y4415D01*
X5798Y4355D01*
X5810Y4295D01*
X5814Y4289D01*
Y4163D01*
X5689D01*
Y3415D01*
X5883D01*
Y3302D01*
X5689D01*
Y2554D01*
X5888D01*
Y1632D01*
X2265D01*
X2031Y1867D01*
Y2829D01*
X2086Y2844D01*
X2091Y2843D01*
X2128Y2787D01*
X2186Y2749D01*
X2204Y2745D01*
Y2913D01*
Y3082D01*
X2186Y3078D01*
X2128Y3040D01*
X2091Y2984D01*
X2086Y2983D01*
X2031Y2997D01*
Y3550D01*
Y4503D01*
X2091Y4521D01*
X2098Y4510D01*
X2156Y4471D01*
X2174Y4467D01*
Y4636D01*
Y4804D01*
X2156Y4801D01*
X2098Y4762D01*
X2091Y4751D01*
X2031Y4769D01*
Y4975D01*
X2031Y4975D01*
Y5869D01*
X3171D01*
X3240Y5883D01*
X3299Y5922D01*
X3745Y6368D01*
X3784Y6427D01*
X3798Y6496D01*
Y8067D01*
X3858Y8085D01*
X3875Y8058D01*
X3926Y8024D01*
X3981Y8014D01*
Y7941D01*
X3981Y7938D01*
X3975Y7881D01*
X3960D01*
Y7575D01*
X4355D01*
Y7525D01*
X4405D01*
Y7169D01*
X4723D01*
X4751Y7169D01*
X4783Y7122D01*
Y6880D01*
X5086D01*
Y6781D01*
X4665D01*
Y5994D01*
X5633D01*
X5665Y5934D01*
X5652Y5915D01*
X5648Y5896D01*
X5817D01*
Y5796D01*
X5648D01*
X5652Y5778D01*
X5677Y5741D01*
X5650Y5681D01*
X5267D01*
Y5316D01*
X5789D01*
Y5626D01*
X5819Y5643D01*
X5874Y5606D01*
Y5316D01*
X6397D01*
Y5681D01*
X6220D01*
X6193Y5741D01*
X6218Y5778D01*
X6222Y5796D01*
X6053D01*
Y5896D01*
X6222D01*
X6218Y5915D01*
X6205Y5934D01*
X6237Y5994D01*
X6998D01*
Y6781D01*
X6577D01*
Y6880D01*
X6880D01*
Y7667D01*
X6401D01*
X6369Y7727D01*
X6375Y7737D01*
X6379Y7755D01*
X6211D01*
Y7855D01*
X6379D01*
X6375Y7873D01*
X6343Y7922D01*
X6353Y7957D01*
X6368Y7982D01*
X6880D01*
Y8728D01*
X7244D01*
Y7972D01*
X8078D01*
Y7657D01*
X7244D01*
Y6870D01*
X7547D01*
Y6781D01*
X7126D01*
Y5994D01*
X8178D01*
X8182Y5973D01*
X8216Y5923D01*
X8267Y5889D01*
X8327Y5877D01*
X8345Y5880D01*
X8365Y5861D01*
X8387Y5827D01*
X8377Y5778D01*
X8389Y5718D01*
X8423Y5667D01*
X8473Y5633D01*
X8533Y5621D01*
X8593Y5633D01*
X8615Y5647D01*
X10176D01*
X10204Y5587D01*
X10180Y5551D01*
X10176Y5532D01*
X10344D01*
Y5432D01*
X10176D01*
X10180Y5414D01*
X10218Y5356D01*
Y5323D01*
X10180Y5265D01*
X10176Y5247D01*
X10344D01*
Y5197D01*
X10394D01*
Y5028D01*
X10413Y5032D01*
X10471Y5071D01*
X10484Y5090D01*
X10527Y5092D01*
X10572Y5049D01*
X10584Y4989D01*
X10598Y4968D01*
Y4793D01*
X10499D01*
X10437Y4856D01*
X10394Y4884D01*
X10344Y4894D01*
X10298D01*
X10277Y4909D01*
X10217Y4921D01*
X10157Y4909D01*
X10106Y4875D01*
X10072Y4824D01*
X10064Y4786D01*
X10057Y4774D01*
X10047Y4724D01*
Y4360D01*
X10022D01*
Y4097D01*
X9737D01*
X9717Y4127D01*
X9666Y4161D01*
X9606Y4173D01*
X9546Y4161D01*
X9495Y4127D01*
X9476Y4097D01*
X9416Y4116D01*
Y4234D01*
X9110D01*
Y3889D01*
X9416D01*
Y3916D01*
X9476Y3934D01*
X9495Y3905D01*
X9546Y3871D01*
X9578Y3865D01*
X9606Y3846D01*
X9656Y3836D01*
X10022D01*
Y3809D01*
X10313D01*
Y3690D01*
X10492D01*
Y3640D01*
X10542D01*
Y3355D01*
X10671D01*
Y3357D01*
X10678D01*
Y3644D01*
X10778D01*
Y3357D01*
X10834D01*
Y3179D01*
X10751D01*
X10748Y3179D01*
X10691Y3185D01*
Y3200D01*
X10385D01*
Y2805D01*
Y2410D01*
X10691D01*
Y2425D01*
X10748Y2431D01*
X10751Y2431D01*
X10942D01*
Y2370D01*
X10928Y2348D01*
X10916Y2288D01*
X10928Y2228D01*
X10962Y2178D01*
X11013Y2144D01*
X11073Y2132D01*
X11133Y2144D01*
X11184Y2178D01*
X11218Y2228D01*
X11230Y2288D01*
X11218Y2348D01*
X11203Y2370D01*
Y2431D01*
X11417D01*
Y2958D01*
X11439Y2991D01*
X11449Y3041D01*
Y3942D01*
X11454Y3966D01*
X11445Y4012D01*
X11445Y4019D01*
X11472Y4072D01*
X11526D01*
X11576Y4082D01*
X11618Y4110D01*
X11646Y4153D01*
X11656Y4203D01*
Y4559D01*
X11661Y4566D01*
X11673Y4626D01*
X11661Y4686D01*
X11656Y4693D01*
Y5059D01*
X12057D01*
X12068Y5051D01*
X12069Y5051D01*
X12127Y5012D01*
X12145Y5009D01*
Y5177D01*
X12195D01*
Y5227D01*
X12363D01*
X12360Y5245D01*
X12344Y5270D01*
X12326Y5315D01*
X12344Y5360D01*
X12360Y5384D01*
X12363Y5403D01*
X12195D01*
Y5453D01*
X12145D01*
Y5621D01*
X12127Y5618D01*
X12117Y5611D01*
X12057Y5643D01*
Y5807D01*
X12058Y5808D01*
X12087Y5856D01*
X12144Y5850D01*
Y5835D01*
X12450D01*
Y6230D01*
X12500D01*
Y6280D01*
X12856D01*
Y6603D01*
X12885D01*
Y6909D01*
X12490D01*
Y7009D01*
X12885D01*
Y7315D01*
X12870D01*
X12864Y7372D01*
X12864D01*
Y8041D01*
X12740D01*
Y8425D01*
Y10251D01*
X12726Y10320D01*
X12687Y10379D01*
X12677Y10389D01*
X12618Y10428D01*
X12549Y10441D01*
X12254D01*
X12185Y10428D01*
X12126Y10389D01*
X12087Y10330D01*
X12073Y10261D01*
X12087Y10192D01*
X12126Y10133D01*
X12185Y10094D01*
X12254Y10080D01*
X12378D01*
Y8425D01*
Y8041D01*
X12116D01*
Y8041D01*
X12106D01*
Y8041D01*
X11739D01*
X11714Y8101D01*
X11831Y8219D01*
X12215D01*
Y8885D01*
X12215Y8888D01*
X12221Y8945D01*
X12236D01*
Y9251D01*
X11445D01*
Y8945D01*
X11460D01*
X11467Y8888D01*
X11467Y8885D01*
Y8280D01*
X11358D01*
X11308Y8270D01*
X11302Y8266D01*
X11249Y8294D01*
X11262Y8344D01*
X11358D01*
Y9011D01*
X11358Y9014D01*
X11364Y9071D01*
X11380D01*
Y9377D01*
X10984D01*
X10589D01*
Y9071D01*
X10604D01*
X10610Y9014D01*
X10610Y9011D01*
Y8810D01*
X9830D01*
X9423Y9216D01*
X9860Y9653D01*
X9899Y9712D01*
X9912Y9781D01*
Y9878D01*
X10114Y10080D01*
X10605D01*
X10674Y10094D01*
X10733Y10133D01*
X10772Y10192D01*
X10786Y10261D01*
X10772Y10330D01*
X10733Y10389D01*
X10674Y10428D01*
X10605Y10441D01*
X10227D01*
X7264Y13405D01*
X7205Y13444D01*
X7136Y13458D01*
X7087D01*
Y13533D01*
X6339D01*
Y13022D01*
X7087D01*
Y13022D01*
X7122Y13036D01*
X9841Y10317D01*
X9604Y10081D01*
X9575Y10038D01*
X9519Y10029D01*
X9505Y10031D01*
X9460Y10061D01*
X9400Y10073D01*
X9340Y10061D01*
X9289Y10027D01*
X9255Y9976D01*
X9250Y9951D01*
X9166Y9868D01*
X6758D01*
X6720Y9914D01*
X6722Y9921D01*
X6713Y9964D01*
X6838Y10089D01*
X7372D01*
Y10876D01*
X6506D01*
Y10125D01*
X6473Y10092D01*
X6444Y10050D01*
X6435Y10004D01*
X6420Y9981D01*
X6408Y9921D01*
X6410Y9914D01*
X6372Y9868D01*
X6250D01*
X6247Y9883D01*
X6213Y9934D01*
X6162Y9968D01*
X6102Y9980D01*
X6102Y9979D01*
X6051Y10030D01*
X6052Y10039D01*
X6089Y10089D01*
X6355D01*
Y10876D01*
X6129D01*
X6097Y10936D01*
X6110Y10955D01*
X6113Y10974D01*
X5945D01*
Y11074D01*
X6113D01*
X6110Y11092D01*
X6084Y11131D01*
X6108Y11189D01*
X6110Y11191D01*
X6355D01*
Y11978D01*
X6052D01*
Y12848D01*
X6042Y12898D01*
X6014Y12940D01*
X5866Y13088D01*
Y13533D01*
X5722D01*
X5690Y13593D01*
X5696Y13603D01*
X5700Y13621D01*
X5531D01*
Y13671D01*
X5482D01*
Y13840D01*
X5463Y13836D01*
X5439Y13820D01*
X5394Y13802D01*
X5348Y13820D01*
X5324Y13836D01*
X5306Y13840D01*
Y13671D01*
X5256D01*
Y13621D01*
X5087D01*
X5091Y13603D01*
X5100Y13589D01*
X5118Y13533D01*
X5118Y13533D01*
X5118Y13533D01*
Y13022D01*
X5564D01*
X5666Y12920D01*
X5643Y12864D01*
X5118D01*
Y12419D01*
X4967Y12267D01*
X4939Y12225D01*
X4929Y12175D01*
Y11978D01*
X4472D01*
Y11191D01*
X5338D01*
Y11978D01*
X5190D01*
Y12121D01*
X5421Y12352D01*
X5791D01*
Y11978D01*
X5489D01*
Y11191D01*
X5489Y11191D01*
X5483Y11133D01*
X5455Y11092D01*
X5452Y11074D01*
X5620D01*
Y10974D01*
X5452D01*
X5455Y10955D01*
X5471Y10932D01*
X5489Y10876D01*
X5489Y10876D01*
X5489Y10876D01*
Y10186D01*
X5453Y10157D01*
X5421Y10150D01*
X5338Y10234D01*
Y10876D01*
X4472D01*
Y10089D01*
X5114D01*
X5295Y9908D01*
X5337Y9879D01*
X5365Y9874D01*
X5393Y9855D01*
X5453Y9843D01*
X5513Y9855D01*
X5564Y9889D01*
X5598Y9940D01*
X5610Y10000D01*
X5604Y10029D01*
X5644Y10087D01*
X5702Y10088D01*
X5739Y10042D01*
X5739Y10039D01*
X5751Y9979D01*
X5785Y9929D01*
X5836Y9895D01*
X5896Y9883D01*
X5896Y9883D01*
X5947Y9832D01*
X5946Y9823D01*
X5958Y9763D01*
X5992Y9712D01*
X5996Y9709D01*
X5978Y9649D01*
X5482D01*
X5413Y9635D01*
X5359Y9599D01*
X5335Y9616D01*
X5266Y9629D01*
X5121D01*
X5089Y9689D01*
X5105Y9714D01*
X5117Y9774D01*
X5105Y9834D01*
X5071Y9884D01*
X5021Y9918D01*
X4961Y9930D01*
X4901Y9918D01*
X4879Y9904D01*
X4542D01*
X4321Y10125D01*
Y10876D01*
X4115D01*
X4099Y10901D01*
X4089Y10936D01*
X4122Y10985D01*
X4125Y11003D01*
X3957D01*
Y11103D01*
X4125D01*
X4122Y11121D01*
X4115Y11131D01*
X4147Y11191D01*
X4321D01*
Y11939D01*
X4341D01*
Y12726D01*
X4194D01*
X4163Y12786D01*
X4165Y12794D01*
X3996D01*
Y12894D01*
X4165D01*
X4161Y12913D01*
X4122Y12971D01*
X4109Y12980D01*
X4127Y13040D01*
X4362D01*
Y13405D01*
X3789D01*
X3217D01*
Y13040D01*
X3531D01*
X3549Y12980D01*
X3535Y12971D01*
X3497Y12913D01*
X3493Y12894D01*
X3661D01*
Y12794D01*
X3493D01*
X3495Y12786D01*
X3463Y12726D01*
X3238D01*
Y11939D01*
X3455D01*
Y11191D01*
X3520D01*
X3552Y11131D01*
X3546Y11121D01*
X3542Y11103D01*
X3711D01*
Y11003D01*
X3542D01*
X3546Y10985D01*
X3578Y10936D01*
X3568Y10901D01*
X3553Y10876D01*
X3455D01*
Y10089D01*
X3989D01*
X4388Y9689D01*
X4382Y9657D01*
X4366Y9629D01*
X4355D01*
X4286Y9616D01*
X4228Y9577D01*
X3489Y8838D01*
X3450Y8780D01*
X3436Y8711D01*
Y8095D01*
Y6571D01*
X3096Y6231D01*
X1950D01*
X1881Y6217D01*
X1822Y6178D01*
X1722Y6078D01*
X1683Y6019D01*
X1669Y5950D01*
Y4975D01*
X1669Y4975D01*
Y3550D01*
Y1792D01*
X1683Y1723D01*
X1722Y1664D01*
X2062Y1324D01*
X2121Y1285D01*
X2190Y1271D01*
X2240D01*
Y940D01*
X2046D01*
Y197D01*
X1051D01*
X1030Y257D01*
X1074Y290D01*
X1134Y368D01*
X1171Y459D01*
X1184Y557D01*
X1171Y655D01*
X1161Y681D01*
X1442Y962D01*
X1471Y1005D01*
X1480Y1055D01*
Y5991D01*
X2659Y7170D01*
X3069D01*
X3090Y7155D01*
X3150Y7143D01*
X3210Y7155D01*
X3261Y7189D01*
X3295Y7240D01*
X3307Y7300D01*
X3295Y7360D01*
X3261Y7411D01*
X3243Y7423D01*
X3241Y7446D01*
X3250Y7490D01*
X3290Y7517D01*
X3324Y7568D01*
X3336Y7628D01*
X3324Y7688D01*
X3290Y7739D01*
X3239Y7773D01*
X3179Y7785D01*
X3119Y7773D01*
X3098Y7758D01*
X2786D01*
X2756Y7818D01*
X2779Y7848D01*
X2809Y7921D01*
X2813Y7949D01*
X2221D01*
X2224Y7921D01*
X2255Y7848D01*
X2303Y7785D01*
X2365Y7737D01*
X2438Y7707D01*
X2509Y7697D01*
X2523Y7675D01*
X2534Y7638D01*
X1237Y6340D01*
X1181Y6363D01*
Y6931D01*
X433D01*
Y6183D01*
X1001D01*
X1024Y6128D01*
X828Y5932D01*
X807Y5934D01*
X709Y5921D01*
X618Y5884D01*
X540Y5824D01*
X480Y5746D01*
X443Y5655D01*
X430Y5557D01*
X443Y5459D01*
X480Y5368D01*
X540Y5290D01*
X618Y5230D01*
X709Y5193D01*
X807Y5180D01*
X905Y5193D01*
X996Y5230D01*
X1074Y5290D01*
X1134Y5368D01*
X1160Y5431D01*
X1220Y5419D01*
Y4751D01*
X1160Y4739D01*
X1152Y4756D01*
X1089Y4839D01*
X1006Y4902D01*
X910Y4942D01*
X857Y4949D01*
Y4557D01*
Y4165D01*
X910Y4172D01*
X1006Y4212D01*
X1089Y4275D01*
X1152Y4358D01*
X1160Y4375D01*
X1220Y4363D01*
Y3695D01*
X1160Y3684D01*
X1134Y3746D01*
X1074Y3824D01*
X996Y3884D01*
X905Y3921D01*
X807Y3934D01*
X709Y3921D01*
X618Y3884D01*
X540Y3824D01*
X480Y3746D01*
X443Y3655D01*
X430Y3557D01*
X443Y3459D01*
X480Y3368D01*
X540Y3290D01*
X618Y3230D01*
X709Y3193D01*
X807Y3180D01*
X905Y3193D01*
X996Y3230D01*
X1074Y3290D01*
X1134Y3368D01*
X1160Y3431D01*
X1220Y3419D01*
Y2695D01*
X1160Y2684D01*
X1134Y2746D01*
X1074Y2824D01*
X996Y2884D01*
X905Y2921D01*
X807Y2934D01*
X709Y2921D01*
X651Y2897D01*
X330Y3219D01*
Y6945D01*
X404Y7020D01*
X1519D01*
X1540Y7005D01*
X1600Y6993D01*
X1660Y7005D01*
X1711Y7039D01*
X1745Y7090D01*
X1757Y7150D01*
X1745Y7210D01*
X1711Y7261D01*
X1660Y7295D01*
X1600Y7307D01*
X1540Y7295D01*
X1519Y7280D01*
X350D01*
X300Y7271D01*
X258Y7242D01*
X252Y7237D01*
X197Y7260D01*
Y7677D01*
X257Y7720D01*
X795D01*
Y8278D01*
X257D01*
X238Y8278D01*
X197Y8321D01*
Y8677D01*
X257Y8720D01*
X795D01*
Y9278D01*
X257D01*
X238Y9278D01*
X197Y9321D01*
Y9677D01*
X257Y9720D01*
X795D01*
Y10278D01*
X257D01*
X238Y10278D01*
X197Y10321D01*
Y10677D01*
X257Y10720D01*
X795D01*
Y11278D01*
X257D01*
X238Y11278D01*
X197Y11321D01*
Y13964D01*
X13934Y13988D01*
X13976Y13946D01*
D02*
G37*
G36*
X9075Y9124D02*
X9134Y9085D01*
X9198Y9072D01*
X9683Y8587D01*
X9726Y8559D01*
X9776Y8549D01*
X9880D01*
X9897Y8508D01*
X9901Y8489D01*
X9865Y8434D01*
X9861Y8416D01*
X10030D01*
Y8316D01*
X9861D01*
X9863Y8307D01*
X9804Y8295D01*
X9746Y8256D01*
X9707Y8198D01*
X9697Y8147D01*
X9680Y8135D01*
X9652Y8124D01*
X9635Y8121D01*
X9597Y8147D01*
X9537Y8159D01*
X9477Y8147D01*
X9427Y8113D01*
X9393Y8062D01*
X9383Y8012D01*
X9042Y7671D01*
X9013Y7629D01*
X9003Y7579D01*
Y7333D01*
X9013Y7283D01*
X9042Y7240D01*
X9145Y7137D01*
X9122Y7081D01*
X8813D01*
Y7704D01*
X8828Y7725D01*
X8840Y7785D01*
X8828Y7845D01*
X8794Y7896D01*
X8743Y7930D01*
X8683Y7942D01*
X8656Y7937D01*
X8647Y7938D01*
X8639Y7963D01*
X8639Y7966D01*
X8678Y8027D01*
X8704Y8032D01*
X8755Y8066D01*
X8789Y8117D01*
X8800Y8177D01*
X8789Y8237D01*
X8755Y8288D01*
X8704Y8322D01*
X8644Y8334D01*
X8584Y8322D01*
X8562Y8308D01*
X8366D01*
X8316Y8298D01*
X8274Y8269D01*
X8170Y8166D01*
X8110Y8191D01*
Y8760D01*
X7665D01*
X7474Y8951D01*
X7432Y8979D01*
X7382Y8989D01*
X6012D01*
X5990Y9003D01*
X5930Y9015D01*
X5870Y9003D01*
X5819Y8969D01*
X5785Y8918D01*
X5773Y8858D01*
X5785Y8798D01*
X5819Y8747D01*
X5870Y8713D01*
X5895Y8709D01*
X5922Y8643D01*
X5908Y8623D01*
X5896Y8563D01*
X5908Y8503D01*
X5942Y8452D01*
X5993Y8418D01*
X6014Y8414D01*
Y7982D01*
X6053D01*
X6068Y7957D01*
X6078Y7922D01*
X6046Y7873D01*
X6044Y7866D01*
X5983D01*
X5982Y7873D01*
X5943Y7931D01*
X5885Y7970D01*
X5867Y7974D01*
Y7805D01*
Y7637D01*
X5885Y7640D01*
X5943Y7679D01*
X5953Y7694D01*
X6010Y7692D01*
X6014Y7667D01*
X6014D01*
Y6880D01*
X6316D01*
Y6781D01*
X5896D01*
Y6070D01*
X5836Y6021D01*
X5817Y6025D01*
X5814Y6024D01*
X5768Y6062D01*
Y6781D01*
X5347D01*
Y6880D01*
X5650D01*
Y7640D01*
X5651Y7642D01*
X5710Y7666D01*
X5749Y7640D01*
X5767Y7637D01*
Y7755D01*
X5648D01*
X5652Y7737D01*
X5662Y7722D01*
X5626Y7667D01*
X4811D01*
X4783Y7667D01*
X4751Y7714D01*
Y7881D01*
X4735D01*
X4729Y7938D01*
X4729Y7941D01*
Y7968D01*
X4783Y7982D01*
X4789Y7982D01*
X5650D01*
Y8770D01*
X5446D01*
Y9177D01*
X5557Y9288D01*
X8911D01*
X9075Y9124D01*
D02*
G37*
G36*
X6520Y842D02*
X6494Y824D01*
X6460Y774D01*
X6448Y714D01*
X6460Y654D01*
X6484Y617D01*
Y236D01*
X6452Y197D01*
X5687D01*
X5667Y257D01*
X5702Y284D01*
X5766Y367D01*
X5805Y463D01*
X5812Y516D01*
X5420D01*
Y616D01*
X5812D01*
X5805Y669D01*
X5766Y765D01*
X5707Y842D01*
X5717Y891D01*
X5721Y902D01*
X6502D01*
X6520Y842D01*
D02*
G37*
%LPC*%
G36*
X757Y1507D02*
X415D01*
X422Y1454D01*
X462Y1358D01*
X525Y1275D01*
X608Y1212D01*
X704Y1172D01*
X757Y1165D01*
Y1507D01*
D02*
G37*
G36*
Y1949D02*
X704Y1942D01*
X608Y1902D01*
X525Y1839D01*
X462Y1756D01*
X422Y1660D01*
X415Y1607D01*
X757D01*
Y1949D01*
D02*
G37*
G36*
X5789Y5216D02*
X5267D01*
Y4851D01*
X5789D01*
Y5216D01*
D02*
G37*
G36*
X7128Y4185D02*
X6822D01*
Y3839D01*
X7128D01*
Y4185D01*
D02*
G37*
G36*
X11840Y3985D02*
X11721D01*
X11725Y3967D01*
X11764Y3909D01*
X11821Y3871D01*
X11840Y3867D01*
Y3985D01*
D02*
G37*
G36*
X12235Y4204D02*
Y4085D01*
X12354D01*
X12350Y4104D01*
X12311Y4162D01*
X12253Y4200D01*
X12235Y4204D01*
D02*
G37*
G36*
X11840D02*
X11821Y4200D01*
X11764Y4162D01*
X11725Y4104D01*
X11721Y4085D01*
X11840D01*
Y4204D01*
D02*
G37*
G36*
X12354Y3985D02*
X12235D01*
Y3867D01*
X12253Y3871D01*
X12311Y3909D01*
X12350Y3967D01*
X12354Y3985D01*
D02*
G37*
G36*
X7128Y3323D02*
X6822D01*
Y2978D01*
X7128D01*
Y3323D01*
D02*
G37*
G36*
X2560Y3082D02*
Y2963D01*
X2678D01*
X2675Y2982D01*
X2636Y3040D01*
X2578Y3078D01*
X2560Y3082D01*
D02*
G37*
G36*
X9854Y3011D02*
X9735D01*
Y2893D01*
X9753Y2896D01*
X9811Y2935D01*
X9850Y2993D01*
X9854Y3011D01*
D02*
G37*
G36*
X2460Y3082D02*
X2442Y3078D01*
X2384Y3040D01*
X2380D01*
X2322Y3078D01*
X2304Y3082D01*
Y2913D01*
Y2745D01*
X2322Y2749D01*
X2380Y2787D01*
X2384D01*
X2442Y2749D01*
X2460Y2745D01*
Y2913D01*
Y3082D01*
D02*
G37*
G36*
X7128Y3739D02*
X6822D01*
Y3394D01*
X7128D01*
Y3739D01*
D02*
G37*
G36*
X10442Y3590D02*
X10313D01*
Y3355D01*
X10442D01*
Y3590D01*
D02*
G37*
G36*
X9416Y3789D02*
X9110D01*
Y3443D01*
X9343D01*
X9362Y3384D01*
X9323Y3326D01*
X9320Y3308D01*
X9438D01*
Y3463D01*
X9416Y3483D01*
Y3789D01*
D02*
G37*
G36*
X12135Y4204D02*
X12117Y4200D01*
X12059Y4162D01*
X12016D01*
X11958Y4200D01*
X11940Y4204D01*
Y4035D01*
Y3867D01*
X11958Y3871D01*
X12016Y3909D01*
X12059D01*
X12117Y3871D01*
X12135Y3867D01*
Y4035D01*
Y4204D01*
D02*
G37*
G36*
X757Y4949D02*
X704Y4942D01*
X608Y4902D01*
X525Y4839D01*
X462Y4756D01*
X422Y4660D01*
X415Y4607D01*
X757D01*
Y4949D01*
D02*
G37*
G36*
X8948Y4802D02*
X8611D01*
X8615Y4784D01*
X8653Y4726D01*
X8655Y4725D01*
Y4665D01*
X8653Y4664D01*
X8615Y4606D01*
X8611Y4587D01*
X8948D01*
X8944Y4606D01*
X8906Y4664D01*
X8904Y4665D01*
Y4725D01*
X8906Y4726D01*
X8944Y4784D01*
X8948Y4802D01*
D02*
G37*
G36*
X4460Y4625D02*
X4341D01*
Y4507D01*
X4360Y4510D01*
X4418Y4549D01*
X4456Y4607D01*
X4460Y4625D01*
D02*
G37*
G36*
X2580Y4804D02*
Y4686D01*
X2698D01*
X2694Y4704D01*
X2656Y4762D01*
X2598Y4801D01*
X2580Y4804D01*
D02*
G37*
G36*
X2480D02*
X2461Y4801D01*
X2417Y4771D01*
X2377Y4766D01*
X2337Y4771D01*
X2293Y4801D01*
X2274Y4804D01*
Y4636D01*
Y4467D01*
X2293Y4471D01*
X2337Y4501D01*
X2377Y4506D01*
X2417Y4501D01*
X2461Y4471D01*
X2480Y4467D01*
Y4636D01*
Y4804D01*
D02*
G37*
G36*
X4341Y4844D02*
Y4725D01*
X4460D01*
X4456Y4743D01*
X4418Y4801D01*
X4360Y4840D01*
X4341Y4844D01*
D02*
G37*
G36*
X4025D02*
X4007Y4840D01*
X3949Y4801D01*
X3910Y4743D01*
X3906Y4725D01*
X4025D01*
Y4844D01*
D02*
G37*
G36*
X757Y4507D02*
X415D01*
X422Y4454D01*
X462Y4358D01*
X525Y4275D01*
X608Y4212D01*
X704Y4172D01*
X757Y4165D01*
Y4507D01*
D02*
G37*
G36*
X4241Y4844D02*
X4223Y4840D01*
X4183Y4813D01*
X4143Y4840D01*
X4125Y4844D01*
Y4675D01*
Y4507D01*
X4143Y4510D01*
X4183Y4537D01*
X4223Y4510D01*
X4241Y4507D01*
Y4675D01*
Y4844D01*
D02*
G37*
G36*
X5167Y5216D02*
X4644D01*
Y4851D01*
X5167D01*
Y5216D01*
D02*
G37*
G36*
X8730Y4487D02*
X8611D01*
X8615Y4469D01*
X8653Y4411D01*
X8711Y4373D01*
X8730Y4369D01*
Y4487D01*
D02*
G37*
G36*
X4025Y4625D02*
X3906D01*
X3910Y4607D01*
X3949Y4549D01*
X4007Y4510D01*
X4025Y4507D01*
Y4625D01*
D02*
G37*
G36*
X2698Y4586D02*
X2580D01*
Y4467D01*
X2598Y4471D01*
X2656Y4510D01*
X2694Y4568D01*
X2698Y4586D01*
D02*
G37*
G36*
X8948Y4487D02*
X8830D01*
Y4369D01*
X8848Y4373D01*
X8906Y4411D01*
X8944Y4469D01*
X8948Y4487D01*
D02*
G37*
G36*
X9538Y3426D02*
Y3258D01*
X9488D01*
Y3208D01*
X9320D01*
X9323Y3190D01*
X9362Y3132D01*
X9420Y3093D01*
X9451Y3087D01*
X9494Y3067D01*
X9514Y3023D01*
X9520Y2993D01*
X9559Y2935D01*
X9617Y2896D01*
X9635Y2893D01*
Y3061D01*
X9685D01*
Y3111D01*
X9854D01*
X9850Y3129D01*
X9811Y3187D01*
X9753Y3226D01*
X9723Y3232D01*
X9679Y3252D01*
X9659Y3295D01*
X9653Y3326D01*
X9614Y3384D01*
X9556Y3423D01*
X9538Y3426D01*
D02*
G37*
G36*
X1733Y848D02*
Y729D01*
X1852D01*
X1848Y747D01*
X1809Y805D01*
X1751Y844D01*
X1733Y848D01*
D02*
G37*
G36*
X11044Y818D02*
Y700D01*
X11163D01*
X11159Y718D01*
X11120Y776D01*
X11062Y814D01*
X11044Y818D01*
D02*
G37*
G36*
X10944D02*
X10926Y814D01*
X10868Y776D01*
X10829Y718D01*
X10826Y700D01*
X10944D01*
Y818D01*
D02*
G37*
G36*
X10267Y1535D02*
X10148D01*
Y1416D01*
X10167Y1420D01*
X10225Y1458D01*
X10263Y1516D01*
X10267Y1535D01*
D02*
G37*
G36*
X10048D02*
X9930D01*
X9934Y1516D01*
X9972Y1458D01*
X10030Y1420D01*
X10048Y1416D01*
Y1535D01*
D02*
G37*
G36*
X10493Y808D02*
Y690D01*
X10611D01*
X10608Y708D01*
X10569Y766D01*
X10511Y805D01*
X10493Y808D01*
D02*
G37*
G36*
X10393Y590D02*
X10274D01*
X10278Y571D01*
X10317Y514D01*
X10375Y475D01*
X10393Y471D01*
Y590D01*
D02*
G37*
G36*
X1633Y848D02*
X1615Y844D01*
X1557Y805D01*
X1518Y747D01*
X1505Y680D01*
X1438Y667D01*
X1380Y628D01*
X1341Y570D01*
X1337Y552D01*
X1506D01*
Y502D01*
X1556D01*
Y333D01*
X1574Y337D01*
X1632Y376D01*
X1671Y434D01*
X1684Y501D01*
X1751Y514D01*
X1809Y553D01*
X1848Y611D01*
X1852Y629D01*
X1683D01*
Y679D01*
X1633D01*
Y848D01*
D02*
G37*
G36*
X1456Y452D02*
X1337D01*
X1341Y434D01*
X1380Y376D01*
X1438Y337D01*
X1456Y333D01*
Y452D01*
D02*
G37*
G36*
X10611Y590D02*
X10493D01*
Y471D01*
X10511Y475D01*
X10569Y514D01*
X10608Y571D01*
X10611Y590D01*
D02*
G37*
G36*
X10393Y808D02*
X10375Y805D01*
X10317Y766D01*
X10278Y708D01*
X10274Y690D01*
X10393D01*
Y808D01*
D02*
G37*
G36*
X11163Y600D02*
X11044D01*
Y481D01*
X11062Y485D01*
X11120Y523D01*
X11159Y581D01*
X11163Y600D01*
D02*
G37*
G36*
X10944D02*
X10826D01*
X10829Y581D01*
X10868Y523D01*
X10926Y485D01*
X10944Y481D01*
Y600D01*
D02*
G37*
G36*
X11761Y2580D02*
X11743Y2576D01*
X11685Y2538D01*
X11646Y2480D01*
X11643Y2461D01*
X11761D01*
Y2580D01*
D02*
G37*
G36*
X10285Y2755D02*
X9979D01*
Y2410D01*
X10285D01*
Y2755D01*
D02*
G37*
G36*
X11980Y2361D02*
X11643D01*
X11646Y2343D01*
X11685Y2285D01*
X11692Y2280D01*
Y2208D01*
X11685Y2203D01*
X11646Y2145D01*
X11643Y2127D01*
X11980D01*
X11976Y2145D01*
X11937Y2203D01*
X11930Y2208D01*
Y2280D01*
X11937Y2285D01*
X11976Y2343D01*
X11980Y2361D01*
D02*
G37*
G36*
X11861Y2580D02*
Y2461D01*
X11980D01*
X11976Y2480D01*
X11937Y2538D01*
X11879Y2576D01*
X11861Y2580D01*
D02*
G37*
G36*
X10285Y3200D02*
X9979D01*
Y2855D01*
X10285D01*
Y3200D01*
D02*
G37*
G36*
X2678Y2863D02*
X2560D01*
Y2745D01*
X2578Y2749D01*
X2636Y2787D01*
X2675Y2845D01*
X2678Y2863D01*
D02*
G37*
G36*
X7128Y2878D02*
X6822D01*
Y2533D01*
X7128D01*
Y2878D01*
D02*
G37*
G36*
X6576Y2167D02*
Y2048D01*
X6694D01*
X6690Y2066D01*
X6652Y2124D01*
X6594Y2163D01*
X6576Y2167D01*
D02*
G37*
G36*
X9046Y1960D02*
Y1841D01*
X9165D01*
X9161Y1860D01*
X9122Y1918D01*
X9064Y1956D01*
X9046Y1960D01*
D02*
G37*
G36*
X8946D02*
X8928Y1956D01*
X8870Y1918D01*
X8831Y1860D01*
X8828Y1841D01*
X8946D01*
Y1960D01*
D02*
G37*
G36*
X10267Y1800D02*
X9930D01*
X9934Y1782D01*
X9972Y1724D01*
Y1711D01*
X9934Y1653D01*
X9930Y1635D01*
X10267D01*
X10263Y1653D01*
X10225Y1711D01*
Y1724D01*
X10263Y1782D01*
X10267Y1800D01*
D02*
G37*
G36*
X10048Y2019D02*
X10030Y2015D01*
X9972Y1977D01*
X9934Y1919D01*
X9930Y1900D01*
X10048D01*
Y2019D01*
D02*
G37*
G36*
X11980Y2027D02*
X11861D01*
Y1908D01*
X11879Y1912D01*
X11937Y1951D01*
X11976Y2008D01*
X11980Y2027D01*
D02*
G37*
G36*
X11761D02*
X11643D01*
X11646Y2008D01*
X11685Y1951D01*
X11743Y1912D01*
X11761Y1908D01*
Y2027D01*
D02*
G37*
G36*
X10148Y2019D02*
Y1900D01*
X10267D01*
X10263Y1919D01*
X10225Y1977D01*
X10167Y2015D01*
X10148Y2019D01*
D02*
G37*
G36*
X6397Y5216D02*
X5874D01*
Y4851D01*
X6397D01*
Y5216D01*
D02*
G37*
G36*
X12255Y12570D02*
Y12452D01*
X12373D01*
X12370Y12470D01*
X12331Y12528D01*
X12273Y12566D01*
X12255Y12570D01*
D02*
G37*
G36*
X12155D02*
X12136Y12566D01*
X12079Y12528D01*
X12040Y12470D01*
X12036Y12452D01*
X12155D01*
Y12570D01*
D02*
G37*
G36*
X1083Y13862D02*
X932Y13847D01*
X787Y13803D01*
X654Y13732D01*
X537Y13636D01*
X441Y13519D01*
X370Y13386D01*
X326Y13241D01*
X311Y13091D01*
X326Y12940D01*
X370Y12795D01*
X441Y12662D01*
X537Y12545D01*
X654Y12449D01*
X787Y12378D01*
X932Y12334D01*
X1083Y12319D01*
X1233Y12334D01*
X1378Y12378D01*
X1511Y12449D01*
X1628Y12545D01*
X1724Y12662D01*
X1795Y12795D01*
X1839Y12940D01*
X1854Y13091D01*
X1839Y13241D01*
X1795Y13386D01*
X1724Y13519D01*
X1628Y13636D01*
X1511Y13732D01*
X1378Y13803D01*
X1233Y13847D01*
X1083Y13862D01*
D02*
G37*
G36*
X10897Y12686D02*
X10560D01*
X10563Y12668D01*
X10602Y12610D01*
X10612Y12603D01*
Y12547D01*
X10573Y12490D01*
X10570Y12471D01*
X10907D01*
X10903Y12490D01*
X10864Y12547D01*
X10855Y12554D01*
Y12610D01*
X10893Y12668D01*
X10897Y12686D01*
D02*
G37*
G36*
X10678Y12905D02*
X10660Y12901D01*
X10602Y12862D01*
X10563Y12804D01*
X10560Y12786D01*
X10678D01*
Y12905D01*
D02*
G37*
G36*
X12373Y12834D02*
X12255D01*
Y12715D01*
X12273Y12719D01*
X12331Y12758D01*
X12370Y12816D01*
X12373Y12834D01*
D02*
G37*
G36*
X12155D02*
X12036D01*
X12040Y12816D01*
X12079Y12758D01*
X12136Y12719D01*
X12155Y12715D01*
Y12834D01*
D02*
G37*
G36*
X12373Y12352D02*
X12255D01*
Y12233D01*
X12273Y12237D01*
X12331Y12275D01*
X12370Y12333D01*
X12373Y12352D01*
D02*
G37*
G36*
X2813Y10949D02*
X2567D01*
Y10703D01*
X2595Y10707D01*
X2668Y10737D01*
X2731Y10785D01*
X2779Y10848D01*
X2809Y10921D01*
X2813Y10949D01*
D02*
G37*
G36*
X2467D02*
X2221D01*
X2224Y10921D01*
X2255Y10848D01*
X2303Y10785D01*
X2365Y10737D01*
X2438Y10707D01*
X2467Y10703D01*
Y10949D01*
D02*
G37*
G36*
X2567Y10295D02*
Y10049D01*
X2813D01*
X2809Y10077D01*
X2779Y10150D01*
X2731Y10213D01*
X2668Y10261D01*
X2595Y10291D01*
X2567Y10295D01*
D02*
G37*
G36*
X2467Y11295D02*
X2438Y11291D01*
X2365Y11261D01*
X2303Y11213D01*
X2255Y11150D01*
X2224Y11077D01*
X2221Y11049D01*
X2467D01*
Y11295D01*
D02*
G37*
G36*
X12155Y12352D02*
X12036D01*
X12040Y12333D01*
X12079Y12275D01*
X12136Y12237D01*
X12155Y12233D01*
Y12352D01*
D02*
G37*
G36*
X7087Y12864D02*
X6339D01*
Y12352D01*
X6671D01*
Y11978D01*
X6506D01*
Y11191D01*
X7372D01*
Y11978D01*
X6932D01*
Y12352D01*
X7087D01*
Y12864D01*
D02*
G37*
G36*
X2567Y11295D02*
Y11049D01*
X2813D01*
X2809Y11077D01*
X2779Y11150D01*
X2731Y11213D01*
X2668Y11261D01*
X2595Y11291D01*
X2567Y11295D01*
D02*
G37*
G36*
X10755Y13786D02*
X10311D01*
Y13460D01*
X10755D01*
Y13786D01*
D02*
G37*
G36*
X13510D02*
X13067D01*
Y13460D01*
X13510D01*
Y13786D01*
D02*
G37*
G36*
X12967D02*
X12523D01*
Y13460D01*
X12967D01*
Y13786D01*
D02*
G37*
G36*
X3739Y13870D02*
X3217D01*
Y13505D01*
X3739D01*
Y13870D01*
D02*
G37*
G36*
X5581Y13840D02*
Y13721D01*
X5700D01*
X5696Y13740D01*
X5658Y13797D01*
X5600Y13836D01*
X5581Y13840D01*
D02*
G37*
G36*
X5206D02*
X5188Y13836D01*
X5130Y13797D01*
X5091Y13740D01*
X5087Y13721D01*
X5206D01*
Y13840D01*
D02*
G37*
G36*
X4362Y13870D02*
X3839D01*
Y13505D01*
X4362D01*
Y13870D01*
D02*
G37*
G36*
X10211Y13786D02*
X9767D01*
Y13460D01*
X10211D01*
Y13786D01*
D02*
G37*
G36*
X12255Y13052D02*
Y12934D01*
X12373D01*
X12370Y12952D01*
X12331Y13010D01*
X12273Y13049D01*
X12255Y13052D01*
D02*
G37*
G36*
X12155D02*
X12136Y13049D01*
X12079Y13010D01*
X12040Y12952D01*
X12036Y12934D01*
X12155D01*
Y13052D01*
D02*
G37*
G36*
X10778Y12905D02*
Y12786D01*
X10897D01*
X10893Y12804D01*
X10855Y12862D01*
X10797Y12901D01*
X10778Y12905D01*
D02*
G37*
G36*
X10211Y13360D02*
X9767D01*
Y13035D01*
X10211D01*
Y13360D01*
D02*
G37*
G36*
X13510D02*
X13067D01*
Y13035D01*
X13510D01*
Y13360D01*
D02*
G37*
G36*
X12967D02*
X12523D01*
Y13035D01*
X12967D01*
Y13360D01*
D02*
G37*
G36*
X10755D02*
X10311D01*
Y13035D01*
X10755D01*
Y13360D01*
D02*
G37*
G36*
X2467Y10295D02*
X2438Y10291D01*
X2365Y10261D01*
X2303Y10213D01*
X2255Y10150D01*
X2224Y10077D01*
X2221Y10049D01*
X2467D01*
Y10295D01*
D02*
G37*
G36*
X8250Y5681D02*
X7727D01*
Y5316D01*
X8250D01*
Y5681D01*
D02*
G37*
G36*
X7019D02*
X6497D01*
Y5316D01*
X7019D01*
Y5681D01*
D02*
G37*
G36*
X7627D02*
X7105D01*
Y5316D01*
X7627D01*
Y5681D01*
D02*
G37*
G36*
X13415Y5806D02*
X13072D01*
X13079Y5753D01*
X13119Y5657D01*
X13183Y5574D01*
X13265Y5511D01*
X13361Y5471D01*
X13415Y5464D01*
Y5806D01*
D02*
G37*
G36*
Y6248D02*
X13361Y6241D01*
X13265Y6202D01*
X13183Y6138D01*
X13119Y6056D01*
X13079Y5959D01*
X13072Y5906D01*
X13415D01*
Y6248D01*
D02*
G37*
G36*
X12856Y6180D02*
X12550D01*
Y5835D01*
X12856D01*
Y6180D01*
D02*
G37*
G36*
X12245Y5621D02*
Y5503D01*
X12363D01*
X12360Y5521D01*
X12321Y5579D01*
X12263Y5618D01*
X12245Y5621D01*
D02*
G37*
G36*
X5167Y5681D02*
X4644D01*
Y5316D01*
X5167D01*
Y5681D01*
D02*
G37*
G36*
X8250Y5216D02*
X7727D01*
Y4851D01*
X8250D01*
Y5216D01*
D02*
G37*
G36*
X7627D02*
X7105D01*
Y4851D01*
X7627D01*
Y5216D01*
D02*
G37*
G36*
X7019D02*
X6497D01*
Y4851D01*
X7019D01*
Y5216D01*
D02*
G37*
G36*
X8730Y5021D02*
X8711Y5017D01*
X8653Y4979D01*
X8615Y4921D01*
X8611Y4902D01*
X8730D01*
Y5021D01*
D02*
G37*
G36*
X10294Y5147D02*
X10176D01*
X10180Y5129D01*
X10218Y5071D01*
X10276Y5032D01*
X10294Y5028D01*
Y5147D01*
D02*
G37*
G36*
X12363Y5127D02*
X12245D01*
Y5009D01*
X12263Y5012D01*
X12321Y5051D01*
X12360Y5109D01*
X12363Y5127D01*
D02*
G37*
G36*
X8830Y5021D02*
Y4902D01*
X8948D01*
X8944Y4921D01*
X8906Y4979D01*
X8848Y5017D01*
X8830Y5021D01*
D02*
G37*
G36*
X12236Y9657D02*
X11891D01*
Y9351D01*
X12236D01*
Y9657D01*
D02*
G37*
G36*
X11791D02*
X11445D01*
Y9351D01*
X11791D01*
Y9657D01*
D02*
G37*
G36*
X2567Y9295D02*
Y9049D01*
X2813D01*
X2809Y9077D01*
X2779Y9150D01*
X2731Y9213D01*
X2668Y9261D01*
X2595Y9291D01*
X2567Y9295D01*
D02*
G37*
G36*
X10934Y9783D02*
X10589D01*
Y9477D01*
X10934D01*
Y9783D01*
D02*
G37*
G36*
X2813Y9949D02*
X2567D01*
Y9703D01*
X2595Y9707D01*
X2668Y9737D01*
X2731Y9785D01*
X2779Y9848D01*
X2809Y9921D01*
X2813Y9949D01*
D02*
G37*
G36*
X2467D02*
X2221D01*
X2224Y9921D01*
X2255Y9848D01*
X2303Y9785D01*
X2365Y9737D01*
X2438Y9707D01*
X2467Y9703D01*
Y9949D01*
D02*
G37*
G36*
X11380Y9783D02*
X11034D01*
Y9477D01*
X11380D01*
Y9783D01*
D02*
G37*
G36*
X2467Y9295D02*
X2438Y9291D01*
X2365Y9261D01*
X2303Y9213D01*
X2255Y9150D01*
X2224Y9077D01*
X2221Y9049D01*
X2467D01*
Y9295D01*
D02*
G37*
G36*
X1517Y11280D02*
X1444Y11271D01*
X1376Y11242D01*
X1318Y11198D01*
X1273Y11140D01*
X1245Y11072D01*
X1236Y10999D01*
X1245Y10926D01*
X1273Y10858D01*
X1318Y10800D01*
X1336Y10786D01*
Y10212D01*
X1318Y10198D01*
X1273Y10140D01*
X1245Y10072D01*
X1236Y9999D01*
X1245Y9926D01*
X1273Y9858D01*
X1318Y9800D01*
X1336Y9786D01*
Y9212D01*
X1318Y9198D01*
X1273Y9140D01*
X1245Y9072D01*
X1236Y8999D01*
X1245Y8926D01*
X1273Y8858D01*
X1318Y8800D01*
X1336Y8786D01*
Y8212D01*
X1318Y8198D01*
X1273Y8140D01*
X1245Y8072D01*
X1236Y7999D01*
X1245Y7926D01*
X1273Y7858D01*
X1318Y7800D01*
X1376Y7756D01*
X1444Y7727D01*
X1517Y7718D01*
X1590Y7727D01*
X1657Y7756D01*
X1716Y7800D01*
X1760Y7858D01*
X1788Y7926D01*
X1798Y7999D01*
X1788Y8072D01*
X1760Y8140D01*
X1716Y8198D01*
X1697Y8212D01*
Y8786D01*
X1716Y8800D01*
X1760Y8858D01*
X1788Y8926D01*
X1798Y8999D01*
X1788Y9072D01*
X1760Y9140D01*
X1716Y9198D01*
X1697Y9212D01*
Y9786D01*
X1716Y9800D01*
X1760Y9858D01*
X1788Y9926D01*
X1798Y9999D01*
X1788Y10072D01*
X1760Y10140D01*
X1716Y10198D01*
X1697Y10212D01*
Y10786D01*
X1716Y10800D01*
X1760Y10858D01*
X1788Y10926D01*
X1798Y10999D01*
X1788Y11072D01*
X1760Y11140D01*
X1716Y11198D01*
X1657Y11242D01*
X1590Y11271D01*
X1517Y11280D01*
D02*
G37*
G36*
X4305Y7475D02*
X3960D01*
Y7169D01*
X4305D01*
Y7475D01*
D02*
G37*
G36*
X2467Y8295D02*
X2438Y8291D01*
X2365Y8261D01*
X2303Y8213D01*
X2255Y8150D01*
X2224Y8077D01*
X2221Y8049D01*
X2467D01*
Y8295D01*
D02*
G37*
G36*
X2813Y8949D02*
X2567D01*
Y8703D01*
X2595Y8707D01*
X2668Y8737D01*
X2731Y8785D01*
X2779Y8848D01*
X2809Y8921D01*
X2813Y8949D01*
D02*
G37*
G36*
X2467D02*
X2221D01*
X2224Y8921D01*
X2255Y8848D01*
X2303Y8785D01*
X2365Y8737D01*
X2438Y8707D01*
X2467Y8703D01*
Y8949D01*
D02*
G37*
G36*
X2567Y8295D02*
Y8049D01*
X2813D01*
X2809Y8077D01*
X2779Y8150D01*
X2731Y8213D01*
X2668Y8261D01*
X2595Y8291D01*
X2567Y8295D01*
D02*
G37*
G36*
X5767Y7974D02*
X5749Y7970D01*
X5691Y7931D01*
X5652Y7873D01*
X5648Y7855D01*
X5767D01*
Y7974D01*
D02*
G37*
%LPD*%
D10*
X9872Y7289D02*
D03*
Y7459D02*
D03*
Y7628D02*
D03*
Y7797D02*
D03*
Y7120D02*
D03*
Y6951D02*
D03*
Y6781D02*
D03*
Y6612D02*
D03*
X10994Y7289D02*
D03*
Y7459D02*
D03*
Y7628D02*
D03*
Y7797D02*
D03*
Y7120D02*
D03*
Y6951D02*
D03*
Y6781D02*
D03*
Y6612D02*
D03*
D11*
X10518Y7864D02*
D03*
X10687D02*
D03*
X10348D02*
D03*
X10179D02*
D03*
X10518Y6545D02*
D03*
X10687D02*
D03*
X10348D02*
D03*
X10179D02*
D03*
D12*
X11169Y3966D02*
D03*
X10287D02*
D03*
Y4203D02*
D03*
X11169D02*
D03*
D13*
X10965Y3640D02*
D03*
X10492D02*
D03*
X10965Y4530D02*
D03*
X10492D02*
D03*
D14*
X10728Y3644D02*
D03*
Y4526D02*
D03*
D15*
X10807Y5482D02*
D03*
X11683Y5433D02*
D03*
X13465Y3856D02*
D03*
X807Y6557D02*
D03*
D16*
X10261Y13410D02*
D03*
X13017D02*
D03*
X10261Y11836D02*
D03*
X13017D02*
D03*
D17*
X4905Y10482D02*
D03*
Y11585D02*
D03*
X3888Y10482D02*
D03*
Y11585D02*
D03*
X7677Y8366D02*
D03*
Y7264D02*
D03*
X6447Y8376D02*
D03*
Y7274D02*
D03*
X5217Y8376D02*
D03*
Y7274D02*
D03*
X5922Y10482D02*
D03*
Y11585D02*
D03*
X6939Y10482D02*
D03*
Y11585D02*
D03*
D18*
X3789Y13455D02*
D03*
Y12333D02*
D03*
X7677Y5266D02*
D03*
Y6388D02*
D03*
X6447Y5266D02*
D03*
Y6388D02*
D03*
X5217Y5266D02*
D03*
Y6388D02*
D03*
D19*
X11841Y8553D02*
D03*
Y9301D02*
D03*
X12490Y6959D02*
D03*
Y7707D02*
D03*
X11732Y6959D02*
D03*
Y7707D02*
D03*
X10984Y9427D02*
D03*
Y8679D02*
D03*
X4355Y8273D02*
D03*
Y7525D02*
D03*
D20*
X12500Y6230D02*
D03*
X11752D02*
D03*
X11083Y2805D02*
D03*
X10335D02*
D03*
X6772Y3789D02*
D03*
X6024D02*
D03*
X6772Y2928D02*
D03*
X6024D02*
D03*
X9060Y3839D02*
D03*
X8312D02*
D03*
D21*
X6713Y13278D02*
D03*
Y12608D02*
D03*
X5492Y13278D02*
D03*
Y12608D02*
D03*
D22*
X5896Y10039D02*
X5925Y10069D01*
Y10322D01*
X2709Y7628D02*
X3179D01*
X6102Y9814D02*
Y9823D01*
Y9814D02*
X6164Y9752D01*
X6149Y9737D02*
X6164Y9752D01*
X9867Y6787D02*
X9975D01*
X8435Y6993D02*
Y7947D01*
X10994Y7115D02*
X11242D01*
X11526Y4203D02*
Y5659D01*
X6149Y9737D02*
X9220D01*
X9459Y7324D02*
X9508Y7373D01*
X9459Y7304D02*
Y7324D01*
X9493Y7289D02*
X9872D01*
X9459Y7324D02*
X9493Y7289D01*
X7382Y8858D02*
X7874Y8366D01*
X6437Y8563D02*
X6609Y8391D01*
X4449Y8169D02*
X4552Y8273D01*
X3986Y8169D02*
X4449D01*
X10728Y4526D02*
Y5679D01*
X10630Y5778D02*
X10728Y5679D01*
X4905Y10482D02*
X5387Y10000D01*
X5453D01*
X10601Y7077D02*
X10611D01*
X10030Y8287D02*
Y8366D01*
X9872Y8130D02*
X10030Y8287D01*
X9203Y9252D02*
X9776Y8679D01*
X5930Y8858D02*
X7382D01*
X10965Y4530D02*
Y4803D01*
X11240Y5079D02*
Y5217D01*
X10965Y4803D02*
X11240Y5079D01*
Y5217D02*
Y5482D01*
X11250D01*
X13465Y7856D02*
X13927Y7394D01*
Y232D02*
Y7394D01*
X13869Y8261D02*
Y10983D01*
X13465Y7856D02*
X13869Y8261D01*
X13017Y11836D02*
X13869Y10983D01*
X9508Y7323D02*
Y7373D01*
X9134Y7579D02*
X9537Y7982D01*
Y8002D01*
X11358Y8150D02*
X11578D01*
X11289Y8081D02*
X11358Y8150D01*
X11289Y7716D02*
Y8081D01*
X10626Y8180D02*
Y8258D01*
X10523Y8077D02*
X10626Y8180D01*
X10518Y7864D02*
X10523Y7870D01*
Y8077D01*
X10179Y7864D02*
X10185Y7870D01*
Y8077D01*
X10287Y8180D01*
Y8276D01*
X10608D01*
X8641Y6787D02*
X9867D01*
X9872Y6951D02*
X9980D01*
X8711D02*
X9872D01*
Y6612D02*
X9980D01*
X8591D02*
X9872D01*
X13050Y8326D02*
Y9290D01*
X13051Y9291D01*
X11860Y7707D02*
X12490D01*
X11860Y6959D02*
X12490D01*
X13465Y7856D02*
X13632D01*
X13281D02*
X13465D01*
X12490Y7707D02*
X12657D01*
X11242Y7115D02*
X11328Y7028D01*
Y6658D02*
Y7028D01*
Y6658D02*
X11329Y6657D01*
Y6545D02*
Y6657D01*
X11841Y8412D02*
Y8553D01*
X11578Y8150D02*
X11841Y8412D01*
X12490Y6959D02*
X12657D01*
X11207Y7633D02*
X11289Y7716D01*
X10261Y11836D02*
X12913D01*
X10937Y6222D02*
X11033Y6319D01*
X10681Y6222D02*
X10937D01*
X10687Y6228D02*
Y6545D01*
X10681Y6222D02*
X10687Y6228D01*
X10504Y6222D02*
X10681D01*
X10518Y6236D02*
Y6545D01*
X10504Y6222D02*
X10518Y6236D01*
X10354Y6222D02*
X10504D01*
X10348Y6228D02*
Y6545D01*
Y6228D02*
X10354Y6222D01*
X10179Y6230D02*
X10335D01*
X10179D02*
Y6545D01*
X10994Y6612D02*
Y6781D01*
Y6951D01*
Y6612D02*
X11033Y6573D01*
Y6319D02*
Y6573D01*
X10994Y650D02*
Y679D01*
X6618Y232D02*
X13927D01*
X12500Y6230D02*
Y6801D01*
X11329Y6545D02*
X11644Y6230D01*
X10354Y6211D02*
Y6222D01*
X8327Y6033D02*
X11152D01*
X12195Y5177D02*
Y5453D01*
X9488Y3258D02*
X9685Y3061D01*
X10098Y1585D02*
Y1850D01*
X4075Y4675D02*
X4193D01*
X4242Y4626D02*
X4291Y4675D01*
X3711Y11053D02*
X3957D01*
X3661Y12844D02*
X3996D01*
X5256Y13671D02*
X5531D01*
X5620Y11024D02*
X5945D01*
X5817Y7805D02*
X6211D01*
X5797D02*
X5817D01*
X5817Y5846D02*
X6053D01*
X9776Y8679D02*
X10984D01*
X1350Y1055D02*
Y6045D01*
X937Y642D02*
X1350Y1055D01*
X640Y2559D02*
Y2724D01*
X199Y3165D02*
X640Y2724D01*
X199Y3165D02*
Y6999D01*
X10344Y4764D02*
X10492Y4616D01*
X10217Y4764D02*
X10344D01*
X10177Y4724D02*
X10217Y4764D01*
X11152Y6033D02*
X11526Y5659D01*
X11169Y4203D02*
X11526D01*
X9656Y3966D02*
X10287D01*
X9606Y4016D02*
X9656Y3966D01*
X8533Y5778D02*
X10630D01*
X9346Y7120D02*
X9872D01*
X9134Y7333D02*
X9346Y7120D01*
X8209Y6995D02*
X8591Y6612D01*
X8209Y6995D02*
Y8020D01*
X8435Y6993D02*
X8641Y6787D01*
X8683Y6978D02*
Y7785D01*
Y6978D02*
X8711Y6951D01*
X10177Y4203D02*
X10287D01*
X6615Y236D02*
X6618Y232D01*
X9459Y7304D02*
X9469Y7294D01*
X10984Y8652D02*
X11102Y8533D01*
X10984Y8652D02*
Y8679D01*
X10608Y8276D02*
X10984Y8652D01*
X9939Y7864D02*
X10179D01*
X9872Y7797D02*
X9939Y7864D01*
X9872Y7628D02*
Y7797D01*
Y7459D02*
Y7628D01*
X8644Y8177D02*
X8650D01*
X8366D02*
X8644D01*
X8209Y8020D02*
X8366Y8177D01*
X6609Y8391D02*
X6619Y8401D01*
X9134Y7333D02*
Y7579D01*
X10611Y7077D02*
X10630D01*
X10611D02*
X10687Y7154D01*
Y7864D01*
X9867Y6787D02*
X9872Y6781D01*
X11000Y7633D02*
X11207D01*
X10994Y7628D02*
X11000Y7633D01*
X10994Y7289D02*
Y7459D01*
X11504D01*
X10994Y7115D02*
Y7120D01*
X10492Y4530D02*
Y4616D01*
Y4451D02*
Y4530D01*
X10287Y4203D02*
X10366D01*
X3789Y12333D02*
X3888Y12234D01*
Y11585D02*
Y12234D01*
X5922Y10482D02*
X6004Y10400D01*
X5922Y11585D02*
Y12848D01*
Y11476D02*
Y11585D01*
X4488Y9774D02*
X4961D01*
X3888Y10374D02*
X4488Y9774D01*
X6565Y9921D02*
Y10000D01*
X9220Y9737D02*
X9400Y9916D01*
X6565Y10000D02*
X6939Y10374D01*
X5059Y12175D02*
X5492Y12608D01*
X5059Y11631D02*
Y12175D01*
X6713Y12608D02*
X6801Y12520D01*
Y11614D02*
Y12520D01*
X5492Y13278D02*
X5922Y12848D01*
X11169Y3966D02*
X11324D01*
X10965Y3640D02*
Y3722D01*
Y2805D02*
Y3640D01*
X11091Y4203D02*
X11169D01*
X10965Y4451D02*
Y4530D01*
X10287Y3966D02*
X10366D01*
X1350Y6045D02*
X2605Y7300D01*
X3150D01*
X350Y7150D02*
X1600D01*
X199Y6999D02*
X350Y7150D01*
X5217Y6447D02*
Y7274D01*
X7677Y6447D02*
Y7264D01*
X6447Y6447D02*
Y7274D01*
X11073Y2288D02*
Y2795D01*
X11083Y2805D01*
X11319Y3041D01*
Y3962D01*
X11324Y3966D01*
X10965Y4451D02*
X10967Y4454D01*
X10728Y4447D02*
Y4526D01*
X11091Y3966D02*
X11169D01*
X6619Y8401D02*
X6644Y8376D01*
X6053Y8563D02*
X6437D01*
X6024Y2928D02*
Y3002D01*
Y2879D02*
Y2928D01*
X640Y5559D02*
X2709Y7628D01*
X722Y642D02*
X937D01*
X4905Y11476D02*
X5059Y11631D01*
X5925Y10322D02*
X6004Y10400D01*
X6801Y11614D02*
X6939Y11476D01*
X6615Y236D02*
Y724D01*
X4193Y4675D02*
X4242Y4626D01*
X10335Y6230D02*
X10354Y6211D01*
X12500Y6801D02*
X12657Y6959D01*
X11504Y7459D02*
X11752Y7707D01*
X11102Y7797D02*
Y8533D01*
X10177Y4203D02*
Y4724D01*
X5955Y3809D02*
X6024Y3740D01*
D23*
X3189Y1083D02*
X7598D01*
X7608Y1093D01*
X2874Y1083D02*
X3189D01*
X2864Y1093D02*
X2874Y1083D01*
X8986Y9469D02*
X9203Y9252D01*
X5266D02*
Y9449D01*
X4355D02*
X5266D01*
X3617Y8711D02*
X4355Y9449D01*
X5482Y9469D02*
X8986D01*
X5266Y9252D02*
X5482Y9469D01*
X5266Y8524D02*
Y9252D01*
X12559Y8425D02*
Y10251D01*
Y8150D02*
Y8425D01*
Y7805D02*
Y8150D01*
X10153Y10261D02*
X10335D01*
X10039D02*
X10153D01*
X7136Y13278D02*
X10153Y10261D01*
X6713Y13278D02*
X7136D01*
X1850Y5950D02*
X1950Y6050D01*
X7608Y1093D02*
X8071Y630D01*
X8100D01*
X8661Y1058D02*
X9006D01*
X8268Y1452D02*
X8661Y1058D01*
X2421Y1452D02*
X4183D01*
X6029D01*
X2190D02*
X2421D01*
X2420Y1451D02*
X2421Y1452D01*
X2420Y566D02*
Y1451D01*
X12549Y10261D02*
X12559Y10251D01*
X12254Y10261D02*
X12549D01*
X3617Y6496D02*
Y8095D01*
X3171Y6050D02*
X3617Y6496D01*
X1950Y6050D02*
X3171D01*
X1850Y3550D02*
Y4975D01*
Y1792D02*
Y3550D01*
X1850Y4975D02*
Y5950D01*
X1850Y5950D01*
Y1792D02*
X2190Y1452D01*
X1517Y9999D02*
Y10999D01*
Y8999D02*
Y9999D01*
Y7999D02*
Y8999D01*
X6029Y1452D02*
X8268D01*
X10335Y10261D02*
X10605D01*
X9732Y9953D02*
X10039Y10261D01*
X9732Y9781D02*
Y9953D01*
X9203Y9252D02*
X9732Y9781D01*
X3617Y8095D02*
Y8711D01*
X6024Y2879D02*
X6029Y2874D01*
X12559Y7805D02*
X12657Y7707D01*
X5266Y8524D02*
X5413Y8376D01*
D24*
X10344Y7860D02*
X10348Y7864D01*
X10344Y6880D02*
Y7860D01*
Y6841D02*
Y6880D01*
D25*
X9006Y1058D02*
Y1058D01*
X9473Y1526D02*
Y2677D01*
X8312Y3839D02*
X9473Y2677D01*
X9006Y1058D02*
X9473Y1526D01*
X6029Y1452D02*
Y2874D01*
X8312Y3839D02*
Y4326D01*
X6024Y3002D02*
Y3740D01*
X5955Y3809D02*
Y4331D01*
D26*
X13091Y1083D02*
D03*
X1083Y13091D02*
D03*
D27*
X13465Y5856D02*
D03*
Y4856D02*
D03*
Y6856D02*
D03*
Y7856D02*
D03*
Y8856D02*
D03*
Y9856D02*
D03*
X807Y4557D02*
D03*
Y5557D02*
D03*
Y3557D02*
D03*
Y2557D02*
D03*
Y1557D02*
D03*
Y557D02*
D03*
X5420Y566D02*
D03*
X4420D02*
D03*
X3420D02*
D03*
D28*
X517Y10999D02*
D03*
Y9999D02*
D03*
Y8999D02*
D03*
Y7999D02*
D03*
D29*
X1517Y10999D02*
D03*
Y9999D02*
D03*
Y8999D02*
D03*
Y7999D02*
D03*
X2517Y10999D02*
D03*
Y9999D02*
D03*
Y8999D02*
D03*
Y7999D02*
D03*
X9100Y630D02*
D03*
X8100D02*
D03*
D30*
X7100D02*
D03*
D31*
X2420Y566D02*
D03*
D32*
X5896Y10039D02*
D03*
X3179Y7628D02*
D03*
X3189Y1083D02*
D03*
X6102Y9823D02*
D03*
X10728Y5049D02*
D03*
X5453Y10000D02*
D03*
X10601Y7077D02*
D03*
X10738Y12421D02*
D03*
X10728Y12736D02*
D03*
X12205Y12402D02*
D03*
Y12884D02*
D03*
X10030Y8366D02*
D03*
X9872Y8130D02*
D03*
X11240Y5217D02*
D03*
Y5482D02*
D03*
X9508Y7323D02*
D03*
X9537Y8002D02*
D03*
X13050Y8326D02*
D03*
X11811Y2077D02*
D03*
Y2411D02*
D03*
X10994Y650D02*
D03*
X10443Y640D02*
D03*
X12559Y8425D02*
D03*
Y8150D02*
D03*
X11033Y6319D02*
D03*
X10354Y6222D02*
D03*
X12195Y5453D02*
D03*
Y5177D02*
D03*
X12185Y4035D02*
D03*
X11890D02*
D03*
X10344Y5197D02*
D03*
Y5482D02*
D03*
X8780Y4537D02*
D03*
Y4852D02*
D03*
X9685Y3061D02*
D03*
X9488Y3258D02*
D03*
X10098Y1585D02*
D03*
Y1850D02*
D03*
X8996Y1526D02*
D03*
Y1791D02*
D03*
X6407Y1811D02*
D03*
X6526Y1998D02*
D03*
X1683Y679D02*
D03*
X1506Y502D02*
D03*
X2510Y2913D02*
D03*
X2254D02*
D03*
X2530Y4636D02*
D03*
X2224D02*
D03*
X4075Y4675D02*
D03*
X4291D02*
D03*
X3957Y11053D02*
D03*
X3711D02*
D03*
X3996Y12844D02*
D03*
X3661D02*
D03*
X5531Y13671D02*
D03*
X5256D02*
D03*
X5945Y11024D02*
D03*
X5620D02*
D03*
X6211Y7805D02*
D03*
X5817D02*
D03*
X6053Y5846D02*
D03*
X5817D02*
D03*
X2864Y1093D02*
D03*
X6605Y714D02*
D03*
X5955Y4355D02*
D03*
X8661Y1058D02*
D03*
X9006D02*
D03*
X10217Y4764D02*
D03*
X11516Y4626D02*
D03*
X9606Y4016D02*
D03*
X8533Y5778D02*
D03*
X8327Y6033D02*
D03*
X8644Y8177D02*
D03*
X8441Y7947D02*
D03*
X8683Y7785D02*
D03*
X10344Y6880D02*
D03*
X12549Y10261D02*
D03*
X4961Y9774D02*
D03*
X6565Y9921D02*
D03*
X1850Y3550D02*
D03*
Y5950D02*
D03*
X3150Y7300D02*
D03*
X1600Y7150D02*
D03*
X9400Y9916D02*
D03*
X4183Y1452D02*
D03*
X12254Y10261D02*
D03*
X10605D02*
D03*
X10335D02*
D03*
X11073Y2288D02*
D03*
X13051Y9291D02*
D03*
X6053Y8563D02*
D03*
X5930Y8858D02*
D03*
X3617Y8095D02*
D03*
X3986Y8169D02*
D03*
X8312Y4326D02*
D03*
M02*
