M48
;Layer_Color=9474304
;FILE_FORMAT=2:4
INCH,LZ
;TYPE=PLATED
T1F00S00C0.0100
T2F00S00C0.0300
T3F00S00C0.0354
;TYPE=NON_PLATED
T4F00S00C0.1378
%
T01
X001506Y000502
X001683Y000679
X002864Y001093
X003189Y001083
X004183Y001452
X00251Y002913
X002254
X00185Y00355
X002224Y004636
X00253
X004075Y004675
X004291
X005955Y004355
X008312Y004326
X00878Y004537
Y004852
X010217Y004764
X010344Y005197
Y005482
X010728Y005049
X01124Y005217
Y005482
X012195Y005453
Y005177
X012185Y004035
X01189
X011516Y004626
X011811Y002411
Y002077
X011073Y002288
X010098Y00185
Y001585
X008996Y001526
Y001791
X009006Y001058
X008661
X010443Y00064
X010994Y00065
X009685Y003061
X009488Y003258
X009606Y004016
X006526Y001998
X006407Y001811
X006605Y000714
X006053Y005846
X005817
X005817Y007805
X006211
X006053Y008563
X00593Y008858
X006102Y009823
X005896Y010039
X006565Y009921
X005945Y011024
X0094Y009916
X010335Y010261
X010605
X012254
X012549
X013051Y009291
X01305Y008326
X012559Y008425
Y00815
X009872Y00813
X01003Y008366
X009537Y008002
X009508Y007323
X010344Y00688
X010601Y007077
X010354Y006222
X011033Y006319
X008327Y006033
X008533Y005778
X008683Y007785
X008441Y007947
X008644Y008177
X010738Y012421
X010728Y012736
X012205Y012884
Y012402
X005531Y013671
X005256
X003996Y012844
X003661
X003711Y011053
X003957
X00562Y011024
X005453Y01
X004961Y009774
X003986Y008169
X003617Y008095
X003179Y007628
X00315Y0073
X0016Y00715
X00185Y00595
T02
X0071Y00063
X0081
X0091
X002517Y007999
Y008999
Y009999
Y010999
X001517
Y009999
Y008999
Y007999
X000517
Y008999
Y009999
Y010999
T03
X000807Y000557
Y001557
Y002557
Y003557
Y004557
Y005557
X00242Y000566
X00342
X00442
X00542
X013465Y003856
Y004856
Y005856
Y006856
Y007856
Y008856
Y009856
X000807Y006557
T04
X013091Y001083
X001083Y013091
M30
