G04 Layer_Color=32896*
%FSLAX24Y24*%
%MOIN*%
G70*
G01*
G75*
%ADD20C,0.0098*%
%ADD37C,0.0100*%
%ADD38C,0.0079*%
%ADD85C,0.0050*%
%ADD86C,0.0070*%
D20*
X8907Y3642D02*
G03*
X8907Y3642I-49J0D01*
G01*
D37*
X8455Y4370D02*
G03*
X8455Y4370I-39J0D01*
G01*
X9362Y13373D02*
X9462Y13473D01*
X9662D01*
X9762Y13373D01*
Y12973D01*
X9662Y12873D01*
X9462D01*
X9362Y12973D01*
X9162Y12873D02*
X8962D01*
X9062D01*
Y13473D01*
X9162Y13373D01*
X13467Y12752D02*
X13567Y12652D01*
Y12452D01*
X13467Y12352D01*
X13067D01*
X12968Y12452D01*
Y12652D01*
X13067Y12752D01*
X12968Y13352D02*
Y12952D01*
X13367Y13352D01*
X13467D01*
X13567Y13252D01*
Y13052D01*
X13467Y12952D01*
X10107Y2330D02*
X10207Y2230D01*
X10407D01*
X10507Y2330D01*
Y2730D01*
X10407Y2830D01*
X10207D01*
X10107Y2730D01*
X9907Y2330D02*
X9807Y2230D01*
X9607D01*
X9507Y2330D01*
Y2430D01*
X9607Y2530D01*
X9707D01*
X9607D01*
X9507Y2630D01*
Y2730D01*
X9607Y2830D01*
X9807D01*
X9907Y2730D01*
X6170Y1902D02*
X6270Y2002D01*
X6470D01*
X6570Y1902D01*
Y1503D01*
X6470Y1403D01*
X6270D01*
X6170Y1503D01*
X5670Y1403D02*
Y2002D01*
X5970Y1702D01*
X5570D01*
X9959Y10170D02*
X10059Y10270D01*
X10259D01*
X10359Y10170D01*
Y9770D01*
X10259Y9670D01*
X10059D01*
X9959Y9770D01*
X9360Y10270D02*
X9759D01*
Y9970D01*
X9560Y10070D01*
X9460D01*
X9360Y9970D01*
Y9770D01*
X9460Y9670D01*
X9659D01*
X9759Y9770D01*
X10425Y5801D02*
X10325Y5901D01*
Y6101D01*
X10425Y6201D01*
X10825D01*
X10925Y6101D01*
Y5901D01*
X10825Y5801D01*
X10325Y5201D02*
X10425Y5401D01*
X10625Y5601D01*
X10825D01*
X10925Y5501D01*
Y5301D01*
X10825Y5201D01*
X10725D01*
X10625Y5301D01*
Y5601D01*
X8582Y12111D02*
X8682Y12211D01*
X8882D01*
X8982Y12111D01*
Y11711D01*
X8882Y11611D01*
X8682D01*
X8582Y11711D01*
X8382Y12211D02*
X7983D01*
Y12111D01*
X8382Y11711D01*
Y11611D01*
X4718Y10441D02*
X4818Y10541D01*
X5018D01*
X5118Y10441D01*
Y10041D01*
X5018Y9941D01*
X4818D01*
X4718Y10041D01*
X4518Y9941D02*
X4318D01*
X4418D01*
Y10541D01*
X4518Y10441D01*
X4018Y9941D02*
X3819D01*
X3918D01*
Y10541D01*
X4018Y10441D01*
X3611Y3748D02*
X3711Y3848D01*
X3911D01*
X4011Y3748D01*
Y3348D01*
X3911Y3248D01*
X3711D01*
X3611Y3348D01*
X3411Y3248D02*
X3211D01*
X3311D01*
Y3848D01*
X3411Y3748D01*
X2511Y3248D02*
X2911D01*
X2511Y3648D01*
Y3748D01*
X2611Y3848D01*
X2811D01*
X2911Y3748D01*
X4177Y4929D02*
X4277Y5029D01*
X4477D01*
X4577Y4929D01*
Y4529D01*
X4477Y4429D01*
X4277D01*
X4177Y4529D01*
X3977Y4429D02*
X3777D01*
X3877D01*
Y5029D01*
X3977Y4929D01*
X3177Y4429D02*
Y5029D01*
X3477Y4729D01*
X3077D01*
X3642Y2264D02*
Y2864D01*
X3342D01*
X3242Y2764D01*
Y2564D01*
X3342Y2464D01*
X3642D01*
X3442D02*
X3242Y2264D01*
X2642Y2864D02*
X2842Y2764D01*
X3042Y2564D01*
Y2364D01*
X2942Y2264D01*
X2742D01*
X2642Y2364D01*
Y2464D01*
X2742Y2564D01*
X3042D01*
X9719Y1501D02*
Y2101D01*
X9420D01*
X9320Y2001D01*
Y1801D01*
X9420Y1701D01*
X9719D01*
X9520D02*
X9320Y1501D01*
X9120Y2101D02*
X8720D01*
Y2001D01*
X9120Y1601D01*
Y1501D01*
X11836Y12755D02*
Y12255D01*
X11736Y12156D01*
X11536D01*
X11436Y12255D01*
Y12755D01*
X11236Y12156D02*
X11036D01*
X11136D01*
Y12755D01*
X11236Y12655D01*
X7333Y7588D02*
Y7088D01*
X7233Y6988D01*
X7033D01*
X6933Y7088D01*
Y7588D01*
X6333Y6988D02*
X6733D01*
X6333Y7388D01*
Y7488D01*
X6433Y7588D01*
X6633D01*
X6733Y7488D01*
X11516Y3897D02*
X11116Y3297D01*
Y3897D02*
X11516Y3297D01*
X10916Y3897D02*
X10516D01*
X10716D01*
Y3297D01*
X10316D02*
Y3697D01*
X10116Y3897D01*
X9916Y3697D01*
Y3297D01*
Y3597D01*
X10316D01*
X9716Y3897D02*
Y3297D01*
X9316D01*
X9117D02*
X8917D01*
X9017D01*
Y3897D01*
X9117Y3797D01*
X13189Y4068D02*
X13089Y4168D01*
X12889D01*
X12789Y4068D01*
Y3968D01*
X12889Y3868D01*
X12989D01*
X12889D01*
X12789Y3768D01*
Y3668D01*
X12889Y3568D01*
X13089D01*
X13189Y3668D01*
X12589Y4168D02*
Y3768D01*
X12389Y3568D01*
X12189Y3768D01*
Y4168D01*
X11989Y4068D02*
X11889Y4168D01*
X11689D01*
X11589Y4068D01*
Y3968D01*
X11689Y3868D01*
X11789D01*
X11689D01*
X11589Y3768D01*
Y3668D01*
X11689Y3568D01*
X11889D01*
X11989Y3668D01*
X12789Y4929D02*
X12889Y5029D01*
X13089D01*
X13189Y4929D01*
Y4829D01*
X13089Y4729D01*
X12889D01*
X12789Y4629D01*
Y4529D01*
X12889Y4429D01*
X13089D01*
X13189Y4529D01*
X12589Y5029D02*
Y4429D01*
X12389Y4629D01*
X12189Y4429D01*
Y5029D01*
X11589Y4929D02*
X11689Y5029D01*
X11889D01*
X11989Y4929D01*
Y4529D01*
X11889Y4429D01*
X11689D01*
X11589Y4529D01*
X11390Y5029D02*
Y4429D01*
X10990D01*
X10790Y5029D02*
Y4429D01*
Y4629D01*
X10390Y5029D01*
X10690Y4729D01*
X10390Y4429D01*
X12789Y6085D02*
X12889Y6185D01*
X13089D01*
X13189Y6085D01*
Y5686D01*
X13089Y5586D01*
X12889D01*
X12789Y5686D01*
Y5886D01*
X12989D01*
X12589Y5586D02*
Y6185D01*
X12189Y5586D01*
Y6185D01*
X11989D02*
Y5586D01*
X11689D01*
X11589Y5686D01*
Y6085D01*
X11689Y6185D01*
X11989D01*
X12789Y7094D02*
X12889Y7194D01*
X13089D01*
X13189Y7094D01*
Y6994D01*
X13089Y6894D01*
X12889D01*
X12789Y6794D01*
Y6694D01*
X12889Y6594D01*
X13089D01*
X13189Y6694D01*
X12589Y7194D02*
Y6594D01*
X12389Y6794D01*
X12189Y6594D01*
Y7194D01*
X11989D02*
Y6594D01*
X11689D01*
X11589Y6694D01*
Y7094D01*
X11689Y7194D01*
X11989D01*
X11390D02*
X11190D01*
X11290D01*
Y6594D01*
X11390D01*
X11190D01*
X10590Y7194D02*
X10790D01*
X10890Y7094D01*
Y6694D01*
X10790Y6594D01*
X10590D01*
X10490Y6694D01*
Y7094D01*
X10590Y7194D01*
X13189Y7554D02*
Y8154D01*
X12889D01*
X12789Y8054D01*
Y7854D01*
X12889Y7754D01*
X13189D01*
X12989D02*
X12789Y7554D01*
X12189Y8154D02*
X12589D01*
Y7554D01*
X12189D01*
X12589Y7854D02*
X12389D01*
X11589Y8054D02*
X11689Y8154D01*
X11889D01*
X11989Y8054D01*
Y7954D01*
X11889Y7854D01*
X11689D01*
X11589Y7754D01*
Y7654D01*
X11689Y7554D01*
X11889D01*
X11989Y7654D01*
X10990Y8154D02*
X11390D01*
Y7554D01*
X10990D01*
X11390Y7854D02*
X11190D01*
X10790Y8154D02*
X10390D01*
X10590D01*
Y7554D01*
X13189Y9163D02*
X12789D01*
X12989D01*
Y8563D01*
X12589Y9163D02*
X12189Y8563D01*
Y9163D02*
X12589Y8563D01*
X13189Y9547D02*
Y10147D01*
X12889D01*
X12789Y10047D01*
Y9847D01*
X12889Y9747D01*
X13189D01*
X12989D02*
X12789Y9547D01*
X12589Y10147D02*
X12189Y9547D01*
Y10147D02*
X12589Y9547D01*
D38*
X6299Y2972D02*
X8661D01*
X6299Y4311D02*
X8661D01*
X9267Y12534D02*
X9779D01*
X12958Y12195D02*
X13469D01*
X3533Y7146D02*
X4045D01*
X3533Y8376D02*
X4045D01*
X9587Y6407D02*
X10098D01*
X9040Y9931D02*
Y10443D01*
Y10718D02*
Y11230D01*
X6068Y2279D02*
Y2790D01*
X7559Y1457D02*
X7795D01*
X7559Y2087D02*
X7795D01*
X9213Y2279D02*
Y2790D01*
X4646Y2244D02*
X4882D01*
X4646Y2874D02*
X4882D01*
X5640Y3287D02*
Y3799D01*
D85*
X12733Y10474D02*
X12743D01*
X12803Y10534D01*
Y10584D01*
X12693Y10474D02*
X12803Y10584D01*
X12683Y10474D02*
X12693D01*
X12643D02*
X12683D01*
X12643D02*
X12803Y10634D01*
X11383Y10454D02*
Y10464D01*
X12803D01*
X11373Y14064D02*
X12803D01*
Y10464D02*
Y14064D01*
X11383Y10454D02*
Y10464D01*
X9963D02*
X11383D01*
X9963Y14064D02*
X11393D01*
X9963Y10464D02*
Y14064D01*
D86*
X8612Y5118D02*
X8809D01*
Y5315D01*
X8612Y9055D02*
X8809D01*
Y8858D02*
Y9055D01*
X4872D02*
X5069D01*
X4872Y8858D02*
Y9055D01*
Y5118D02*
Y5315D01*
Y5118D02*
X5069D01*
M02*
