G04 Layer_Color=8421504*
%FSLAX24Y24*%
%MOIN*%
G70*
G01*
G75*
%ADD10R,0.0945X0.0630*%
%ADD11R,0.0512X0.0591*%
%ADD12R,0.0591X0.0512*%
%ADD13R,0.0709X0.0630*%
%ADD14R,0.0295X0.0157*%
%ADD15R,0.0157X0.0291*%
%ADD16R,0.0157X0.0295*%
%ADD17R,0.0256X0.0109*%
%ADD18R,0.0109X0.0256*%
%ADD19R,0.0591X0.0591*%
D10*
X6693Y12623D02*
D03*
Y11501D02*
D03*
X3199Y12618D02*
D03*
Y11496D02*
D03*
X5413Y5266D02*
D03*
Y6388D02*
D03*
X7874Y5266D02*
D03*
Y6388D02*
D03*
X6644Y5266D02*
D03*
Y6388D02*
D03*
D11*
X10335Y2805D02*
D03*
X11083D02*
D03*
X10187Y9473D02*
D03*
X10935D02*
D03*
X10925Y8686D02*
D03*
X10177D02*
D03*
X6024Y3789D02*
D03*
X6772D02*
D03*
X6024Y2928D02*
D03*
X6772D02*
D03*
X8312Y3839D02*
D03*
X9060D02*
D03*
D12*
X11860Y7731D02*
D03*
Y6983D02*
D03*
X12648Y7731D02*
D03*
Y6983D02*
D03*
X11122Y6058D02*
D03*
Y5310D02*
D03*
X4552Y7525D02*
D03*
Y8273D02*
D03*
D13*
X5428Y12613D02*
D03*
Y11511D02*
D03*
X4454Y12613D02*
D03*
Y11511D02*
D03*
X12500Y4104D02*
D03*
Y3002D02*
D03*
X10039Y1757D02*
D03*
Y655D02*
D03*
X7874Y7264D02*
D03*
Y8366D02*
D03*
X5413Y7274D02*
D03*
Y8376D02*
D03*
X6644Y7274D02*
D03*
Y8376D02*
D03*
D14*
X11130Y4203D02*
D03*
X10327D02*
D03*
Y3966D02*
D03*
X11130D02*
D03*
D15*
X10492Y4490D02*
D03*
X10965D02*
D03*
X10492Y3679D02*
D03*
X10965D02*
D03*
D16*
X10728Y4486D02*
D03*
Y3683D02*
D03*
D17*
X9911Y7540D02*
D03*
Y7710D02*
D03*
Y7879D02*
D03*
Y8048D02*
D03*
Y7371D02*
D03*
Y7202D02*
D03*
Y7032D02*
D03*
Y6863D02*
D03*
X10955Y7540D02*
D03*
Y7710D02*
D03*
Y7879D02*
D03*
Y8048D02*
D03*
Y7371D02*
D03*
Y7202D02*
D03*
Y7032D02*
D03*
Y6863D02*
D03*
D18*
X10518Y8076D02*
D03*
X10687D02*
D03*
X10348D02*
D03*
X10179D02*
D03*
X10518Y6836D02*
D03*
X10687D02*
D03*
X10348D02*
D03*
X10179D02*
D03*
D19*
X8858Y6914D02*
D03*
Y6053D02*
D03*
M02*
