G04 Layer_Physical_Order=2*
G04 Layer_Color=16711680*
%FSLAX24Y24*%
%MOIN*%
G70*
G01*
G75*
%ADD10R,0.0512X0.0591*%
%ADD11R,0.0591X0.0512*%
%ADD12R,0.0591X0.0591*%
%ADD20C,0.0098*%
%ADD21C,0.0118*%
%ADD22C,0.0197*%
%ADD23C,0.0394*%
%ADD24C,0.0400*%
%ADD25R,0.0400X0.0400*%
%ADD26R,0.0400X0.0400*%
%ADD27C,0.0591*%
%ADD28C,0.0150*%
%ADD29R,0.0114X0.0531*%
%ADD30R,0.0531X0.0114*%
%ADD31R,0.0630X0.0709*%
%ADD32R,0.0787X0.0945*%
%ADD33R,0.0472X0.0866*%
%ADD34R,0.1299X0.0630*%
%ADD35C,0.0157*%
%ADD36C,0.0315*%
G36*
X5002Y4169D02*
X4799Y3966D01*
X4780Y3939D01*
X4774Y3941D01*
X4568D01*
Y3543D01*
Y3146D01*
X4760D01*
Y1959D01*
X4770Y1909D01*
X4799Y1866D01*
X5806Y859D01*
Y501D01*
X4676D01*
X2838Y2339D01*
Y2781D01*
X2824Y2850D01*
X2785Y2908D01*
X2727Y2947D01*
X2657Y2961D01*
X2640Y2958D01*
X2589Y3009D01*
X2593Y3027D01*
X2581Y3087D01*
X2547Y3137D01*
X2531Y3148D01*
X2522Y3223D01*
X3524Y4225D01*
X4979D01*
X5002Y4169D01*
D02*
G37*
G36*
X13976Y10120D02*
X13916Y10100D01*
X13899Y10123D01*
X13821Y10183D01*
X13730Y10221D01*
X13632Y10234D01*
X13534Y10221D01*
X13443Y10183D01*
X13365Y10123D01*
X13305Y10045D01*
X13268Y9954D01*
X13255Y9856D01*
X13268Y9759D01*
X13292Y9700D01*
X13220Y9628D01*
X9872D01*
X9549Y9951D01*
X9544Y9976D01*
X9515Y10020D01*
X9523Y10051D01*
X9539Y10080D01*
X10180D01*
X10242Y10038D01*
X10335Y10020D01*
X12795D01*
X12887Y10038D01*
X12966Y10091D01*
X13335Y10460D01*
X13387Y10538D01*
X13405Y10630D01*
Y10737D01*
X13509D01*
X13540Y10743D01*
X13566Y10760D01*
X13583Y10786D01*
X13589Y10817D01*
Y11329D01*
X13583Y11359D01*
X13566Y11386D01*
X13540Y11403D01*
X13527Y11405D01*
X13527Y11467D01*
X13548Y11471D01*
X13581Y11493D01*
X13603Y11526D01*
X13611Y11565D01*
Y11771D01*
X13214D01*
Y11821D01*
D01*
Y11771D01*
X12816D01*
Y11565D01*
X12824Y11526D01*
X12846Y11493D01*
X12879Y11471D01*
X12900Y11467D01*
X12900Y11405D01*
X12888Y11403D01*
X12862Y11386D01*
X12844Y11359D01*
X12838Y11329D01*
Y10817D01*
X12844Y10786D01*
X12862Y10760D01*
X12866Y10757D01*
X12880Y10696D01*
X12877Y10684D01*
X12696Y10502D01*
X12593D01*
X12586Y10521D01*
X12583Y10562D01*
X12607Y10578D01*
X12629Y10611D01*
X12636Y10650D01*
Y11033D01*
X12298D01*
X11960D01*
Y10650D01*
X11968Y10611D01*
X11990Y10578D01*
X12014Y10562D01*
X12011Y10521D01*
X12004Y10502D01*
X11658D01*
Y10575D01*
X11660Y10575D01*
X11686Y10593D01*
X11703Y10619D01*
X11709Y10650D01*
Y11516D01*
X11703Y11547D01*
X11686Y11573D01*
X11660Y11590D01*
X11658Y11590D01*
Y13207D01*
X12042D01*
X12073Y13213D01*
X12099Y13231D01*
X12116Y13257D01*
X12123Y13287D01*
Y13917D01*
X12162Y13973D01*
X12167Y13976D01*
X13976D01*
Y10120D01*
D02*
G37*
G36*
X2315Y2931D02*
X2325Y2916D01*
X2376Y2882D01*
X2436Y2870D01*
X2438Y2870D01*
X2484Y2818D01*
X2477Y2781D01*
Y2264D01*
X2491Y2195D01*
X2530Y2136D01*
X4414Y252D01*
X4391Y197D01*
X197D01*
Y653D01*
X257Y671D01*
X309Y604D01*
X391Y541D01*
X487Y501D01*
X541Y494D01*
Y886D01*
Y1278D01*
X487Y1271D01*
X391Y1231D01*
X309Y1168D01*
X257Y1100D01*
X197Y1119D01*
Y1702D01*
X257Y1714D01*
X264Y1697D01*
X324Y1619D01*
X402Y1559D01*
X493Y1521D01*
X591Y1509D01*
X688Y1521D01*
X779Y1559D01*
X857Y1619D01*
X917Y1697D01*
X941Y1755D01*
X1000D01*
X1050Y1765D01*
X1092Y1794D01*
X2240Y2941D01*
X2315Y2931D01*
D02*
G37*
G36*
X10770Y7354D02*
Y6974D01*
X10780Y6924D01*
X10808Y6881D01*
X11101Y6589D01*
X11143Y6560D01*
X11193Y6550D01*
X11302D01*
X11896Y5956D01*
X11878Y5890D01*
X11832Y5859D01*
X11794Y5802D01*
X11790Y5783D01*
X11959D01*
Y5683D01*
X11790D01*
X11794Y5665D01*
X11832Y5607D01*
Y5564D01*
X11794Y5506D01*
X11790Y5488D01*
X12127D01*
X12124Y5506D01*
X12085Y5564D01*
Y5607D01*
X12115Y5652D01*
X12181Y5671D01*
X12618Y5234D01*
X12596Y5171D01*
X12563Y5165D01*
X12512Y5131D01*
X12478Y5080D01*
X12466Y5020D01*
X12478Y4960D01*
X12500Y4927D01*
X12496Y4853D01*
X12495Y4852D01*
X12456Y4794D01*
X12442Y4724D01*
Y2411D01*
Y2339D01*
X12231Y2127D01*
X12165Y2146D01*
X12134Y2193D01*
X12076Y2232D01*
X12058Y2235D01*
Y2067D01*
X12008D01*
Y2017D01*
X11839D01*
X11843Y1999D01*
X11882Y1941D01*
X11928Y1910D01*
X11948Y1844D01*
X11343Y1239D01*
X11203D01*
Y2207D01*
X11218Y2228D01*
X11230Y2288D01*
X11218Y2348D01*
X11203Y2370D01*
Y4055D01*
X11193Y4105D01*
X11165Y4147D01*
X11094Y4218D01*
X11095Y4224D01*
X11118Y4279D01*
X11166Y4289D01*
X11224Y4328D01*
X11262Y4385D01*
X11266Y4404D01*
X11097D01*
Y4454D01*
X11047D01*
Y4622D01*
X11029Y4619D01*
X10971Y4580D01*
X10933Y4522D01*
X10923Y4474D01*
X10868Y4451D01*
X10862Y4451D01*
X10504Y4808D01*
X10504Y4809D01*
X10470Y4860D01*
X10419Y4894D01*
X10418Y4894D01*
X10218Y5094D01*
Y5541D01*
X10212Y5572D01*
X10195Y5598D01*
X10169Y5616D01*
X10156Y5618D01*
X10156Y5679D01*
X10177Y5683D01*
X10210Y5705D01*
X10232Y5739D01*
X10240Y5778D01*
Y5983D01*
X9843D01*
Y6083D01*
X10240D01*
Y6289D01*
X10232Y6328D01*
X10210Y6361D01*
X10177Y6384D01*
X10138Y6391D01*
X9983D01*
X9975Y6403D01*
X9961Y6451D01*
X10501Y6991D01*
X10529Y7034D01*
X10538Y7077D01*
X10553Y7100D01*
X10565Y7160D01*
X10553Y7220D01*
X10536Y7247D01*
X10572Y7301D01*
X10581Y7299D01*
X10641Y7311D01*
X10692Y7345D01*
X10710Y7373D01*
X10770Y7354D01*
D02*
G37*
G36*
X10623Y13973D02*
X10663Y13917D01*
Y13287D01*
X10669Y13257D01*
X10686Y13231D01*
X10712Y13213D01*
X10743Y13207D01*
X11176D01*
Y11596D01*
X11157D01*
X11126Y11590D01*
X11100Y11573D01*
X11082Y11547D01*
X11076Y11516D01*
Y10650D01*
X11082Y10619D01*
X11100Y10593D01*
X11126Y10575D01*
X11157Y10569D01*
X11176D01*
Y10502D01*
X10335D01*
X10242Y10483D01*
X10180Y10441D01*
X9003D01*
Y10482D01*
X8996Y10513D01*
X8979Y10539D01*
X8967Y10547D01*
X8962Y10566D01*
Y10596D01*
X8967Y10614D01*
X8979Y10622D01*
X8996Y10648D01*
X9003Y10679D01*
Y11270D01*
X9027Y11300D01*
X9147D01*
Y11157D01*
X9153Y11126D01*
X9171Y11100D01*
X9197Y11082D01*
X9227Y11076D01*
X9818D01*
X9849Y11082D01*
X9875Y11100D01*
X9892Y11126D01*
X9898Y11157D01*
Y11172D01*
X9989D01*
X10171Y10990D01*
Y10650D01*
X10177Y10619D01*
X10194Y10593D01*
X10220Y10575D01*
X10251Y10569D01*
X10723D01*
X10754Y10575D01*
X10780Y10593D01*
X10798Y10619D01*
X10804Y10650D01*
Y11516D01*
X10798Y11547D01*
X10780Y11573D01*
X10754Y11590D01*
X10723Y11596D01*
X10251D01*
X10242Y11594D01*
X10181Y11635D01*
X10089Y11653D01*
X9898D01*
Y11668D01*
X9892Y11699D01*
X9875Y11725D01*
X9849Y11742D01*
X9836Y11745D01*
X9836Y11806D01*
X9857Y11810D01*
X9890Y11832D01*
X9912Y11866D01*
X9920Y11905D01*
Y12110D01*
X9523D01*
X9125D01*
Y11905D01*
X9133Y11866D01*
X9149Y11841D01*
X9139Y11807D01*
X9124Y11781D01*
X4029D01*
X3936Y11763D01*
X3858Y11711D01*
X1506Y9359D01*
X1502Y9358D01*
X1434Y9330D01*
X1396Y9301D01*
X1336Y9327D01*
Y9641D01*
X1511Y9816D01*
X1536Y9821D01*
X1587Y9855D01*
X1621Y9906D01*
X1633Y9966D01*
X1621Y10026D01*
X1587Y10076D01*
X1586Y10077D01*
Y10149D01*
X1587Y10150D01*
X1621Y10201D01*
X1633Y10261D01*
X1621Y10321D01*
X1587Y10372D01*
X1567Y10385D01*
Y10456D01*
X1587Y10470D01*
X1621Y10521D01*
X1633Y10581D01*
X1621Y10641D01*
X1587Y10692D01*
X1567Y10705D01*
Y10776D01*
X1587Y10790D01*
X1621Y10841D01*
X1633Y10901D01*
X1621Y10961D01*
X1587Y11011D01*
X1536Y11045D01*
X1476Y11057D01*
X1416Y11045D01*
X1395Y11031D01*
X1206D01*
X1156Y11021D01*
X1113Y10993D01*
X483Y10362D01*
X454Y10320D01*
X444Y10270D01*
Y9367D01*
X375D01*
X344Y9361D01*
X318Y9343D01*
X301Y9317D01*
X295Y9287D01*
Y8887D01*
X301Y8856D01*
X318Y8830D01*
X344Y8812D01*
X375Y8806D01*
X758D01*
Y8743D01*
X483Y8467D01*
X454Y8425D01*
X444Y8375D01*
Y8367D01*
X375D01*
X344Y8361D01*
X318Y8343D01*
X301Y8317D01*
X295Y8287D01*
Y7887D01*
X301Y7856D01*
X318Y7830D01*
X344Y7812D01*
X375Y7806D01*
X721D01*
X746Y7746D01*
X483Y7483D01*
X454Y7441D01*
X444Y7391D01*
Y7367D01*
X375D01*
X344Y7361D01*
X318Y7343D01*
X301Y7317D01*
X295Y7287D01*
Y6887D01*
X301Y6856D01*
X318Y6830D01*
X344Y6812D01*
X375Y6806D01*
X663D01*
X685Y6751D01*
X483Y6548D01*
X454Y6506D01*
X444Y6456D01*
Y6367D01*
X375D01*
X344Y6361D01*
X318Y6343D01*
X301Y6317D01*
X295Y6287D01*
Y5887D01*
X301Y5856D01*
X318Y5830D01*
X344Y5812D01*
X375Y5806D01*
X775D01*
X806Y5812D01*
X832Y5830D01*
X849Y5856D01*
X855Y5887D01*
Y6287D01*
X849Y6317D01*
X832Y6343D01*
X806Y6361D01*
X775Y6367D01*
X755D01*
X730Y6427D01*
X1261Y6958D01*
X1331Y6946D01*
X1333Y6944D01*
X1334Y6943D01*
Y6231D01*
X1331Y6227D01*
X1303Y6159D01*
X1294Y6087D01*
X1303Y6014D01*
X1331Y5946D01*
X1376Y5888D01*
X1394Y5874D01*
Y4011D01*
Y3839D01*
X1408Y3769D01*
X1447Y3711D01*
X1521Y3637D01*
X1579Y3598D01*
X1649Y3584D01*
X1718Y3598D01*
X1776Y3637D01*
X1816Y3696D01*
X1829Y3765D01*
X1816Y3834D01*
X1776Y3892D01*
X1755Y3913D01*
Y4011D01*
Y5874D01*
X1774Y5888D01*
X1818Y5946D01*
X1846Y6014D01*
X1856Y6087D01*
X1846Y6159D01*
X1818Y6227D01*
X1816Y6231D01*
Y6943D01*
X1818Y6946D01*
X1846Y7014D01*
X1856Y7087D01*
X1846Y7159D01*
X1818Y7227D01*
X1816Y7231D01*
Y7943D01*
X1818Y7946D01*
X1846Y8014D01*
X1856Y8087D01*
X1846Y8159D01*
X1818Y8227D01*
X1816Y8231D01*
Y8943D01*
X1818Y8946D01*
X1846Y9014D01*
X1847Y9018D01*
X4128Y11300D01*
X4354D01*
X4390Y11244D01*
X4390Y11240D01*
X4343Y11208D01*
X4309Y11157D01*
X4297Y11097D01*
X4309Y11037D01*
X4343Y10987D01*
X4394Y10953D01*
X4419Y10948D01*
X5622Y9745D01*
X5610Y9687D01*
X5504D01*
X5473Y9680D01*
X5463Y9673D01*
X5452Y9680D01*
X5421Y9687D01*
X5307D01*
X5276Y9680D01*
X5250Y9663D01*
X5233Y9637D01*
X5227Y9606D01*
Y9075D01*
X5233Y9044D01*
X5234Y9043D01*
Y8957D01*
X5244Y8907D01*
X5272Y8864D01*
X5678Y8458D01*
X5720Y8430D01*
X5770Y8420D01*
X5820Y8430D01*
X5824Y8433D01*
X5972D01*
X5993Y8418D01*
X6053Y8406D01*
X6113Y8418D01*
X6164Y8452D01*
X6198Y8503D01*
X6210Y8563D01*
X6198Y8623D01*
X6164Y8674D01*
X6113Y8708D01*
X6089Y8713D01*
X6061Y8778D01*
X6075Y8798D01*
X6086Y8856D01*
X6096Y8863D01*
X6143Y8884D01*
X7147Y7880D01*
X7189Y7852D01*
X7239Y7842D01*
X7948D01*
X7998Y7852D01*
X8040Y7880D01*
X8693Y8533D01*
X8727Y8519D01*
X8749Y8504D01*
X8755Y8475D01*
X8762Y8465D01*
X8755Y8454D01*
X8748Y8423D01*
Y8309D01*
X8755Y8278D01*
X8762Y8268D01*
X8755Y8257D01*
X8748Y8226D01*
Y8155D01*
X8711Y8127D01*
X8688Y8119D01*
X8637Y8129D01*
X8577Y8117D01*
X8526Y8083D01*
X8492Y8032D01*
X8480Y7972D01*
X8492Y7912D01*
X8526Y7862D01*
X8577Y7828D01*
X8637Y7816D01*
X8658Y7820D01*
X8716Y7778D01*
X8717Y7741D01*
X8711Y7735D01*
X8651Y7724D01*
X8600Y7690D01*
X8566Y7639D01*
X8554Y7579D01*
X8566Y7519D01*
X8600Y7468D01*
X8651Y7434D01*
X8711Y7422D01*
X8748Y7391D01*
Y7325D01*
X8755Y7294D01*
X8762Y7283D01*
X8755Y7273D01*
X8748Y7242D01*
Y7128D01*
X8755Y7097D01*
X8762Y7087D01*
X8755Y7076D01*
X8748Y7045D01*
Y6931D01*
X8755Y6900D01*
X8762Y6890D01*
X8755Y6879D01*
X8748Y6848D01*
Y6734D01*
X8755Y6704D01*
X8762Y6693D01*
X8755Y6682D01*
X8748Y6652D01*
Y6537D01*
X8752Y6520D01*
X8735Y6494D01*
X8727Y6455D01*
Y6448D01*
X9094D01*
Y6348D01*
X8727D01*
Y6341D01*
X8735Y6302D01*
X8752Y6275D01*
X8748Y6258D01*
Y6144D01*
X8741Y6134D01*
X8720D01*
X8670Y6124D01*
X8627Y6096D01*
X8599Y6054D01*
X8589Y6004D01*
Y5478D01*
X8599Y5428D01*
X8627Y5386D01*
X9963Y4050D01*
Y4048D01*
X9949Y4026D01*
X9937Y3966D01*
X9949Y3907D01*
X9983Y3856D01*
X10033Y3822D01*
X10093Y3810D01*
X10153Y3822D01*
X10204Y3856D01*
X10238Y3907D01*
X10250Y3966D01*
X10238Y4026D01*
X10224Y4048D01*
Y4104D01*
X10214Y4154D01*
X10186Y4197D01*
X9464Y4918D01*
X9502Y4965D01*
X9517Y4955D01*
X9547Y4949D01*
X9994D01*
X10204Y4739D01*
X10214Y4689D01*
X10248Y4638D01*
X10299Y4604D01*
X10349Y4594D01*
X10942Y4001D01*
Y2370D01*
X10928Y2348D01*
X10916Y2288D01*
X10928Y2228D01*
X10942Y2207D01*
Y2096D01*
X10882Y2078D01*
X10855Y2119D01*
X10797Y2158D01*
X10778Y2162D01*
Y1993D01*
Y1825D01*
X10797Y1828D01*
X10855Y1867D01*
X10882Y1909D01*
X10942Y1890D01*
Y1239D01*
X9006D01*
X8937Y1225D01*
X8878Y1186D01*
X8856Y1152D01*
X8787Y1148D01*
X8786Y1148D01*
X8772Y1169D01*
X8721Y1203D01*
X8661Y1215D01*
X8601Y1203D01*
X8551Y1169D01*
X8517Y1118D01*
X8505Y1058D01*
X8517Y998D01*
X8551Y947D01*
X8601Y913D01*
X8661Y901D01*
X8721Y913D01*
X8772Y947D01*
X8786Y968D01*
X8787Y969D01*
X8856Y964D01*
X8878Y930D01*
X8937Y891D01*
X9006Y877D01*
X11417D01*
X11486Y891D01*
X11545Y930D01*
X12751Y2136D01*
X12790Y2195D01*
X12804Y2264D01*
Y2411D01*
Y4724D01*
X12790Y4794D01*
X12751Y4852D01*
X12750Y4853D01*
X12746Y4927D01*
X12768Y4960D01*
X12774Y4993D01*
X12837Y5015D01*
X13088Y4764D01*
X13130Y4736D01*
X13180Y4726D01*
X13281D01*
X13305Y4668D01*
X13365Y4590D01*
X13443Y4530D01*
X13534Y4492D01*
X13632Y4479D01*
X13730Y4492D01*
X13821Y4530D01*
X13899Y4590D01*
X13916Y4613D01*
X13976Y4592D01*
Y4280D01*
X13927Y4232D01*
X13337D01*
X13306Y4226D01*
X13280Y4208D01*
X13262Y4182D01*
X13256Y4152D01*
Y3561D01*
X13262Y3530D01*
X13280Y3504D01*
X13306Y3487D01*
X13337Y3481D01*
X13916D01*
X13936Y3472D01*
X13976Y3433D01*
Y197D01*
X7076D01*
X7053Y252D01*
X7204Y404D01*
X7238Y454D01*
X7285Y490D01*
X7330Y548D01*
X7358Y616D01*
X7368Y689D01*
X7358Y762D01*
X7330Y830D01*
X7285Y888D01*
X7227Y932D01*
X7159Y961D01*
X7087Y970D01*
X7014Y961D01*
X6946Y932D01*
X6888Y888D01*
X6843Y830D01*
X6815Y762D01*
X6814Y756D01*
X6754Y754D01*
X6750Y774D01*
X6716Y824D01*
X6665Y858D01*
X6639Y863D01*
X6512Y991D01*
X6488Y1026D01*
X6424Y1090D01*
X6389Y1114D01*
X5438Y2064D01*
X5463Y2124D01*
X5630D01*
X5661Y2131D01*
X5687Y2148D01*
X5704Y2174D01*
X5710Y2205D01*
Y2913D01*
X5704Y2944D01*
X5687Y2970D01*
X5661Y2988D01*
X5630Y2994D01*
X5396D01*
Y3168D01*
X5522D01*
X5552Y3174D01*
X5578Y3191D01*
X5596Y3217D01*
X5602Y3248D01*
Y3418D01*
X5624Y3423D01*
X5666Y3451D01*
X6164Y3948D01*
X6219Y3925D01*
Y3169D01*
X6225Y3139D01*
X6242Y3113D01*
X6269Y3095D01*
X6299Y3089D01*
X6692D01*
X6879Y2902D01*
X6877Y2886D01*
X6860Y2860D01*
X6857Y2848D01*
X6796Y2848D01*
X6792Y2869D01*
X6770Y2902D01*
X6737Y2924D01*
X6698Y2932D01*
X6492D01*
Y2534D01*
Y2137D01*
X6672D01*
X6701Y2132D01*
X6731Y2083D01*
Y1417D01*
X6737Y1387D01*
X6754Y1361D01*
X6780Y1343D01*
X6811Y1337D01*
X7441D01*
X7472Y1343D01*
X7498Y1361D01*
X7515Y1387D01*
X7521Y1417D01*
Y2052D01*
X7581Y2077D01*
X7833Y1825D01*
Y1417D01*
X7839Y1387D01*
X7857Y1361D01*
X7883Y1343D01*
X7913Y1337D01*
X8543D01*
X8574Y1343D01*
X8600Y1361D01*
X8617Y1387D01*
X8624Y1417D01*
Y2126D01*
X8633Y2137D01*
X8789D01*
Y2534D01*
Y2932D01*
X8583D01*
X8544Y2924D01*
X8511Y2902D01*
X8488Y2869D01*
X8484Y2848D01*
X8423Y2848D01*
X8421Y2860D01*
X8403Y2886D01*
X8398Y2890D01*
Y3089D01*
X8661D01*
X8692Y3095D01*
X8718Y3113D01*
X8736Y3139D01*
X8742Y3169D01*
Y4114D01*
X8736Y4145D01*
X8718Y4171D01*
X8692Y4188D01*
X8661Y4194D01*
X8481D01*
X8449Y4254D01*
X8457Y4266D01*
X8469Y4326D01*
X8457Y4386D01*
X8442Y4407D01*
Y4528D01*
X8448Y4536D01*
X8454Y4567D01*
Y5098D01*
X8448Y5129D01*
X8431Y5155D01*
X8405Y5173D01*
X8374Y5179D01*
X8260D01*
X8229Y5173D01*
X8219Y5166D01*
X8208Y5173D01*
X8177Y5179D01*
X8063D01*
X8032Y5173D01*
X8022Y5166D01*
X8011Y5173D01*
X7980Y5179D01*
X7866D01*
X7835Y5173D01*
X7825Y5166D01*
X7814Y5173D01*
X7783Y5179D01*
X7669D01*
X7639Y5173D01*
X7628Y5166D01*
X7617Y5173D01*
X7587Y5179D01*
X7472D01*
X7442Y5173D01*
X7431Y5166D01*
X7420Y5173D01*
X7390Y5179D01*
X7276D01*
X7245Y5173D01*
X7234Y5166D01*
X7224Y5173D01*
X7193Y5179D01*
X7079D01*
X7048Y5173D01*
X7037Y5166D01*
X7027Y5173D01*
X6996Y5179D01*
X6882D01*
X6851Y5173D01*
X6841Y5166D01*
X6830Y5173D01*
X6799Y5179D01*
X6685D01*
X6654Y5173D01*
X6644Y5166D01*
X6633Y5173D01*
X6602Y5179D01*
X6488D01*
X6457Y5173D01*
X6447Y5166D01*
X6436Y5173D01*
X6406Y5179D01*
X6291D01*
X6274Y5175D01*
X6248Y5193D01*
X6209Y5200D01*
X6202D01*
Y4833D01*
X6102D01*
Y5200D01*
X6094D01*
X6055Y5193D01*
X6029Y5175D01*
X6012Y5179D01*
X5898D01*
X5867Y5173D01*
X5856Y5166D01*
X5846Y5173D01*
X5815Y5179D01*
X5701D01*
X5670Y5173D01*
X5659Y5166D01*
X5649Y5173D01*
X5618Y5179D01*
X5504D01*
X5473Y5173D01*
X5463Y5166D01*
X5452Y5173D01*
X5421Y5179D01*
X5307D01*
X5276Y5173D01*
X5250Y5155D01*
X5233Y5129D01*
X5227Y5098D01*
Y4567D01*
X5230Y4553D01*
X5163Y4486D01*
X3469D01*
X3420Y4476D01*
X3377Y4448D01*
X989Y2059D01*
X918Y2073D01*
X917Y2074D01*
X857Y2153D01*
X779Y2213D01*
X688Y2250D01*
X591Y2263D01*
X493Y2250D01*
X402Y2213D01*
X324Y2153D01*
X264Y2074D01*
X257Y2058D01*
X197Y2069D01*
Y2702D01*
X257Y2714D01*
X264Y2697D01*
X324Y2619D01*
X402Y2559D01*
X493Y2521D01*
X591Y2509D01*
X688Y2521D01*
X779Y2559D01*
X857Y2619D01*
X917Y2697D01*
X941Y2755D01*
X1483D01*
X1533Y2765D01*
X1576Y2794D01*
X4262Y5480D01*
X4289D01*
X4290Y5479D01*
X4321Y5473D01*
X4852D01*
X4883Y5479D01*
X4909Y5496D01*
X4927Y5522D01*
X4933Y5553D01*
Y5667D01*
X4929Y5685D01*
X4947Y5711D01*
X4954Y5750D01*
Y5757D01*
X4587D01*
Y5857D01*
X4954D01*
Y5864D01*
X4947Y5903D01*
X4929Y5929D01*
X4933Y5947D01*
Y6061D01*
X4927Y6092D01*
X4919Y6102D01*
X4927Y6113D01*
X4933Y6144D01*
Y6258D01*
X4927Y6289D01*
X4919Y6299D01*
X4927Y6310D01*
X4933Y6341D01*
Y6455D01*
X4927Y6485D01*
X4919Y6496D01*
X4927Y6507D01*
X4933Y6537D01*
Y6652D01*
X4927Y6682D01*
X4919Y6693D01*
X4927Y6704D01*
X4933Y6734D01*
Y6848D01*
X4927Y6879D01*
X4919Y6890D01*
X4927Y6900D01*
X4933Y6931D01*
Y7045D01*
X4927Y7076D01*
X4919Y7087D01*
X4927Y7097D01*
X4933Y7128D01*
Y7242D01*
X4927Y7273D01*
X4919Y7283D01*
X4927Y7294D01*
X4933Y7325D01*
Y7439D01*
X4927Y7470D01*
X4919Y7480D01*
X4927Y7491D01*
X4933Y7522D01*
Y7636D01*
X4927Y7667D01*
X4919Y7677D01*
X4927Y7688D01*
X4933Y7718D01*
Y7833D01*
X4927Y7863D01*
X4919Y7874D01*
X4927Y7885D01*
X4933Y7915D01*
Y8030D01*
X4927Y8060D01*
X4919Y8071D01*
X4927Y8081D01*
X4933Y8112D01*
Y8226D01*
X4929Y8244D01*
X4947Y8270D01*
X4954Y8309D01*
Y8316D01*
X4587D01*
Y8416D01*
X4954D01*
Y8423D01*
X4947Y8462D01*
X4929Y8488D01*
X4933Y8506D01*
Y8620D01*
X4927Y8651D01*
X4909Y8677D01*
X4883Y8694D01*
X4852Y8700D01*
X4321D01*
X4290Y8694D01*
X4289Y8693D01*
X4165D01*
Y9006D01*
X4159Y9037D01*
X4141Y9063D01*
X4115Y9080D01*
X4103Y9083D01*
X4103Y9144D01*
X4124Y9148D01*
X4157Y9170D01*
X4179Y9203D01*
X4187Y9242D01*
Y9448D01*
X3392D01*
Y9242D01*
X3400Y9203D01*
X3422Y9170D01*
X3455Y9148D01*
X3476Y9144D01*
X3476Y9083D01*
X3463Y9080D01*
X3437Y9063D01*
X3420Y9037D01*
X3414Y9006D01*
Y8494D01*
X3420Y8463D01*
X3436Y8439D01*
Y8095D01*
X3450Y8026D01*
X3489Y7968D01*
X3548Y7929D01*
X3617Y7915D01*
X3686Y7929D01*
X3745Y7968D01*
X3784Y8026D01*
X3793Y8073D01*
X3856Y8088D01*
X3875Y8058D01*
X3926Y8024D01*
X3986Y8013D01*
X4046Y8024D01*
X4068Y8039D01*
X4233D01*
X4241Y8030D01*
Y7915D01*
X4247Y7885D01*
X4254Y7874D01*
X4247Y7863D01*
X4241Y7833D01*
Y7718D01*
X4247Y7688D01*
X4254Y7677D01*
X4247Y7667D01*
X4241Y7636D01*
Y7522D01*
X4247Y7491D01*
X4254Y7480D01*
X4247Y7470D01*
X4241Y7439D01*
Y7325D01*
X4247Y7294D01*
X4254Y7283D01*
X4247Y7273D01*
X4241Y7242D01*
Y7128D01*
X4245Y7105D01*
X4234Y7084D01*
X4226Y7081D01*
X4170Y7083D01*
X4166Y7085D01*
X4157Y7100D01*
X4124Y7122D01*
X4085Y7130D01*
X3839D01*
Y6772D01*
X3789D01*
Y6722D01*
X3392D01*
Y6516D01*
X3400Y6477D01*
X3422Y6444D01*
X3455Y6422D01*
X3476Y6417D01*
X3476Y6356D01*
X3463Y6354D01*
X3437Y6336D01*
X3420Y6310D01*
X3414Y6280D01*
Y6234D01*
X3174D01*
X3105Y6220D01*
X3046Y6181D01*
X3007Y6122D01*
X2994Y6053D01*
X3007Y5984D01*
X3046Y5925D01*
X3105Y5886D01*
X3174Y5873D01*
X3414D01*
Y5768D01*
X3420Y5737D01*
X3437Y5711D01*
X3463Y5694D01*
X3494Y5687D01*
X4016D01*
X4040Y5627D01*
X1429Y3016D01*
X941D01*
X917Y3074D01*
X857Y3153D01*
X779Y3213D01*
X688Y3250D01*
X591Y3263D01*
X493Y3250D01*
X402Y3213D01*
X324Y3153D01*
X264Y3074D01*
X257Y3058D01*
X197Y3069D01*
Y3495D01*
X200Y3498D01*
X257Y3522D01*
X265Y3516D01*
X295Y3510D01*
X886D01*
X917Y3516D01*
X943Y3534D01*
X960Y3560D01*
X966Y3591D01*
Y4181D01*
X960Y4212D01*
X943Y4238D01*
X917Y4255D01*
X886Y4261D01*
X295D01*
X265Y4255D01*
X257Y4250D01*
X200Y4274D01*
X197Y4277D01*
X197Y13976D01*
X10618D01*
X10623Y13973D01*
D02*
G37*
G36*
X13305Y8668D02*
X13365Y8590D01*
X13443Y8530D01*
X13534Y8492D01*
X13632Y8479D01*
X13730Y8492D01*
X13821Y8530D01*
X13899Y8590D01*
X13916Y8613D01*
X13976Y8592D01*
Y8120D01*
X13916Y8100D01*
X13899Y8123D01*
X13821Y8183D01*
X13730Y8221D01*
X13632Y8234D01*
X13534Y8221D01*
X13443Y8183D01*
X13365Y8123D01*
X13340Y8091D01*
X13280Y8111D01*
Y8324D01*
X13285Y8331D01*
X13297Y8391D01*
X13285Y8451D01*
X13251Y8502D01*
X13200Y8536D01*
X13140Y8547D01*
X13080Y8536D01*
X13071Y8530D01*
X13057Y8530D01*
X12996Y8552D01*
X12971Y8591D01*
X12913Y8629D01*
X12894Y8633D01*
Y8465D01*
Y8296D01*
X12913Y8300D01*
X12938Y8316D01*
X12940Y8317D01*
X12999Y8285D01*
Y7348D01*
X13010Y7295D01*
X13040Y7249D01*
X13287Y7002D01*
X13268Y6954D01*
X13255Y6856D01*
X13268Y6759D01*
X13305Y6668D01*
X13365Y6590D01*
X13443Y6530D01*
X13534Y6492D01*
X13632Y6479D01*
X13730Y6492D01*
X13821Y6530D01*
X13899Y6590D01*
X13916Y6613D01*
X13976Y6592D01*
Y6150D01*
X13920Y6131D01*
X13914Y6138D01*
X13831Y6202D01*
X13735Y6241D01*
X13682Y6248D01*
Y5856D01*
Y5464D01*
X13735Y5471D01*
X13831Y5511D01*
X13914Y5574D01*
X13920Y5582D01*
X13976Y5563D01*
Y5120D01*
X13916Y5100D01*
X13899Y5123D01*
X13821Y5183D01*
X13730Y5221D01*
X13632Y5234D01*
X13534Y5221D01*
X13443Y5183D01*
X13365Y5123D01*
X13305Y5045D01*
X13288Y5003D01*
X13226Y4995D01*
X11448Y6773D01*
X11405Y6801D01*
X11356Y6811D01*
X11291D01*
X11285Y6822D01*
X11314Y6890D01*
X11330Y6893D01*
X11351Y6907D01*
X11491D01*
X11541Y6917D01*
X11583Y6945D01*
X11612Y6987D01*
X11622Y7037D01*
Y8137D01*
X11636Y8159D01*
X11648Y8219D01*
X11636Y8278D01*
X11602Y8329D01*
X11551Y8363D01*
X11491Y8375D01*
X11431Y8363D01*
X11380Y8329D01*
X11346Y8278D01*
X11334Y8219D01*
X11346Y8159D01*
X11361Y8137D01*
Y7233D01*
X11356Y7225D01*
X11301Y7188D01*
X11270Y7194D01*
X11210Y7182D01*
X11159Y7148D01*
X11125Y7097D01*
X11118Y7063D01*
X11060Y7034D01*
X11056Y7034D01*
X11031Y7052D01*
Y7554D01*
X11021Y7604D01*
X10993Y7646D01*
X10760Y7879D01*
X10760Y7879D01*
X9984Y8655D01*
X9968Y8666D01*
X9986Y8726D01*
X11741D01*
X11773Y8666D01*
X11767Y8657D01*
X11753Y8588D01*
Y8292D01*
X11767Y8223D01*
X11806Y8165D01*
X12418Y7553D01*
Y6422D01*
X12432Y6353D01*
X12471Y6295D01*
X12464Y6227D01*
X12454Y6212D01*
X12442Y6152D01*
X12454Y6092D01*
X12488Y6041D01*
X12538Y6007D01*
X12598Y5995D01*
X12658Y6007D01*
X12709Y6041D01*
X12743Y6092D01*
X12755Y6152D01*
X12743Y6212D01*
X12733Y6227D01*
X12726Y6295D01*
X12765Y6353D01*
X12779Y6422D01*
Y7628D01*
X12765Y7697D01*
X12726Y7756D01*
X12115Y8367D01*
Y8588D01*
X12101Y8657D01*
X12095Y8666D01*
X12127Y8726D01*
X13281D01*
X13305Y8668D01*
D02*
G37*
G36*
X7265Y11274D02*
X7275Y11240D01*
X7242Y11190D01*
X7238Y11172D01*
X7406D01*
Y11072D01*
X7238D01*
X7242Y11054D01*
X7280Y10996D01*
Y10978D01*
X7242Y10920D01*
X7238Y10901D01*
X7406D01*
Y10851D01*
X7456D01*
Y10683D01*
X7475Y10687D01*
X7500Y10704D01*
X7543Y10686D01*
X7562Y10672D01*
X7568Y10640D01*
X7590Y10607D01*
Y10554D01*
X7568Y10521D01*
X7560Y10482D01*
Y10462D01*
X7505Y10445D01*
X7500Y10446D01*
X7468Y10495D01*
X7417Y10529D01*
X7357Y10541D01*
X7297Y10529D01*
X7246Y10495D01*
X7212Y10444D01*
X7201Y10384D01*
X7212Y10324D01*
X7246Y10273D01*
X7279Y10251D01*
X7268Y10188D01*
X7248Y10184D01*
X7197Y10150D01*
X7167Y10105D01*
X7155Y10098D01*
X7100Y10088D01*
X7089Y10099D01*
X7084Y10124D01*
X7050Y10175D01*
X6999Y10209D01*
X6939Y10221D01*
X6879Y10209D01*
X6828Y10175D01*
X6794Y10124D01*
X6793Y10119D01*
X6727Y10095D01*
X6704Y10110D01*
X6644Y10122D01*
X6584Y10110D01*
X6533Y10076D01*
X6499Y10026D01*
X6487Y9966D01*
X6495Y9926D01*
X6442Y9891D01*
X6408Y9914D01*
X6348Y9925D01*
X6288Y9914D01*
X6238Y9880D01*
X6204Y9829D01*
X6192Y9769D01*
X6196Y9747D01*
X6152Y9687D01*
X6151Y9687D01*
X6094D01*
X6085Y9694D01*
Y9966D01*
X6075Y10015D01*
X6047Y10058D01*
X5559Y10546D01*
Y11001D01*
X5573Y11023D01*
X5585Y11083D01*
X5573Y11143D01*
X5539Y11193D01*
X5488Y11227D01*
X5428Y11239D01*
X5368Y11227D01*
X5317Y11193D01*
X5283Y11143D01*
X5271Y11083D01*
X5283Y11023D01*
X5298Y11001D01*
Y10523D01*
X5238Y10498D01*
X4604Y11132D01*
X4599Y11157D01*
X4565Y11208D01*
X4518Y11240D01*
X4517Y11244D01*
X4553Y11300D01*
X7249D01*
X7265Y11274D01*
D02*
G37*
%LPC*%
G36*
X4468Y3941D02*
X4262D01*
X4223Y3933D01*
X4190Y3911D01*
X4168Y3878D01*
X4160Y3839D01*
Y3593D01*
X4468D01*
Y3941D01*
D02*
G37*
G36*
X3569Y3417D02*
Y3298D01*
X3687D01*
X3684Y3316D01*
X3645Y3374D01*
X3587Y3413D01*
X3569Y3417D01*
D02*
G37*
G36*
X3469D02*
X3450Y3413D01*
X3393Y3374D01*
X3354Y3316D01*
X3350Y3298D01*
X3469D01*
Y3417D01*
D02*
G37*
G36*
X3444Y2804D02*
X3326D01*
X3329Y2786D01*
X3368Y2728D01*
X3426Y2689D01*
X3444Y2686D01*
Y2804D01*
D02*
G37*
G36*
X4468Y3493D02*
X4160D01*
Y3248D01*
X4168Y3209D01*
X4190Y3176D01*
X4223Y3154D01*
X4262Y3146D01*
X4468D01*
Y3493D01*
D02*
G37*
G36*
X3687Y3198D02*
X3350D01*
X3354Y3180D01*
X3393Y3122D01*
X3448Y3085D01*
X3450Y3074D01*
X3445Y3023D01*
X3426Y3019D01*
X3368Y2980D01*
X3329Y2923D01*
X3326Y2904D01*
X3663D01*
X3659Y2923D01*
X3620Y2980D01*
X3565Y3018D01*
X3563Y3028D01*
X3568Y3079D01*
X3587Y3083D01*
X3645Y3122D01*
X3684Y3180D01*
X3687Y3198D01*
D02*
G37*
G36*
X3663Y2804D02*
X3544D01*
Y2686D01*
X3562Y2689D01*
X3620Y2728D01*
X3659Y2786D01*
X3663Y2804D01*
D02*
G37*
G36*
X4528Y2994D02*
X3898D01*
X3867Y2988D01*
X3841Y2970D01*
X3823Y2944D01*
X3817Y2913D01*
Y2205D01*
X3823Y2174D01*
X3841Y2148D01*
X3867Y2131D01*
X3898Y2124D01*
X4032D01*
Y1501D01*
X4027Y1476D01*
X4041Y1407D01*
X4080Y1349D01*
X4139Y1309D01*
X4208Y1296D01*
X4277Y1309D01*
X4335Y1349D01*
X4340Y1354D01*
X4379Y1412D01*
X4393Y1481D01*
Y2124D01*
X4528D01*
X4558Y2131D01*
X4584Y2148D01*
X4602Y2174D01*
X4608Y2205D01*
Y2913D01*
X4602Y2944D01*
X4584Y2970D01*
X4558Y2988D01*
X4528Y2994D01*
D02*
G37*
G36*
X13164Y12179D02*
X12918D01*
X12879Y12171D01*
X12846Y12149D01*
X12824Y12116D01*
X12816Y12077D01*
Y11871D01*
X13164D01*
Y12179D01*
D02*
G37*
G36*
X12534Y11618D02*
X12348D01*
Y11133D01*
X12636D01*
Y11516D01*
X12629Y11555D01*
X12607Y11588D01*
X12573Y11610D01*
X12534Y11618D01*
D02*
G37*
G36*
X12248D02*
X12062D01*
X12023Y11610D01*
X11990Y11588D01*
X11968Y11555D01*
X11960Y11516D01*
Y11133D01*
X12248D01*
Y11618D01*
D02*
G37*
G36*
X12230Y12816D02*
Y12698D01*
X12349D01*
X12345Y12716D01*
X12306Y12774D01*
X12248Y12812D01*
X12230Y12816D01*
D02*
G37*
G36*
X12130D02*
X12112Y12812D01*
X12054Y12774D01*
X12015Y12716D01*
X12012Y12698D01*
X12130D01*
Y12816D01*
D02*
G37*
G36*
X12865Y12598D02*
X12747D01*
Y12479D01*
X12765Y12483D01*
X12823Y12521D01*
X12862Y12579D01*
X12865Y12598D01*
D02*
G37*
G36*
X12747Y12816D02*
Y12698D01*
X12865D01*
X12862Y12716D01*
X12823Y12774D01*
X12765Y12812D01*
X12747Y12816D01*
D02*
G37*
G36*
X12647D02*
X12629Y12812D01*
X12571Y12774D01*
X12532Y12716D01*
X12528Y12698D01*
X12647D01*
Y12816D01*
D02*
G37*
G36*
X13509Y12179D02*
X13264D01*
Y11871D01*
X13611D01*
Y12077D01*
X13603Y12116D01*
X13581Y12149D01*
X13548Y12171D01*
X13509Y12179D01*
D02*
G37*
G36*
X12647Y12598D02*
X12528D01*
X12532Y12579D01*
X12571Y12521D01*
X12629Y12483D01*
X12647Y12479D01*
Y12598D01*
D02*
G37*
G36*
X12349D02*
X12230D01*
Y12479D01*
X12248Y12483D01*
X12306Y12521D01*
X12345Y12579D01*
X12349Y12598D01*
D02*
G37*
G36*
X12130D02*
X12012D01*
X12015Y12579D01*
X12054Y12521D01*
X12112Y12483D01*
X12130Y12479D01*
Y12598D01*
D02*
G37*
G36*
X2289Y2383D02*
Y2265D01*
X2408D01*
X2404Y2283D01*
X2365Y2341D01*
X2307Y2379D01*
X2289Y2383D01*
D02*
G37*
G36*
X2189D02*
X2171Y2379D01*
X2113Y2341D01*
X2074Y2283D01*
X2071Y2265D01*
X2189D01*
Y2383D01*
D02*
G37*
G36*
X2115Y934D02*
X1997D01*
X2001Y916D01*
X2039Y858D01*
X2097Y819D01*
X2115Y816D01*
Y934D01*
D02*
G37*
G36*
X1891Y934D02*
X1772D01*
Y816D01*
X1791Y819D01*
X1849Y858D01*
X1887Y916D01*
X1891Y934D01*
D02*
G37*
G36*
X1672D02*
X1554D01*
X1558Y916D01*
X1596Y858D01*
X1654Y819D01*
X1672Y816D01*
Y934D01*
D02*
G37*
G36*
X2334Y934D02*
X2215D01*
Y816D01*
X2234Y819D01*
X2292Y858D01*
X2330Y916D01*
X2334Y934D01*
D02*
G37*
G36*
X983Y836D02*
X641D01*
Y494D01*
X694Y501D01*
X790Y541D01*
X872Y604D01*
X936Y686D01*
X976Y783D01*
X983Y836D01*
D02*
G37*
G36*
X2408Y2165D02*
X2289D01*
Y2046D01*
X2307Y2050D01*
X2365Y2088D01*
X2404Y2146D01*
X2408Y2165D01*
D02*
G37*
G36*
X2189D02*
X2071D01*
X2074Y2146D01*
X2113Y2088D01*
X2171Y2050D01*
X2189Y2046D01*
Y2165D01*
D02*
G37*
G36*
X2115Y1153D02*
X2097Y1149D01*
X2039Y1110D01*
X2001Y1053D01*
X1997Y1034D01*
X2115D01*
Y1153D01*
D02*
G37*
G36*
X641Y1278D02*
Y936D01*
X983D01*
X976Y989D01*
X936Y1085D01*
X872Y1168D01*
X790Y1231D01*
X694Y1271D01*
X641Y1278D01*
D02*
G37*
G36*
X1772Y1153D02*
Y1034D01*
X1891D01*
X1887Y1053D01*
X1849Y1110D01*
X1791Y1149D01*
X1772Y1153D01*
D02*
G37*
G36*
X1672D02*
X1654Y1149D01*
X1596Y1110D01*
X1558Y1053D01*
X1554Y1034D01*
X1672D01*
Y1153D01*
D02*
G37*
G36*
X2215Y1153D02*
Y1034D01*
X2334D01*
X2330Y1053D01*
X2292Y1110D01*
X2234Y1149D01*
X2215Y1153D01*
D02*
G37*
G36*
X12176Y2435D02*
X12058D01*
Y2317D01*
X12076Y2320D01*
X12134Y2359D01*
X12173Y2417D01*
X12176Y2435D01*
D02*
G37*
G36*
X11958Y2654D02*
X11940Y2650D01*
X11882Y2611D01*
X11843Y2554D01*
X11839Y2535D01*
X11958D01*
Y2654D01*
D02*
G37*
G36*
Y2235D02*
X11940Y2232D01*
X11882Y2193D01*
X11843Y2135D01*
X11839Y2117D01*
X11958D01*
Y2235D01*
D02*
G37*
G36*
Y2435D02*
X11839D01*
X11843Y2417D01*
X11882Y2359D01*
X11940Y2320D01*
X11958Y2317D01*
Y2435D01*
D02*
G37*
G36*
X12058Y2654D02*
Y2535D01*
X12176D01*
X12173Y2554D01*
X12134Y2611D01*
X12076Y2650D01*
X12058Y2654D01*
D02*
G37*
G36*
X11147Y4622D02*
Y4504D01*
X11266D01*
X11262Y4522D01*
X11224Y4580D01*
X11166Y4619D01*
X11147Y4622D01*
D02*
G37*
G36*
X11909Y5388D02*
X11790D01*
X11794Y5370D01*
X11832Y5312D01*
X11890Y5273D01*
X11909Y5270D01*
Y5388D01*
D02*
G37*
G36*
X12127D02*
X12009D01*
Y5270D01*
X12027Y5273D01*
X12085Y5312D01*
X12124Y5370D01*
X12127Y5388D01*
D02*
G37*
G36*
X9196Y2484D02*
X8889D01*
Y2137D01*
X9094D01*
X9134Y2145D01*
X9167Y2167D01*
X9189Y2200D01*
X9196Y2239D01*
Y2484D01*
D02*
G37*
G36*
X6392D02*
X6084D01*
Y2239D01*
X6092Y2200D01*
X6114Y2167D01*
X6147Y2145D01*
X6186Y2137D01*
X6392D01*
Y2484D01*
D02*
G37*
G36*
X3150Y5509D02*
X3131Y5505D01*
X3073Y5467D01*
X3035Y5409D01*
X3024Y5353D01*
X3017Y5337D01*
X2970Y5290D01*
X2934Y5283D01*
X2876Y5244D01*
X2837Y5186D01*
X2833Y5168D01*
X3002D01*
Y5118D01*
X3052D01*
Y4950D01*
X3070Y4953D01*
X3128Y4992D01*
X3167Y5050D01*
X3178Y5105D01*
X3184Y5122D01*
X3232Y5168D01*
X3268Y5176D01*
X3326Y5214D01*
X3364Y5272D01*
X3368Y5290D01*
X3200D01*
Y5340D01*
X3150D01*
Y5509D01*
D02*
G37*
G36*
X2952Y5068D02*
X2833D01*
X2837Y5050D01*
X2876Y4992D01*
X2934Y4953D01*
X2952Y4950D01*
Y5068D01*
D02*
G37*
G36*
X9094Y2932D02*
X8889D01*
Y2584D01*
X9196D01*
Y2830D01*
X9189Y2869D01*
X9167Y2902D01*
X9134Y2924D01*
X9094Y2932D01*
D02*
G37*
G36*
X6392D02*
X6186D01*
X6147Y2924D01*
X6114Y2902D01*
X6092Y2869D01*
X6084Y2830D01*
Y2584D01*
X6392D01*
Y2932D01*
D02*
G37*
G36*
X8137Y985D02*
Y739D01*
X8383D01*
X8379Y767D01*
X8349Y840D01*
X8301Y903D01*
X8238Y951D01*
X8165Y981D01*
X8137Y985D01*
D02*
G37*
G36*
X8037D02*
X8008Y981D01*
X7935Y951D01*
X7873Y903D01*
X7825Y840D01*
X7794Y767D01*
X7791Y739D01*
X8037D01*
Y985D01*
D02*
G37*
G36*
X11933Y516D02*
X11815D01*
X11818Y498D01*
X11857Y440D01*
X11915Y401D01*
X11933Y397D01*
Y516D01*
D02*
G37*
G36*
X8383Y639D02*
X8137D01*
Y393D01*
X8165Y397D01*
X8238Y427D01*
X8301Y475D01*
X8349Y538D01*
X8379Y611D01*
X8383Y639D01*
D02*
G37*
G36*
X8037D02*
X7791D01*
X7794Y611D01*
X7825Y538D01*
X7873Y475D01*
X7935Y427D01*
X8008Y397D01*
X8037Y393D01*
Y639D01*
D02*
G37*
G36*
X12152Y836D02*
X11815D01*
X11818Y818D01*
X11855Y763D01*
X11863Y746D01*
Y706D01*
X11855Y689D01*
X11818Y634D01*
X11815Y616D01*
X12152D01*
X12148Y634D01*
X12112Y689D01*
X12104Y706D01*
Y746D01*
X12112Y763D01*
X12148Y818D01*
X12152Y836D01*
D02*
G37*
G36*
Y516D02*
X12033D01*
Y397D01*
X12052Y401D01*
X12109Y440D01*
X12148Y498D01*
X12152Y516D01*
D02*
G37*
G36*
X11933Y1054D02*
X11915Y1051D01*
X11857Y1012D01*
X11818Y954D01*
X11815Y936D01*
X11933D01*
Y1054D01*
D02*
G37*
G36*
X13091Y1855D02*
X13087Y1854D01*
X13083Y1855D01*
X12948Y1842D01*
X12940Y1839D01*
X12932Y1839D01*
X12802Y1799D01*
X12795Y1795D01*
X12788Y1793D01*
X12668Y1729D01*
X12662Y1724D01*
X12655Y1720D01*
X12550Y1634D01*
X12545Y1628D01*
X12539Y1623D01*
X12453Y1518D01*
X12449Y1511D01*
X12444Y1505D01*
X12380Y1385D01*
X12378Y1378D01*
X12374Y1371D01*
X12335Y1241D01*
X12334Y1233D01*
X12332Y1226D01*
X12318Y1091D01*
X12319Y1083D01*
X12318Y1075D01*
X12332Y940D01*
X12334Y932D01*
X12335Y924D01*
X12374Y794D01*
X12378Y787D01*
X12380Y780D01*
X12444Y660D01*
X12449Y654D01*
X12453Y647D01*
X12539Y542D01*
X12545Y537D01*
X12550Y531D01*
X12655Y445D01*
X12662Y441D01*
X12668Y436D01*
X12788Y372D01*
X12795Y370D01*
X12802Y366D01*
X12932Y327D01*
X12940Y326D01*
X12948Y324D01*
X13083Y310D01*
X13087Y311D01*
X13091Y310D01*
X13094Y311D01*
X13098Y310D01*
X13233Y324D01*
X13241Y326D01*
X13249Y327D01*
X13379Y366D01*
X13386Y370D01*
X13393Y372D01*
X13513Y436D01*
X13519Y441D01*
X13526Y445D01*
X13631Y531D01*
X13636Y537D01*
X13642Y542D01*
X13728Y647D01*
X13732Y654D01*
X13737Y660D01*
X13801Y780D01*
X13803Y787D01*
X13807Y794D01*
X13846Y924D01*
X13847Y932D01*
X13849Y940D01*
X13863Y1075D01*
X13862Y1083D01*
X13863Y1091D01*
X13849Y1226D01*
X13847Y1233D01*
X13846Y1241D01*
X13807Y1371D01*
X13803Y1378D01*
X13801Y1385D01*
X13737Y1505D01*
X13732Y1511D01*
X13728Y1518D01*
X13642Y1623D01*
X13636Y1628D01*
X13631Y1634D01*
X13526Y1720D01*
X13519Y1724D01*
X13513Y1729D01*
X13393Y1793D01*
X13386Y1795D01*
X13379Y1799D01*
X13249Y1839D01*
X13241Y1839D01*
X13233Y1842D01*
X13098Y1855D01*
X13094Y1854D01*
X13091Y1855D01*
D02*
G37*
G36*
X10678Y1943D02*
X10560D01*
X10563Y1925D01*
X10602Y1867D01*
X10660Y1828D01*
X10678Y1825D01*
Y1943D01*
D02*
G37*
G36*
Y2162D02*
X10660Y2158D01*
X10602Y2119D01*
X10563Y2061D01*
X10560Y2043D01*
X10678D01*
Y2162D01*
D02*
G37*
G36*
X12033Y1054D02*
Y936D01*
X12152D01*
X12148Y954D01*
X12109Y1012D01*
X12052Y1051D01*
X12033Y1054D01*
D02*
G37*
G36*
X4085Y9856D02*
X3839D01*
Y9548D01*
X4187D01*
Y9754D01*
X4179Y9793D01*
X4157Y9826D01*
X4124Y9848D01*
X4085Y9856D01*
D02*
G37*
G36*
X3739D02*
X3494D01*
X3455Y9848D01*
X3422Y9826D01*
X3400Y9793D01*
X3392Y9754D01*
Y9548D01*
X3739D01*
Y9856D01*
D02*
G37*
G36*
X2525Y9037D02*
X2279D01*
X2283Y9008D01*
X2313Y8935D01*
X2361Y8873D01*
X2424Y8825D01*
X2496Y8794D01*
X2525Y8791D01*
Y9037D01*
D02*
G37*
G36*
X2625Y9383D02*
Y9137D01*
X2871D01*
X2867Y9165D01*
X2837Y9238D01*
X2789Y9301D01*
X2726Y9349D01*
X2653Y9379D01*
X2625Y9383D01*
D02*
G37*
G36*
X2525D02*
X2496Y9379D01*
X2424Y9349D01*
X2361Y9301D01*
X2313Y9238D01*
X2283Y9165D01*
X2279Y9137D01*
X2525D01*
Y9383D01*
D02*
G37*
G36*
X2871Y9037D02*
X2625D01*
Y8791D01*
X2653Y8794D01*
X2726Y8825D01*
X2789Y8873D01*
X2837Y8935D01*
X2867Y9008D01*
X2871Y9037D01*
D02*
G37*
G36*
X1083Y13863D02*
X1079Y13862D01*
X1075Y13863D01*
X940Y13849D01*
X932Y13847D01*
X924Y13846D01*
X794Y13807D01*
X787Y13803D01*
X780Y13801D01*
X660Y13737D01*
X654Y13732D01*
X647Y13728D01*
X542Y13642D01*
X537Y13636D01*
X531Y13631D01*
X445Y13526D01*
X441Y13519D01*
X436Y13513D01*
X372Y13393D01*
X370Y13386D01*
X366Y13379D01*
X327Y13249D01*
X326Y13241D01*
X324Y13233D01*
X310Y13098D01*
X311Y13091D01*
X310Y13083D01*
X324Y12948D01*
X326Y12940D01*
X327Y12932D01*
X366Y12802D01*
X370Y12795D01*
X372Y12788D01*
X436Y12668D01*
X441Y12662D01*
X445Y12655D01*
X531Y12550D01*
X537Y12545D01*
X542Y12539D01*
X647Y12453D01*
X654Y12449D01*
X660Y12444D01*
X780Y12380D01*
X787Y12378D01*
X794Y12374D01*
X924Y12335D01*
X932Y12334D01*
X940Y12332D01*
X1075Y12318D01*
X1079Y12319D01*
X1083Y12318D01*
X1087Y12319D01*
X1091Y12318D01*
X1226Y12332D01*
X1233Y12334D01*
X1241Y12335D01*
X1371Y12374D01*
X1378Y12378D01*
X1385Y12380D01*
X1505Y12444D01*
X1511Y12449D01*
X1518Y12453D01*
X1623Y12539D01*
X1628Y12545D01*
X1634Y12550D01*
X1720Y12655D01*
X1724Y12662D01*
X1729Y12668D01*
X1793Y12788D01*
X1795Y12795D01*
X1799Y12802D01*
X1839Y12932D01*
X1839Y12940D01*
X1842Y12948D01*
X1855Y13083D01*
X1854Y13091D01*
X1855Y13098D01*
X1842Y13233D01*
X1839Y13241D01*
X1839Y13249D01*
X1799Y13379D01*
X1795Y13386D01*
X1793Y13393D01*
X1729Y13513D01*
X1724Y13519D01*
X1720Y13526D01*
X1634Y13631D01*
X1628Y13636D01*
X1623Y13642D01*
X1518Y13728D01*
X1511Y13732D01*
X1505Y13737D01*
X1385Y13801D01*
X1378Y13803D01*
X1371Y13807D01*
X1241Y13846D01*
X1233Y13847D01*
X1226Y13849D01*
X1091Y13863D01*
X1087Y13862D01*
X1083Y13863D01*
D02*
G37*
G36*
X9818Y12518D02*
X9573D01*
Y12210D01*
X9920D01*
Y12416D01*
X9912Y12455D01*
X9890Y12488D01*
X9857Y12511D01*
X9818Y12518D01*
D02*
G37*
G36*
X9473D02*
X9227D01*
X9188Y12511D01*
X9155Y12488D01*
X9133Y12455D01*
X9125Y12416D01*
Y12210D01*
X9473D01*
Y12518D01*
D02*
G37*
G36*
X2525Y6037D02*
X2279D01*
X2283Y6008D01*
X2313Y5935D01*
X2361Y5873D01*
X2424Y5825D01*
X2496Y5794D01*
X2525Y5791D01*
Y6037D01*
D02*
G37*
G36*
X8072Y5877D02*
Y5759D01*
X8190D01*
X8187Y5777D01*
X8148Y5835D01*
X8090Y5874D01*
X8072Y5877D01*
D02*
G37*
G36*
X7972D02*
X7953Y5874D01*
X7895Y5835D01*
X7857Y5777D01*
X7853Y5759D01*
X7972D01*
Y5877D01*
D02*
G37*
G36*
X7284Y6000D02*
Y5882D01*
X7403D01*
X7399Y5900D01*
X7360Y5958D01*
X7303Y5997D01*
X7284Y6000D01*
D02*
G37*
G36*
X7184D02*
X7166Y5997D01*
X7108Y5958D01*
X7069Y5900D01*
X7066Y5882D01*
X7184D01*
Y6000D01*
D02*
G37*
G36*
X2871Y6037D02*
X2625D01*
Y5791D01*
X2653Y5794D01*
X2726Y5825D01*
X2789Y5873D01*
X2837Y5935D01*
X2867Y6008D01*
X2871Y6037D01*
D02*
G37*
G36*
X7972Y5659D02*
X7853D01*
X7857Y5640D01*
X7895Y5582D01*
X7953Y5544D01*
X7972Y5540D01*
Y5659D01*
D02*
G37*
G36*
X3250Y5509D02*
Y5390D01*
X3368D01*
X3364Y5409D01*
X3326Y5467D01*
X3268Y5505D01*
X3250Y5509D01*
D02*
G37*
G36*
X7403Y5782D02*
X7284D01*
Y5663D01*
X7303Y5667D01*
X7360Y5706D01*
X7399Y5763D01*
X7403Y5782D01*
D02*
G37*
G36*
X7184D02*
X7066D01*
X7069Y5763D01*
X7108Y5706D01*
X7166Y5667D01*
X7184Y5663D01*
Y5782D01*
D02*
G37*
G36*
X8190Y5659D02*
X8072D01*
Y5540D01*
X8090Y5544D01*
X8148Y5582D01*
X8187Y5640D01*
X8190Y5659D01*
D02*
G37*
G36*
X2525Y8037D02*
X2279D01*
X2283Y8008D01*
X2313Y7935D01*
X2361Y7873D01*
X2424Y7825D01*
X2496Y7794D01*
X2525Y7791D01*
Y8037D01*
D02*
G37*
G36*
X2625Y7383D02*
Y7137D01*
X2871D01*
X2867Y7165D01*
X2837Y7238D01*
X2789Y7301D01*
X2726Y7349D01*
X2653Y7379D01*
X2625Y7383D01*
D02*
G37*
G36*
X2525D02*
X2496Y7379D01*
X2424Y7349D01*
X2361Y7301D01*
X2313Y7238D01*
X2283Y7165D01*
X2279Y7137D01*
X2525D01*
Y7383D01*
D02*
G37*
G36*
X2625Y8383D02*
Y8137D01*
X2871D01*
X2867Y8165D01*
X2837Y8238D01*
X2789Y8301D01*
X2726Y8349D01*
X2653Y8379D01*
X2625Y8383D01*
D02*
G37*
G36*
X2525D02*
X2496Y8379D01*
X2424Y8349D01*
X2361Y8301D01*
X2313Y8238D01*
X2283Y8165D01*
X2279Y8137D01*
X2525D01*
Y8383D01*
D02*
G37*
G36*
X2871Y8037D02*
X2625D01*
Y7791D01*
X2653Y7794D01*
X2726Y7825D01*
X2789Y7873D01*
X2837Y7935D01*
X2867Y8008D01*
X2871Y8037D01*
D02*
G37*
G36*
X2625Y6383D02*
Y6137D01*
X2871D01*
X2867Y6165D01*
X2837Y6238D01*
X2789Y6301D01*
X2726Y6349D01*
X2653Y6379D01*
X2625Y6383D01*
D02*
G37*
G36*
X2525D02*
X2496Y6379D01*
X2424Y6349D01*
X2361Y6301D01*
X2313Y6238D01*
X2283Y6165D01*
X2279Y6137D01*
X2525D01*
Y6383D01*
D02*
G37*
G36*
X3739Y7130D02*
X3494D01*
X3455Y7122D01*
X3422Y7100D01*
X3400Y7067D01*
X3392Y7028D01*
Y6822D01*
X3739D01*
Y7130D01*
D02*
G37*
G36*
X2871Y7037D02*
X2625D01*
Y6791D01*
X2653Y6794D01*
X2726Y6825D01*
X2789Y6873D01*
X2837Y6935D01*
X2867Y7008D01*
X2871Y7037D01*
D02*
G37*
G36*
X2525D02*
X2279D01*
X2283Y7008D01*
X2313Y6935D01*
X2361Y6873D01*
X2424Y6825D01*
X2496Y6794D01*
X2525Y6791D01*
Y7037D01*
D02*
G37*
G36*
X12794Y8633D02*
X12776Y8629D01*
X12718Y8591D01*
X12693Y8553D01*
X12692Y8553D01*
X12628D01*
X12627Y8553D01*
X12602Y8591D01*
X12544Y8629D01*
X12525Y8633D01*
Y8465D01*
Y8296D01*
X12544Y8300D01*
X12602Y8338D01*
X12627Y8376D01*
X12628Y8377D01*
X12692D01*
X12693Y8376D01*
X12718Y8338D01*
X12776Y8300D01*
X12794Y8296D01*
Y8465D01*
Y8633D01*
D02*
G37*
G36*
X12425D02*
X12407Y8629D01*
X12349Y8591D01*
X12311Y8533D01*
X12307Y8515D01*
X12425D01*
Y8633D01*
D02*
G37*
G36*
Y8415D02*
X12307D01*
X12311Y8396D01*
X12349Y8338D01*
X12407Y8300D01*
X12425Y8296D01*
Y8415D01*
D02*
G37*
G36*
X13582Y5806D02*
X13240D01*
X13247Y5753D01*
X13287Y5657D01*
X13350Y5574D01*
X13433Y5511D01*
X13529Y5471D01*
X13582Y5464D01*
Y5806D01*
D02*
G37*
G36*
Y6248D02*
X13529Y6241D01*
X13433Y6202D01*
X13350Y6138D01*
X13287Y6056D01*
X13247Y5959D01*
X13240Y5906D01*
X13582D01*
Y6248D01*
D02*
G37*
G36*
X7357Y10801D02*
X7238D01*
X7242Y10783D01*
X7280Y10725D01*
X7338Y10687D01*
X7357Y10683D01*
Y10801D01*
D02*
G37*
%LPD*%
D10*
X4518Y3543D02*
D03*
X5266D02*
D03*
X8091Y2534D02*
D03*
X8839D02*
D03*
X7190D02*
D03*
X6442D02*
D03*
X7918Y10974D02*
D03*
X8666D02*
D03*
X7918Y10187D02*
D03*
X8666D02*
D03*
D11*
X9843Y5285D02*
D03*
Y6033D02*
D03*
X3789Y9498D02*
D03*
Y8750D02*
D03*
X3789Y6024D02*
D03*
Y6772D02*
D03*
X13214Y11073D02*
D03*
Y11821D02*
D03*
X9523Y11412D02*
D03*
Y12160D02*
D03*
D12*
X591Y3886D02*
D03*
X13632Y3856D02*
D03*
D20*
X6348Y9341D02*
Y9769D01*
X6939Y10064D02*
X7136Y9867D01*
X7308Y10039D02*
X7333Y10015D01*
X6644Y9966D02*
X6939Y9670D01*
X5955Y4355D02*
Y4833D01*
Y4331D02*
Y4355D01*
X8312Y4828D02*
X8317Y4833D01*
X8312Y4326D02*
Y4828D01*
X3986Y8169D02*
X4587D01*
X6348Y9341D02*
X6348Y9341D01*
X6152D02*
X6182Y9310D01*
Y9030D02*
Y9310D01*
Y9030D02*
X7239Y7972D01*
X7948D01*
X4454Y11097D02*
X5758Y9793D01*
Y9341D02*
Y9793D01*
X5428Y10492D02*
X5955Y9966D01*
Y9341D02*
Y9966D01*
X5428Y10492D02*
Y11083D01*
X5736Y8858D02*
X5930D01*
X5711Y8834D02*
X5736Y8858D01*
X5782Y8563D02*
X6053D01*
X5770Y8551D02*
X5782Y8563D01*
X5364Y8957D02*
X5770Y8551D01*
X5561Y8984D02*
Y9341D01*
Y8984D02*
X5711Y8834D01*
X5364Y8957D02*
Y9341D01*
X7954Y9030D02*
X8018Y8966D01*
X7954Y9030D02*
Y9252D01*
X8018Y8966D02*
X8419D01*
X9558Y6611D02*
X9801Y6539D01*
X9030Y6589D02*
X9547D01*
X9469Y6856D02*
X9834D01*
X5758Y4429D02*
Y4833D01*
X5364Y4503D02*
Y4833D01*
X7013Y4429D02*
X7136Y4552D01*
X7333Y3161D02*
Y4833D01*
X7499Y4583D02*
X7624Y4458D01*
X8720Y5478D02*
X10093Y4104D01*
X9069Y7972D02*
X9082Y7985D01*
X8419Y8966D02*
X8714Y9261D01*
X8832Y8856D02*
X13632D01*
X7948Y7972D02*
X8832Y8856D01*
X3002Y5118D02*
X3200Y5316D01*
Y5340D01*
X7795Y10851D02*
X7918Y10974D01*
X7406Y10851D02*
Y11122D01*
X3494Y2854D02*
X3519Y2879D01*
Y3248D01*
X11270Y7037D02*
X11491D01*
X10901Y6974D02*
Y7554D01*
Y6974D02*
X11193Y6681D01*
X8637Y7972D02*
X9069D01*
X5955Y4833D02*
X5955Y4833D01*
X5574Y3543D02*
X6460Y4429D01*
X9641Y5487D02*
X9843Y5285D01*
X9547Y5487D02*
X9641D01*
X9424Y5610D02*
X9547Y5487D01*
X9094Y5610D02*
X9424D01*
X1000Y1886D02*
X3469Y4355D01*
X5217D01*
X1483Y2886D02*
X4208Y5610D01*
X591Y2886D02*
X1483D01*
X591Y1886D02*
X1000D01*
X11073Y2288D02*
Y4055D01*
X3814Y8725D02*
X3976Y8563D01*
X3789Y8750D02*
X3814Y8725D01*
X11356Y6681D02*
X13180Y4856D01*
X13632D01*
X11193Y6681D02*
X11356D01*
X11491Y7037D02*
Y8219D01*
X8268Y2712D02*
Y3642D01*
X7653Y2190D02*
X8120Y1722D01*
X7653Y2190D02*
Y2841D01*
X7333Y3161D02*
X7653Y2841D01*
X9818Y9498D02*
X13274D01*
X9400Y9916D02*
X9818Y9498D01*
X13274D02*
X13632Y9856D01*
X9892Y8563D02*
X10668Y7786D01*
X9094Y8563D02*
X9892D01*
X10668Y7786D02*
X10901Y7554D01*
X10408Y7084D02*
Y7160D01*
X10433Y7456D02*
X10581D01*
X9834Y6856D02*
X10433Y7456D01*
X6939Y9341D02*
Y9670D01*
X1280Y10261D02*
X1476D01*
X1156Y10581D02*
X1476D01*
X7530Y9341D02*
Y10212D01*
X7136Y9341D02*
Y9867D01*
X7333Y9341D02*
Y10015D01*
X9105Y7371D02*
X9561D01*
X575Y6456D02*
X1206Y7087D01*
Y9695D01*
X1047Y10029D02*
X1280Y10261D01*
X1047Y7863D02*
Y10029D01*
X1206Y10901D02*
X1476D01*
X575Y10270D02*
X1206Y10901D01*
X575Y9087D02*
Y10270D01*
X889Y10313D02*
X1156Y10581D01*
X889Y8689D02*
Y10313D01*
X575Y8375D02*
X889Y8689D01*
X1206Y9695D02*
X1476Y9966D01*
X575Y7391D02*
X1047Y7863D01*
X575Y8087D02*
Y8375D01*
Y7087D02*
Y7391D01*
Y6087D02*
Y6456D01*
X5487Y4158D02*
X5758Y4429D01*
X5175Y4158D02*
X5487D01*
X4891Y3874D02*
X5175Y4158D01*
X5217Y4355D02*
X5364Y4503D01*
X5266Y2608D02*
Y3543D01*
X5574D01*
X5266Y2608D02*
X5315Y2559D01*
X7893Y9310D02*
X7923Y9341D01*
X7893Y9252D02*
Y9310D01*
X4208Y5610D02*
X4587D01*
X8720Y5478D02*
Y6004D01*
X10093Y3966D02*
Y4104D01*
X8268Y3642D02*
Y3931D01*
X7741Y4458D02*
X8268Y3931D01*
X7624Y4458D02*
X7741D01*
X7499Y4583D02*
Y4802D01*
X7136Y4552D02*
Y4833D01*
X6460Y4429D02*
X7013D01*
X3809Y6004D02*
X4587D01*
X3976Y8563D02*
X4587D01*
X7190Y2534D02*
Y2776D01*
X6693Y3273D02*
X7190Y2776D01*
X6693Y3273D02*
Y3642D01*
X7499Y4802D02*
X7530Y4833D01*
X8091Y2534D02*
X8268Y2712D01*
X3789Y6024D02*
X3809Y6004D01*
X8720D02*
X9094D01*
Y8169D02*
X9695D01*
X9082Y7985D02*
X9094Y7972D01*
X9547Y7776D02*
X9572Y7751D01*
X9094Y7776D02*
X9547D01*
X8711Y7579D02*
X9094D01*
Y7382D02*
X9105Y7371D01*
X9856Y6531D02*
X10408Y7084D01*
X9094Y7776D02*
X9094Y7776D01*
X9404Y6791D02*
X9469Y6856D01*
X9094Y6791D02*
X9404D01*
X9553Y6612D02*
X9558Y6611D01*
X9801Y6539D02*
X9856Y6531D01*
X9547Y6613D02*
X9553Y6612D01*
X4891Y1959D02*
Y3874D01*
X7357Y10384D02*
X7530Y10212D01*
X6348Y9341D02*
X6348Y9341D01*
X7893Y9252D02*
X7954D01*
X8714Y9261D02*
X13140D01*
X11073Y1058D02*
Y2288D01*
X4891Y1959D02*
X6087Y763D01*
X7190Y1786D02*
Y2534D01*
X8120Y1722D02*
X8228D01*
X7126D02*
X7190Y1786D01*
X5266Y2053D02*
X6320Y998D01*
X6332D01*
X6396Y934D01*
Y923D02*
Y934D01*
Y923D02*
X6605Y714D01*
X9843Y5285D02*
X11073Y4055D01*
X8661Y9990D02*
Y10187D01*
X8543Y10974D02*
X8661Y10856D01*
X5266Y2053D02*
Y2608D01*
D21*
X13140Y7348D02*
Y8391D01*
Y7348D02*
X13632Y6856D01*
X12180Y12648D02*
X12697D01*
X12475Y8465D02*
X12844D01*
X2165Y984D02*
X2190Y1009D01*
X12008Y2067D02*
Y2485D01*
X9843Y5807D02*
Y6033D01*
X7918Y9921D02*
X8120Y9719D01*
Y9341D02*
Y9719D01*
X7918Y9921D02*
Y10187D01*
X8317Y9646D02*
X8661Y9990D01*
X8317Y9341D02*
Y9646D01*
X9094Y5807D02*
X9843D01*
D22*
X3617Y8095D02*
Y8529D01*
X11934Y8292D02*
Y8588D01*
X12623Y2411D02*
Y4724D01*
X8661Y10187D02*
X8666D01*
X8735Y10261D02*
X10335D01*
X2657Y2264D02*
Y2781D01*
X1575Y4011D02*
Y6087D01*
Y3839D02*
Y4011D01*
Y3839D02*
X1649Y3765D01*
X12623Y2264D02*
Y2411D01*
X4208Y1476D02*
X4213Y1481D01*
Y2559D01*
X3760Y6053D02*
X3789Y6024D01*
X3174Y6053D02*
X3760D01*
X11934Y8292D02*
X12598Y7628D01*
Y6422D02*
Y7628D01*
X7077Y531D02*
Y630D01*
X6865Y320D02*
X7077Y531D01*
X2657Y2264D02*
X4601Y320D01*
X6865D01*
X11417Y1058D02*
X12623Y2264D01*
X11319Y1058D02*
X11417D01*
X9006D02*
X11073D01*
X11319D01*
X3617Y8529D02*
X3814Y8725D01*
X8661Y10187D02*
Y10856D01*
Y10187D02*
X8735Y10261D01*
D23*
X13091Y1083D02*
D03*
X1083Y13091D02*
D03*
D24*
X8087Y689D02*
D03*
X7087D02*
D03*
X2575Y6087D02*
D03*
Y7087D02*
D03*
Y8087D02*
D03*
Y9087D02*
D03*
X1575Y6087D02*
D03*
Y7087D02*
D03*
Y8087D02*
D03*
Y9087D02*
D03*
D25*
X6087Y689D02*
D03*
D26*
X575Y6087D02*
D03*
Y7087D02*
D03*
Y8087D02*
D03*
Y9087D02*
D03*
D27*
X591Y886D02*
D03*
Y1886D02*
D03*
Y2886D02*
D03*
X13632Y5856D02*
D03*
Y4856D02*
D03*
Y6856D02*
D03*
Y7856D02*
D03*
Y8856D02*
D03*
Y9856D02*
D03*
D28*
X6348Y9769D02*
D03*
X6939Y10064D02*
D03*
X7308Y10039D02*
D03*
X6644Y9966D02*
D03*
X8312Y4326D02*
D03*
X3986Y8169D02*
D03*
X3617Y8095D02*
D03*
X5428Y11083D02*
D03*
X4454Y11097D02*
D03*
X5930Y8858D02*
D03*
X6053Y8563D02*
D03*
X10581Y7456D02*
D03*
X13140Y9252D02*
D03*
Y8391D02*
D03*
X12697Y12648D02*
D03*
X12180D02*
D03*
X12844Y8465D02*
D03*
X12475D02*
D03*
X11983Y566D02*
D03*
Y886D02*
D03*
X2165Y984D02*
D03*
X3200Y5340D02*
D03*
X12008Y2485D02*
D03*
Y2067D02*
D03*
X7406Y10851D02*
D03*
Y11122D02*
D03*
X7234Y5832D02*
D03*
X3494Y2854D02*
D03*
X3519Y3248D02*
D03*
X3002Y5118D02*
D03*
X1722Y984D02*
D03*
X2239Y2215D02*
D03*
X8022Y5709D02*
D03*
X10728Y1993D02*
D03*
X11097Y4454D02*
D03*
X11959Y5438D02*
D03*
Y5733D02*
D03*
X11270Y7037D02*
D03*
X12549Y10261D02*
D03*
X11934Y8588D02*
D03*
X12623Y4724D02*
D03*
X12598Y6152D02*
D03*
X2436Y3027D02*
D03*
X8637Y7972D02*
D03*
X5955Y4355D02*
D03*
X2657Y2781D02*
D03*
X1575Y4011D02*
D03*
X1649Y3765D02*
D03*
X10359Y4749D02*
D03*
X11073Y2288D02*
D03*
X12623Y2411D02*
D03*
X4208Y1476D02*
D03*
X3174Y6053D02*
D03*
X10335Y10261D02*
D03*
X10605D02*
D03*
X12598Y6422D02*
D03*
X12623Y5020D02*
D03*
X11934Y8292D02*
D03*
X12254Y10261D02*
D03*
X11491Y8219D02*
D03*
X10408Y7160D02*
D03*
X9400Y9916D02*
D03*
X1476Y10261D02*
D03*
Y10581D02*
D03*
X7357Y10384D02*
D03*
X9561Y7371D02*
D03*
X1476Y10901D02*
D03*
Y9966D02*
D03*
X10093Y3966D02*
D03*
X9695Y8169D02*
D03*
X9572Y7751D02*
D03*
X8711Y7579D02*
D03*
X9547Y6841D02*
D03*
X9547Y6576D02*
D03*
X8661Y1058D02*
D03*
X9006D02*
D03*
X6605Y714D02*
D03*
X11319Y1058D02*
D03*
D29*
X8317Y9341D02*
D03*
X8120D02*
D03*
X7923D02*
D03*
X7726D02*
D03*
X7530D02*
D03*
X7333D02*
D03*
X7136D02*
D03*
X6939D02*
D03*
X6742D02*
D03*
X6545D02*
D03*
X6348D02*
D03*
X6152D02*
D03*
X5955D02*
D03*
X5758D02*
D03*
X5561D02*
D03*
X5364D02*
D03*
X5364Y4833D02*
D03*
X5561D02*
D03*
X5758D02*
D03*
X5955D02*
D03*
X6152D02*
D03*
X6348D02*
D03*
X6545D02*
D03*
X6742D02*
D03*
X6939D02*
D03*
X7136D02*
D03*
X7333D02*
D03*
X7530D02*
D03*
X7726D02*
D03*
X7923D02*
D03*
X8120D02*
D03*
X8317D02*
D03*
D30*
X9094Y5610D02*
D03*
Y5807D02*
D03*
Y6004D02*
D03*
Y6201D02*
D03*
Y6398D02*
D03*
Y6594D02*
D03*
Y6791D02*
D03*
Y6988D02*
D03*
Y7185D02*
D03*
Y7382D02*
D03*
Y7579D02*
D03*
Y7776D02*
D03*
Y7972D02*
D03*
Y8169D02*
D03*
Y8366D02*
D03*
Y8563D02*
D03*
X4587D02*
D03*
Y8366D02*
D03*
Y8169D02*
D03*
Y7972D02*
D03*
Y7776D02*
D03*
Y7579D02*
D03*
Y7382D02*
D03*
Y7185D02*
D03*
Y6988D02*
D03*
Y6791D02*
D03*
Y6594D02*
D03*
Y6398D02*
D03*
Y6201D02*
D03*
Y6004D02*
D03*
Y5807D02*
D03*
Y5610D02*
D03*
D31*
X5315Y2559D02*
D03*
X4213D02*
D03*
X8228Y1772D02*
D03*
X7126D02*
D03*
D32*
X8268Y3642D02*
D03*
X6693D02*
D03*
D33*
X10487Y11083D02*
D03*
X11393D02*
D03*
X12298D02*
D03*
D34*
X11393Y13602D02*
D03*
D35*
X7406Y10851D02*
X7795D01*
X7918Y10187D02*
Y10974D01*
D36*
X12549Y10261D02*
X12795D01*
X12254D02*
X12549D01*
X10335D02*
X10605D01*
X12254D01*
X12795D02*
X13164Y10630D01*
X1575Y9087D02*
X4029Y11540D01*
X9523Y11412D02*
X10089D01*
X9473D02*
X9523D01*
X4029Y11540D02*
X9345D01*
X9473Y11412D01*
X1575Y8087D02*
Y9087D01*
X10089Y11412D02*
X10428Y11073D01*
X10438Y11083D01*
X1575Y7087D02*
Y8087D01*
Y6087D02*
Y7087D01*
X11417Y10285D02*
Y13528D01*
X11343Y13602D02*
X11417Y13528D01*
X13164Y10630D02*
Y11073D01*
M02*
