G04 Layer_Color=8421504*
%FSLAX24Y24*%
%MOIN*%
G70*
G01*
G75*
%ADD10R,0.0512X0.0591*%
%ADD11R,0.0591X0.0512*%
%ADD12R,0.0591X0.0591*%
%ADD13R,0.0109X0.0256*%
%ADD14R,0.0256X0.0109*%
%ADD15R,0.0295X0.0157*%
%ADD16R,0.0157X0.0291*%
%ADD17R,0.0157X0.0295*%
%ADD18R,0.0709X0.0630*%
%ADD19R,0.0945X0.0630*%
D10*
X9060Y3839D02*
D03*
X8312D02*
D03*
X6772Y2928D02*
D03*
X6024D02*
D03*
X6772Y3789D02*
D03*
X6024D02*
D03*
X10177Y8686D02*
D03*
X10925D02*
D03*
X10935Y9473D02*
D03*
X10187D02*
D03*
X11083Y2805D02*
D03*
X10335D02*
D03*
D11*
X4552Y8273D02*
D03*
Y7525D02*
D03*
X11122Y5310D02*
D03*
Y6058D02*
D03*
X12648Y6983D02*
D03*
Y7731D02*
D03*
X11860Y6983D02*
D03*
Y7731D02*
D03*
D12*
X8858Y6053D02*
D03*
Y6914D02*
D03*
D13*
X10179Y6836D02*
D03*
X10348D02*
D03*
X10687D02*
D03*
X10518D02*
D03*
X10179Y8076D02*
D03*
X10348D02*
D03*
X10687D02*
D03*
X10518D02*
D03*
D14*
X10955Y6863D02*
D03*
Y7032D02*
D03*
Y7202D02*
D03*
Y7371D02*
D03*
Y8048D02*
D03*
Y7879D02*
D03*
Y7710D02*
D03*
Y7540D02*
D03*
X9911Y6863D02*
D03*
Y7032D02*
D03*
Y7202D02*
D03*
Y7371D02*
D03*
Y8048D02*
D03*
Y7879D02*
D03*
Y7710D02*
D03*
Y7540D02*
D03*
D15*
X11130Y3966D02*
D03*
X10327D02*
D03*
Y4203D02*
D03*
X11130D02*
D03*
D16*
X10965Y3679D02*
D03*
X10492D02*
D03*
X10965Y4490D02*
D03*
X10492D02*
D03*
D17*
X10728Y3683D02*
D03*
Y4486D02*
D03*
D18*
X6644Y8376D02*
D03*
Y7274D02*
D03*
X5413Y8376D02*
D03*
Y7274D02*
D03*
X7874Y8366D02*
D03*
Y7264D02*
D03*
X10039Y655D02*
D03*
Y1757D02*
D03*
X12500Y3002D02*
D03*
Y4104D02*
D03*
X4454Y11511D02*
D03*
Y12613D02*
D03*
X5428Y11511D02*
D03*
Y12613D02*
D03*
D19*
X7874Y6388D02*
D03*
Y5266D02*
D03*
X6644Y6388D02*
D03*
Y5266D02*
D03*
X5413Y6388D02*
D03*
Y5266D02*
D03*
X3199Y11496D02*
D03*
Y12618D02*
D03*
X6693Y11501D02*
D03*
Y12623D02*
D03*
M02*
