G04 Layer_Color=8388736*
%FSLAX24Y24*%
%MOIN*%
G70*
G01*
G75*
%ADD13R,0.0109X0.0256*%
%ADD14R,0.0256X0.0109*%
%ADD15R,0.0295X0.0157*%
%ADD16R,0.0157X0.0291*%
%ADD17R,0.0157X0.0295*%
%ADD39R,0.0129X0.0335*%
%ADD40R,0.0129X0.0335*%
%ADD41R,0.0130X0.0335*%
%ADD42R,0.0129X0.0335*%
%ADD43R,0.0129X0.0335*%
%ADD44R,0.0129X0.0335*%
%ADD45R,0.0128X0.0335*%
%ADD46R,0.0332X0.0130*%
%ADD47R,0.0331X0.0128*%
%ADD48R,0.0335X0.0127*%
%ADD49R,0.0335X0.0129*%
%ADD50R,0.0330X0.0130*%
%ADD51R,0.0329X0.0127*%
%ADD52R,0.0335X0.0130*%
%ADD53R,0.0335X0.0128*%
%ADD54R,0.0332X0.0130*%
%ADD55R,0.0332X0.0129*%
%ADD56R,0.0335X0.0129*%
%ADD57R,0.0335X0.0129*%
%ADD58R,0.0332X0.0129*%
%ADD59R,0.0332X0.0129*%
%ADD60R,0.0335X0.0130*%
%ADD61R,0.0335X0.0129*%
%ADD62R,0.0189X0.0318*%
%ADD63R,0.0189X0.0335*%
%ADD64R,0.0189X0.0317*%
%ADD65R,0.0335X0.0189*%
%ADD66R,0.0189X0.0317*%
%ADD67R,0.0189X0.0317*%
%ADD68R,0.0575X0.0654*%
%ADD69R,0.0654X0.0575*%
%ADD70R,0.0654X0.0654*%
%ADD71R,0.0772X0.0693*%
%ADD72R,0.1008X0.0693*%
%ADD73C,0.1378*%
%ADD74C,0.0463*%
%ADD75R,0.0463X0.0463*%
%ADD76R,0.0463X0.0463*%
%ADD77C,0.0654*%
%ADD78C,0.0213*%
D13*
X10179Y6836D02*
D03*
X10348D02*
D03*
X10687D02*
D03*
X10518D02*
D03*
X10179Y8076D02*
D03*
X10348D02*
D03*
X10687D02*
D03*
X10518D02*
D03*
D14*
X10955Y6863D02*
D03*
Y7032D02*
D03*
Y7202D02*
D03*
Y7371D02*
D03*
Y8048D02*
D03*
Y7879D02*
D03*
Y7710D02*
D03*
Y7540D02*
D03*
X9911Y6863D02*
D03*
Y7032D02*
D03*
Y7202D02*
D03*
Y7371D02*
D03*
Y8048D02*
D03*
Y7879D02*
D03*
Y7710D02*
D03*
Y7540D02*
D03*
D15*
X11130Y3966D02*
D03*
X10327D02*
D03*
Y4203D02*
D03*
X11130D02*
D03*
D16*
X10965Y3679D02*
D03*
X10492D02*
D03*
X10965Y4490D02*
D03*
X10492D02*
D03*
D17*
X10728Y3683D02*
D03*
Y4486D02*
D03*
D39*
X10179Y6834D02*
D03*
D40*
X10348Y6834D02*
D03*
D41*
X10687Y6834D02*
D03*
X10179Y8078D02*
D03*
D42*
X10517Y6834D02*
D03*
D43*
X10349Y8078D02*
D03*
D44*
X10687Y8078D02*
D03*
D45*
X10518Y8078D02*
D03*
D46*
X10958Y6863D02*
D03*
D47*
X10958Y7033D02*
D03*
D48*
X10957Y7202D02*
D03*
D49*
X10957Y7371D02*
D03*
D50*
X10959Y8048D02*
D03*
D51*
X10960Y7879D02*
D03*
D52*
X10957Y7710D02*
D03*
D53*
X10957Y7540D02*
D03*
D54*
X9908Y6863D02*
D03*
D55*
X9908Y7033D02*
D03*
D56*
X9909Y7202D02*
D03*
D57*
Y7371D02*
D03*
D58*
X9908Y8048D02*
D03*
D59*
X9908Y7879D02*
D03*
D60*
X9909Y7710D02*
D03*
D61*
X9909Y7540D02*
D03*
D62*
X10965Y3673D02*
D03*
D63*
X10728Y3681D02*
D03*
X10728Y4488D02*
D03*
D64*
X10492Y3672D02*
D03*
D65*
X10325Y3966D02*
D03*
Y4203D02*
D03*
X11132Y4203D02*
D03*
Y3966D02*
D03*
D66*
X10492Y4497D02*
D03*
D67*
X10965Y4497D02*
D03*
D68*
X9060Y3839D02*
D03*
X8312D02*
D03*
X6772Y2928D02*
D03*
X6024D02*
D03*
X6772Y3789D02*
D03*
X6024D02*
D03*
X10177Y8686D02*
D03*
X10925D02*
D03*
X10935Y9473D02*
D03*
X10187D02*
D03*
X11083Y2805D02*
D03*
X10335D02*
D03*
D69*
X4552Y8273D02*
D03*
Y7525D02*
D03*
X11122Y5310D02*
D03*
Y6058D02*
D03*
X12648Y6983D02*
D03*
Y7731D02*
D03*
X11860Y6983D02*
D03*
Y7731D02*
D03*
D70*
X8858Y6053D02*
D03*
Y6914D02*
D03*
X591Y3886D02*
D03*
X13632Y3856D02*
D03*
D71*
X6644Y8376D02*
D03*
Y7274D02*
D03*
X5413Y8376D02*
D03*
Y7274D02*
D03*
X7874Y8366D02*
D03*
Y7264D02*
D03*
X10039Y655D02*
D03*
Y1757D02*
D03*
X12500Y3002D02*
D03*
Y4104D02*
D03*
X4454Y11511D02*
D03*
Y12613D02*
D03*
X5428Y11511D02*
D03*
Y12613D02*
D03*
D72*
X7874Y6388D02*
D03*
Y5266D02*
D03*
X6644Y6388D02*
D03*
Y5266D02*
D03*
X5413Y6388D02*
D03*
Y5266D02*
D03*
X3199Y11496D02*
D03*
Y12618D02*
D03*
X6693Y11501D02*
D03*
Y12623D02*
D03*
D73*
X13091Y1083D02*
D03*
X1083Y13091D02*
D03*
D74*
X8087Y689D02*
D03*
X7087D02*
D03*
X2575Y6087D02*
D03*
Y7087D02*
D03*
Y8087D02*
D03*
Y9087D02*
D03*
X1575Y6087D02*
D03*
Y7087D02*
D03*
Y8087D02*
D03*
Y9087D02*
D03*
D75*
X6087Y689D02*
D03*
D76*
X575Y6087D02*
D03*
Y7087D02*
D03*
Y8087D02*
D03*
Y9087D02*
D03*
D77*
X591Y886D02*
D03*
Y1886D02*
D03*
Y2886D02*
D03*
X13632Y5856D02*
D03*
Y4856D02*
D03*
Y6856D02*
D03*
Y7856D02*
D03*
Y8856D02*
D03*
Y9856D02*
D03*
D78*
X6348Y9769D02*
D03*
X6939Y10064D02*
D03*
X7308Y10039D02*
D03*
X6644Y9966D02*
D03*
X8312Y4326D02*
D03*
X3986Y8169D02*
D03*
X3617Y8095D02*
D03*
X5428Y11083D02*
D03*
X4454Y11097D02*
D03*
X5930Y8858D02*
D03*
X6053Y8563D02*
D03*
X10581Y7456D02*
D03*
X13140Y9252D02*
D03*
Y8391D02*
D03*
X12697Y12648D02*
D03*
X12180D02*
D03*
X12844Y8465D02*
D03*
X12475D02*
D03*
X11983Y566D02*
D03*
Y886D02*
D03*
X2165Y984D02*
D03*
X3200Y5340D02*
D03*
X12008Y2485D02*
D03*
Y2067D02*
D03*
X7406Y10851D02*
D03*
Y11122D02*
D03*
X7234Y5832D02*
D03*
X3494Y2854D02*
D03*
X3519Y3248D02*
D03*
X3002Y5118D02*
D03*
X1722Y984D02*
D03*
X2239Y2215D02*
D03*
X8022Y5709D02*
D03*
X10728Y1993D02*
D03*
X11097Y4454D02*
D03*
X11959Y5438D02*
D03*
Y5733D02*
D03*
X11270Y7037D02*
D03*
X12549Y10261D02*
D03*
X11934Y8588D02*
D03*
X12623Y4724D02*
D03*
X12598Y6152D02*
D03*
X2436Y3027D02*
D03*
X8637Y7972D02*
D03*
X5955Y4355D02*
D03*
X2657Y2781D02*
D03*
X1575Y4011D02*
D03*
X1649Y3765D02*
D03*
X10359Y4749D02*
D03*
X11073Y2288D02*
D03*
X12623Y2411D02*
D03*
X4208Y1476D02*
D03*
X3174Y6053D02*
D03*
X10335Y10261D02*
D03*
X10605D02*
D03*
X12598Y6422D02*
D03*
X12623Y5020D02*
D03*
X11934Y8292D02*
D03*
X12254Y10261D02*
D03*
X11491Y8219D02*
D03*
X10408Y7160D02*
D03*
X9400Y9916D02*
D03*
X1476Y10261D02*
D03*
Y10581D02*
D03*
X7357Y10384D02*
D03*
X9561Y7371D02*
D03*
X1476Y10901D02*
D03*
Y9966D02*
D03*
X10093Y3966D02*
D03*
X9695Y8169D02*
D03*
X9572Y7751D02*
D03*
X8711Y7579D02*
D03*
X9547Y6841D02*
D03*
X9547Y6576D02*
D03*
X8661Y1058D02*
D03*
X9006D02*
D03*
X6605Y714D02*
D03*
X11319Y1058D02*
D03*
M02*
